<?xml version="1.0" encoding="UTF-8"?>
<svg xmlns="http://www.w3.org/2000/svg" viewBox="0 0 595.28 595.28">
  <defs>
    <style>
      .cls-1 {
        opacity: .27;
      }

      .cls-2, .cls-3 {
        fill: #3763ad;
      }

      .cls-4 {
        fill: #5f4e49;
        opacity: 0;
      }

      .cls-3 {
        opacity: .35;
      }

      .cls-5 {
        fill: #1e1e1e;
        stroke: #1d1d1b;
        stroke-miterlimit: 10;
        stroke-width: .25px;
      }
    </style>
  </defs>
  <g id="fond_transparent">
    <rect class="cls-4" width="596.32" height="596.32"/>
  </g>
  <g id="volant_2_-_copie">
    <path id="MANCHE" class="cls-5" d="M298.67,247.32c18.89,4.24,37.78,8.47,56.68,12.71.04-.81,0-2.18-.59-3.74-.52-1.38-1.26-2.35-1.77-2.92-18.04-4.19-36.08-8.39-54.12-12.58-1.52.23-2.7,1.4-2.9,2.81-.23,1.65.92,3.32,2.7,3.73Z"/>
    <g>
      <g id="bleu_foncé">
        <path id="BASE" class="cls-2" d="M317.41,237.02l-1.05-1.57c-3.71-5.54-8.22-9.43-12.89-11.53l-1.12-.51c-1.71-.77-3.63-.66-5.38.23l-1.05.54c-1.5.77-2.9,1.68-4.19,2.7-1.9,1.5-3.6,3.25-5.05,5.21l-.61.83c-.95,1.29-1.57,3-1.75,4.81l-.11,1.14c-.4,4.06-.21,8.29.59,12.52-.53-3.61-.34-6.35-.34-6.35-.02-1.93-.02-4.21.03-6.74.08-.58.24-1.34.61-2.23.19-.5.4-.82.97-1.94,0,0-.52.85-.97,1.94-.49,1.19-.67,2.09-.77,2.58-.55,2.81,0,5.75.13,6.38,0,0-.19,2.79.34,6.35.06.32.12.64.18.95l.26,1.25c.43,2.03,1.34,3.88,2.57,5.18l.47.5.34.35c3.31,3.49,7.49,6.21,12.3,7.69l1.39.42c2.33.72,4.62.26,6.32-1.36l1.1-1.05c1.01-.97,1.96-2.06,2.85-3.23,2.97-3.91,5.14-8.79,6.25-14.31l.39-1.91c.61-3.04-.06-6.25-1.8-8.86ZM285.05,237.95l.8-2c.08-.2.17-.4.26-.6l.9-1.98c.4-.87.97-1.44,1.57-1.71,1.04-.47,2.21-.05,2.83,1.41l.89,2.08c.09.21.18.44.26.66l.82,2.29c.56,1.57.31,3.27-.43,4.43-.55.87-1.37,1.42-2.29,1.36l-1.76-.13c-.17-.01-.34-.03-.51-.06l-1.62-.28c-1.75-.3-2.62-3.21-1.72-5.46ZM293.39,255.1l-.94,2.31s-.04.08-.06.12c-1.1,2.45-3.66,1.87-4.79-.93l-.95-2.35c-.09-.23-.18-.47-.26-.7l-.81-2.29c-.82-2.32-.03-5.01,1.51-5.53.13-.04.27-.08.41-.09l1.68-.14c.18-.02.35-.02.53-.02l1.82.03c2.24.04,3.94,3.51,2.96,6.39l-.83,2.47c-.08.25-.17.49-.27.73ZM300.7,238.01c-1.83,2.52-4.96,1.82-5.85-1.05l-.74-2.4c-.07-.24-.14-.48-.2-.72l-.59-2.36c-.52-2.11.52-4.5,2.13-5.42.4-.23.84-.38,1.31-.4l2.17-.11c.23-.01.46-.01.68,0l2.35.07c2.93.09,4.38,3.87,2.48,6.87l-1.59,2.52c-.16.25-.32.49-.49.73l-1.64,2.26v.02ZM308.89,263.2l-2.57,1.21c-.25.12-.51.22-.77.31l-2.48.88c-2.67.95-5.81-2.41-6-6.07l-.17-3.12c-.01-.31-.02-.62-.02-.93v-3.01c-.01-1.75.72-3.09,1.77-3.74,1.02-.63,2.36-.63,3.69.31l2.5,1.77c.26.19.53.39.79.6l2.68,2.16c2.5,2.02,3.35,5.5,2.32,7.8-.35.79-.93,1.44-1.73,1.81ZM316.31,248.71c-1.17,2.02-3.67,2.95-6.16,1.86l-3.07-1.35c-.29-.13-.59-.27-.87-.42l-2.7-1.41c-2.85-1.49-3.64-5.72-1.6-8.1l1.85-2.16c.19-.22.39-.44.6-.65l2.1-2.15c.13-.13.26-.24.39-.35,2.57-2.14,6.66-1.07,7.77,2.56l1.06,3.46c.11.36.21.72.29,1.08l.86,3.67c.35,1.52.12,2.88-.51,3.96Z"/>
        <g>
          <path class="cls-3" d="M284.63,251.51c.02.17.05.34.08.51-.03-.17-.05-.34-.08-.51,0,0,0,0,0,0Z"/>
          <path class="cls-2" d="M295.82,236.04l-.76-2.36c-.08-.23-.15-.47-.21-.71l-.6-2.33c-.41-1.59.09-3.35,1.06-4.49-1.61.92-2.66,3.32-2.13,5.43l.58,2.36c.06.24.13.48.2.72l.74,2.4c.89,2.88,4.02,3.58,5.85,1.05v-.02c-1.77,1.13-3.99.24-4.73-2.06Z"/>
          <path class="cls-2" d="M288.75,243.87l1.76.13c.92.07,1.73-.49,2.29-1.36-.33.16-.69.24-1.07.22l-1.75-.12c-.17-.01-.34-.03-.51-.06l-1.61-.27c-1.74-.29-2.64-3.15-1.76-5.37l.77-1.97c.08-.2.16-.4.25-.59l.88-1.95c.13-.29.28-.54.44-.76-.61.27-1.18.85-1.57,1.72l-.91,1.98c-.09.2-.18.4-.26.6l-.8,2.01c-.9,2.26-.03,5.17,1.72,5.47l1.62.28c.17.03.34.05.51.06Z"/>
          <path class="cls-2" d="M288.8,255.37l-.97-2.31c-.1-.23-.18-.46-.27-.69l-.82-2.25c-.55-1.51-.41-3.17.18-4.27-1.54.52-2.33,3.21-1.52,5.54l.8,2.29c.08.24.17.47.26.7l.95,2.36c1.13,2.8,3.69,3.39,4.79.93-1.19.43-2.64-.44-3.42-2.31Z"/>
          <path class="cls-2" d="M307.45,263.01c-.25.11-.5.22-.76.31l-2.46.87c-2.64.94-5.78-2.35-6.01-5.95l-.19-3.06c-.02-.31-.03-.61-.03-.91l-.03-2.96c-.13-.83.1-1.72.52-2.44-1.05.65-1.79,1.99-1.79,3.75v3.02c0,.31.01.62.03.93l.16,3.12c.19,3.67,3.32,7.03,6,6.08l2.49-.88c.26-.09.52-.2.77-.31l2.57-1.21c.8-.38,1.38-1.02,1.74-1.82-.15.1-.3.2-.47.28l-2.54,1.19Z"/>
          <path class="cls-2" d="M311.14,249.41l-3.06-1.32c-.29-.13-.58-.26-.87-.41l-2.69-1.39c-2.85-1.46-3.66-5.62-1.66-7.96l1.82-2.13c.19-.22.38-.44.59-.64l1.44-1.47c-.13.11-.27.22-.39.35l-2.1,2.15c-.21.21-.41.43-.6.65l-1.85,2.17c-2.04,2.38-1.26,6.62,1.59,8.11l2.7,1.42c.28.15.58.29.87.42l3.07,1.35c2.49,1.1,4.99.16,6.17-1.86-1.31,1.05-3.17,1.37-5.02.57Z"/>
          <path class="cls-2" d="M320.1,244.79c.59-2.99-.1-6.15-1.86-8.71l-1.06-1.55c-3.73-5.46-8.25-9.29-12.91-11.35l-1.12-.5c-1.71-.76-3.62-.65-5.35.23l-1.04.53c-1.9.97-3.63,2.16-5.18,3.52,1.3-1.02,2.69-1.93,4.2-2.7l1.05-.54c1.74-.89,3.67-1,5.38-.23l1.12.51c4.66,2.1,9.17,6,12.88,11.56l1.05,1.58c1.74,2.61,2.41,5.83,1.79,8.87l-.39,1.91c-1.12,5.53-3.3,10.42-6.28,14.33,3.54-4.04,6.12-9.41,7.33-15.59l.37-1.87Z"/>
        </g>
        <g id="gris">
          <path id="BASE-2" data-name="BASE" class="cls-2" d="M317.41,237.02l-1.05-1.57c-3.71-5.54-8.22-9.43-12.89-11.53l-1.12-.51c-1.71-.77-3.63-.66-5.38.23l-1.05.54c-1.5.77-2.9,1.68-4.19,2.7-1.9,1.5-3.6,3.25-5.05,5.21l-.61.83c-.95,1.29-1.57,3-1.75,4.81l-.11,1.14c-.4,4.06-.21,8.29.59,12.52-.53-3.61-.34-6.35-.34-6.35-.02-1.93-.02-4.21.03-6.74.08-.58.24-1.34.61-2.23.19-.5.4-.82.97-1.94,0,0-.52.85-.97,1.94-.49,1.19-.67,2.09-.77,2.58-.55,2.81,0,5.75.13,6.38,0,0-.19,2.79.34,6.35.06.32.12.64.18.95l.26,1.25c.43,2.03,1.34,3.88,2.57,5.18l.47.5.34.35c3.31,3.49,7.49,6.21,12.3,7.69l1.39.42c2.33.72,4.62.26,6.32-1.36l1.1-1.05c1.01-.97,1.96-2.06,2.85-3.23,2.97-3.91,5.14-8.79,6.25-14.31l.39-1.91c.61-3.04-.06-6.25-1.8-8.86ZM285.05,237.95l.8-2c.08-.2.17-.4.26-.6l.9-1.98c.4-.87.97-1.44,1.57-1.71,1.04-.47,2.21-.05,2.83,1.41l.89,2.08c.09.21.18.44.26.66l.82,2.29c.56,1.57.31,3.27-.43,4.43-.55.87-1.37,1.42-2.29,1.36l-1.76-.13c-.17-.01-.34-.03-.51-.06l-1.62-.28c-1.75-.3-2.62-3.21-1.72-5.46ZM293.39,255.1l-.94,2.31s-.04.08-.06.12c-1.1,2.45-3.66,1.87-4.79-.93l-.95-2.35c-.09-.23-.18-.47-.26-.7l-.81-2.29c-.82-2.32-.03-5.01,1.51-5.53.13-.04.27-.08.41-.09l1.68-.14c.18-.02.35-.02.53-.02l1.82.03c2.24.04,3.94,3.51,2.96,6.39l-.83,2.47c-.08.25-.17.49-.27.73ZM300.7,238.01c-1.83,2.52-4.96,1.82-5.85-1.05l-.74-2.4c-.07-.24-.14-.48-.2-.72l-.59-2.36c-.52-2.11.52-4.5,2.13-5.42.4-.23.84-.38,1.31-.4l2.17-.11c.23-.01.46-.01.68,0l2.35.07c2.93.09,4.38,3.87,2.48,6.87l-1.59,2.52c-.16.25-.32.49-.49.73l-1.64,2.26v.02ZM308.89,263.2l-2.57,1.21c-.25.12-.51.22-.77.31l-2.48.88c-2.67.95-5.81-2.41-6-6.07l-.17-3.12c-.01-.31-.02-.62-.02-.93v-3.01c-.01-1.75.72-3.09,1.77-3.74,1.02-.63,2.36-.63,3.69.31l2.5,1.77c.26.19.53.39.79.6l2.68,2.16c2.5,2.02,3.35,5.5,2.32,7.8-.35.79-.93,1.44-1.73,1.81ZM316.31,248.71c-1.17,2.02-3.67,2.95-6.16,1.86l-3.07-1.35c-.29-.13-.59-.27-.87-.42l-2.7-1.41c-2.85-1.49-3.64-5.72-1.6-8.1l1.85-2.16c.19-.22.39-.44.6-.65l2.1-2.15c.13-.13.26-.24.39-.35,2.57-2.14,6.66-1.07,7.77,2.56l1.06,3.46c.11.36.21.72.29,1.08l.86,3.67c.35,1.52.12,2.88-.51,3.96Z"/>
          <g>
            <path class="cls-3" d="M284.63,251.51c.02.17.05.34.08.51-.03-.17-.05-.34-.08-.51,0,0,0,0,0,0Z"/>
            <path class="cls-2" d="M295.82,236.04l-.76-2.36c-.08-.23-.15-.47-.21-.71l-.6-2.33c-.41-1.59.09-3.35,1.06-4.49-1.61.92-2.66,3.32-2.13,5.43l.58,2.36c.06.24.13.48.2.72l.74,2.4c.89,2.88,4.02,3.58,5.85,1.05v-.02c-1.77,1.13-3.99.24-4.73-2.06Z"/>
            <path class="cls-2" d="M288.75,243.87l1.76.13c.92.07,1.73-.49,2.29-1.36-.33.16-.69.24-1.07.22l-1.75-.12c-.17-.01-.34-.03-.51-.06l-1.61-.27c-1.74-.29-2.64-3.15-1.76-5.37l.77-1.97c.08-.2.16-.4.25-.59l.88-1.95c.13-.29.28-.54.44-.76-.61.27-1.18.85-1.57,1.72l-.91,1.98c-.09.2-.18.4-.26.6l-.8,2.01c-.9,2.26-.03,5.17,1.72,5.47l1.62.28c.17.03.34.05.51.06Z"/>
            <path class="cls-2" d="M288.8,255.37l-.97-2.31c-.1-.23-.18-.46-.27-.69l-.82-2.25c-.55-1.51-.41-3.17.18-4.27-1.54.52-2.33,3.21-1.52,5.54l.8,2.29c.08.24.17.47.26.7l.95,2.36c1.13,2.8,3.69,3.39,4.79.93-1.19.43-2.64-.44-3.42-2.31Z"/>
            <path class="cls-2" d="M307.45,263.01c-.25.11-.5.22-.76.31l-2.46.87c-2.64.94-5.78-2.35-6.01-5.95l-.19-3.06c-.02-.31-.03-.61-.03-.91l-.03-2.96c-.13-.83.1-1.72.52-2.44-1.05.65-1.79,1.99-1.79,3.75v3.02c0,.31.01.62.03.93l.16,3.12c.19,3.67,3.32,7.03,6,6.08l2.49-.88c.26-.09.52-.2.77-.31l2.57-1.21c.8-.38,1.38-1.02,1.74-1.82-.15.1-.3.2-.47.28l-2.54,1.19Z"/>
            <path class="cls-2" d="M311.14,249.41l-3.06-1.32c-.29-.13-.58-.26-.87-.41l-2.69-1.39c-2.85-1.46-3.66-5.62-1.66-7.96l1.82-2.13c.19-.22.38-.44.59-.64l1.44-1.47c-.13.11-.27.22-.39.35l-2.1,2.15c-.21.21-.41.43-.6.65l-1.85,2.17c-2.04,2.38-1.26,6.62,1.59,8.11l2.7,1.42c.28.15.58.29.87.42l3.07,1.35c2.49,1.1,4.99.16,6.17-1.86-1.31,1.05-3.17,1.37-5.02.57Z"/>
            <path class="cls-2" d="M320.1,244.79c.59-2.99-.1-6.15-1.86-8.71l-1.06-1.55c-3.73-5.46-8.25-9.29-12.91-11.35l-1.12-.5c-1.71-.76-3.62-.65-5.35.23l-1.04.53c-1.9.97-3.63,2.16-5.18,3.52,1.3-1.02,2.69-1.93,4.2-2.7l1.05-.54c1.74-.89,3.67-1,5.38-.23l1.12.51c4.66,2.1,9.17,6,12.88,11.56l1.05,1.58c1.74,2.61,2.41,5.83,1.79,8.87l-.39,1.91c-1.12,5.53-3.3,10.42-6.28,14.33,3.54-4.04,6.12-9.41,7.33-15.59l.37-1.87Z"/>
          </g>
        </g>
      </g>
      <g id="OMBRE">
        <path class="cls-1" d="M295.82,236.04l-.76-2.36c-.08-.23-.15-.47-.21-.71l-.6-2.33c-.41-1.59.09-3.35,1.06-4.49-1.61.92-2.66,3.32-2.13,5.43l.58,2.36c.06.24.13.48.2.72l.74,2.4c.89,2.88,4.02,3.58,5.85,1.05v-.02c-1.77,1.13-3.99.24-4.73-2.06Z"/>
        <path class="cls-1" d="M288.75,243.87l1.76.13c.92.07,1.73-.49,2.29-1.36-.33.16-.69.24-1.07.22l-1.75-.12c-.17-.01-.34-.03-.51-.06l-1.61-.27c-1.74-.29-2.64-3.15-1.76-5.37l.77-1.97c.08-.2.16-.4.25-.59l.88-1.95c.13-.29.28-.54.44-.76-.61.27-1.18.85-1.57,1.72l-.91,1.98c-.09.2-.18.4-.26.6l-.8,2.01c-.9,2.26-.03,5.17,1.72,5.47l1.62.28c.17.03.34.05.51.06Z"/>
        <path class="cls-1" d="M288.8,255.37l-.97-2.31c-.1-.23-.18-.46-.27-.69l-.82-2.25c-.55-1.51-.41-3.17.18-4.27-1.54.52-2.33,3.21-1.52,5.54l.8,2.29c.08.24.17.47.26.7l.95,2.36c1.13,2.8,3.69,3.39,4.79.93-1.19.43-2.64-.44-3.42-2.31Z"/>
        <path class="cls-1" d="M307.45,263.01c-.25.11-.5.22-.76.31l-2.46.87c-2.64.94-5.78-2.35-6.01-5.95l-.19-3.06c-.02-.31-.03-.61-.03-.91l-.03-2.96c-.13-.83.1-1.72.52-2.44-1.05.65-1.79,1.99-1.79,3.75v3.02c0,.31.01.62.03.93l.16,3.12c.19,3.67,3.32,7.03,6,6.08l2.49-.88c.26-.09.52-.2.77-.31l2.57-1.21c.8-.38,1.38-1.02,1.74-1.82-.15.1-.3.2-.47.28l-2.54,1.19Z"/>
        <path class="cls-1" d="M311.14,249.41l-3.06-1.32c-.29-.13-.58-.26-.87-.41l-2.69-1.39c-2.85-1.46-3.66-5.62-1.66-7.96l1.82-2.13c.19-.22.38-.44.59-.64l1.44-1.47c-.13.11-.27.22-.39.35l-2.1,2.15c-.21.21-.41.43-.6.65l-1.85,2.17c-2.04,2.38-1.26,6.62,1.59,8.11l2.7,1.42c.28.15.58.29.87.42l3.07,1.35c2.49,1.1,4.99.16,6.17-1.86-1.31,1.05-3.17,1.37-5.02.57Z"/>
        <path class="cls-1" d="M320.1,244.79c.59-2.99-.1-6.15-1.86-8.71l-1.06-1.55c-3.73-5.46-8.25-9.29-12.91-11.35l-1.12-.5c-1.71-.76-3.62-.65-5.35.23l-1.04.53c-1.9.97-3.63,2.16-5.18,3.52,1.3-1.02,2.69-1.93,4.2-2.7l1.05-.54c1.74-.89,3.67-1,5.38-.23l1.12.51c4.66,2.1,9.17,6,12.88,11.56l1.05,1.58c1.74,2.61,2.41,5.83,1.79,8.87l-.39,1.91c-1.12,5.53-3.3,10.42-6.28,14.33,3.54-4.04,6.12-9.41,7.33-15.59l.37-1.87Z"/>
      </g>
    </g>
  </g>
</svg>