<?xml version="1.0" encoding="UTF-8"?>
<svg xmlns="http://www.w3.org/2000/svg" viewBox="0 0 595.28 595.28">
  <defs>
    <style>
      .cls-1 {
        fill: #313030;
        stroke-width: .75px;
      }

      .cls-1, .cls-2 {
        stroke: #000;
        stroke-miterlimit: 10;
      }

      .cls-2 {
        fill: #676868;
        stroke-width: .5px;
      }

      .cls-3 {
        fill: #5f4e49;
        opacity: 0;
      }
    </style>
  </defs>
  <g id="fond_transparent">
    <rect class="cls-3" width="596.32" height="596.32"/>
  </g>
  <g id="roue_arrière">
    <g id="roue_1">
      <g id="roue_1-2" data-name="roue_1">
        <path class="cls-2" d="M92.78,398.9s-52.03-5.04-37.97-62.48c0,0,4.33-25.33,36.24-43.47,31.9-18.15,58.36,1.12,62.77,6.92s-61.04,99.03-61.04,99.03Z"/>
        <path class="cls-1" d="M147.67,294.74s-29.61-10.65-61.42,19.99c0,0-21.7,22.71-19.21,50.82,0,0,2.95,34.14,29.88,33.21,0,0,36.04,1.23,56.08-29.21,0,0,16.05-21.08,12.6-45.49,0,0-3.16-21.9-17.93-29.32Z"/>
      </g>
      <g id="roue_1-3" data-name="roue_1">
        <path class="cls-2" d="M329.47,318.84s-27.14-3.2-23.88-35.44c3.25-32.24,35.49-42.49,35.49-42.49,0,0,24.01-6.3,34.65,11.87s-46.26,66.07-46.26,66.07Z"/>
        <path class="cls-1" d="M370.33,246.62s-26.01-11.83-48.2,22.16c0,0-11.02,18.05-6.09,32.78,0,0,4.42,13.3,12.55,17.14,0,0,22.96,6.28,43.13-21.14,20.18-27.42,1.67-49.94-1.4-50.94Z"/>
      </g>
    </g>
  </g>
</svg>