<?xml version="1.0" encoding="UTF-8"?>
<svg xmlns="http://www.w3.org/2000/svg" viewBox="0 0 595.28 595.28">
  <defs>
    <style>
      .cls-1 {
        opacity: .27;
      }

      .cls-2 {
        fill: #1e1e1e;
        stroke: #000;
        stroke-miterlimit: 10;
        stroke-width: .25px;
      }

      .cls-3, .cls-4 {
        fill: #3763ad;
      }

      .cls-5 {
        fill: #5f4e49;
        opacity: 0;
      }

      .cls-4 {
        opacity: .35;
      }
    </style>
  </defs>
  <g id="fond_transparent">
    <rect class="cls-5" width="596.32" height="596.32"/>
  </g>
  <g id="volant_2">
    <g id="bleu_foncé">
      <path id="BASE" class="cls-3" d="M305.67,230.57l-1.58-1.8c-5.99-6.82-13.11-12.12-20.26-15.24l-1.78-.78c-2.76-1.2-5.39-1.09-7.32.21l-1.15.78c-1.64,1.1-3.02,2.4-4.18,3.83-1.67,2.06-2.86,4.42-3.56,6.98l-.29,1.06c-.44,1.61-.2,3.7.65,5.84l.52,1.32c1.76,4.47,4.18,8.79,7.1,12.8-2.31-3.41-3.45-6.15-3.45-6.15-1.03-2.01-2.26-4.46-3.62-7.31-.24-.68-.47-1.56-.54-2.62-.05-.61.02-.99.08-2.36,0,0-.16,1.04-.08,2.36.08,1.41.38,2.46.54,3.03.91,3.14,3.14,6.25,3.61,6.9,0,0,1.18,2.79,3.45,6.15.21.29.42.58.63.87l.84,1.11c1.33,1.76,3.04,3.31,4.82,4.35l.67.39.48.28c4.54,2.65,9.43,4.57,14.37,5.5l1.4.26c2.33.44,4.34.05,5.59-1.15l.82-.79c.77-.74,1.46-1.57,2.09-2.48,2.18-3.13,3.53-7.25,3.76-12.24l.09-1.83c.14-3.03-1.18-6.39-3.7-9.26ZM267.23,231.71l-.16-2.36c-.02-.25-.02-.49-.03-.73v-2.44c-.02-1.1.38-1.83,1.01-2.18,1.09-.6,2.86-.04,4.48,1.82l2.23,2.56c.23.26.45.52.66.79l2.13,2.67c1.4,1.76,1.86,3.62,1.51,4.87-.26.92-.96,1.5-2.05,1.44l-2.11-.11c-.21,0-.42-.03-.63-.06l-2.04-.27c-2.22-.3-4.84-3.44-5.01-6ZM284.54,248.7l-.16,1.97s-.01.07-.02.1c-.26,2.02-3.08,1.61-5.32-.67l-1.97-2c-.2-.2-.39-.41-.58-.61l-1.88-2.05c-1.99-2.17-2.39-4.81-.87-5.35.13-.05.27-.08.43-.1l1.86-.16c.19-.02.39-.03.6-.03h2.1c2.57.02,5.82,3.38,5.83,6.06v2.2c0,.22,0,.43-.02.63ZM286.34,231.73c-1.17,2.81-5.16,2.06-7.53-1.19l-2.07-2.85c-.21-.29-.42-.58-.62-.88l-1.98-2.98c-1.84-2.78-1.81-6.05-.15-7.33.42-.32.94-.52,1.57-.55l2.9-.12c.3-.01.61-.01.92,0l3.21.14c3.97.18,7.4,5.36,6.15,9.2l-.99,3.06c-.1.3-.2.58-.32.86l-1.1,2.62v.02ZM302.24,254.83l-2.19.97c-.21.09-.43.18-.66.25l-2.15.72c-2.3.76-6.2-1.63-7.47-4.48l-1.14-2.55c-.12-.26-.22-.52-.32-.78l-1.01-2.63c-.61-1.58-.28-2.84.64-3.47.9-.61,2.37-.63,4.1.23l3.19,1.6c.33.17.66.34.99.53l3.33,1.86c2.99,1.67,4.54,4.5,3.99,6.33-.19.62-.61,1.12-1.3,1.43ZM306.81,242.56c-.84,1.87-3.23,2.75-6.06,1.81l-3.58-1.19c-.35-.12-.7-.24-1.04-.38l-3.33-1.3c-3.63-1.42-6.03-5.74-4.54-8.34l1.4-2.44c.15-.26.31-.51.48-.75l1.77-2.53c.11-.15.23-.29.36-.42,2.44-2.62,7.77-1.27,10.04,3.02l2.03,3.83c.2.38.39.76.57,1.15l1.7,3.75c.67,1.48.67,2.79.21,3.81Z"/>
      <g>
        <path class="cls-4" d="M273.68,245.69c.1.15.21.31.32.46-.11-.16-.21-.31-.32-.46,0,0,0,0,0,0Z"/>
        <path class="cls-3" d="M279.58,229.46l-2.07-2.85c-.21-.29-.42-.58-.62-.88l-1.98-2.98c-1.41-2.12-1.72-4.54-1.05-6.13-1.67,1.28-1.7,4.55.15,7.33l1.98,2.98c.2.3.4.59.62.88l2.07,2.85c2.36,3.25,6.35,4,7.53,1.19v-.02c-1.67,1.27-4.69.29-6.62-2.37Z"/>
        <path class="cls-3" d="M274.78,238.17l2.11.11c1.09.06,1.79-.52,2.05-1.44-.32.17-.7.26-1.15.24l-2.11-.11c-.21,0-.42-.03-.63-.06l-2.04-.27c-2.22-.3-4.84-3.44-5.01-6l-.16-2.36c-.02-.25-.02-.49-.03-.73v-2.44c-.02-.37.03-.69.11-.98-.63.35-1.03,1.08-1.02,2.18v2.44c.01.24.02.48.04.73l.16,2.36c.17,2.56,2.79,5.7,5.01,6l2.04.27c.21.03.42.05.63.06Z"/>
        <path class="cls-3" d="M279.81,249.02l-1.97-2c-.2-.2-.39-.41-.58-.61l-1.88-2.05c-1.3-1.42-1.92-3.04-1.77-4.14-1.53.54-1.12,3.18.87,5.35l1.88,2.05c.19.21.38.41.58.61l1.97,2c2.24,2.28,5.06,2.69,5.32.67-1.07.38-2.88-.3-4.42-1.87Z"/>
        <path class="cls-3" d="M300.82,254.73c-.21.09-.43.18-.66.25l-2.15.72c-2.3.76-6.2-1.63-7.47-4.48l-1.14-2.55c-.12-.26-.22-.52-.32-.78l-1.01-2.63c-.42-.75-.48-1.59-.27-2.27-.92.63-1.24,1.89-.64,3.47l1.01,2.63c.1.26.21.52.32.78l1.14,2.55c1.27,2.85,5.18,5.24,7.47,4.48l2.15-.72c.23-.08.44-.16.66-.25l2.19-.97c.69-.31,1.11-.81,1.3-1.43-.12.08-.25.16-.4.22l-2.19.97Z"/>
        <path class="cls-3" d="M301.52,243.29l-3.58-1.19c-.35-.12-.7-.24-1.04-.38l-3.33-1.3c-3.63-1.42-6.03-5.74-4.54-8.34l1.4-2.44c.15-.26.31-.51.48-.75l1.23-1.75c-.12.13-.25.27-.36.42l-1.77,2.53c-.17.24-.33.5-.48.75l-1.4,2.44c-1.49,2.6.91,6.92,4.54,8.34l3.33,1.3c.35.14.69.26,1.04.38l3.58,1.19c2.83.94,5.23.06,6.06-1.81-1.16.99-3.04,1.31-5.16.6Z"/>
        <path class="cls-3" d="M310.14,238.75c.14-3.03-1.18-6.39-3.7-9.26l-1.58-1.8c-5.99-6.82-13.11-12.12-20.26-15.24l-1.78-.78c-2.76-1.2-5.39-1.09-7.32.21l-1.15.78c-2.08,1.4-3.77,3.11-5.08,5.03,1.16-1.43,2.54-2.72,4.18-3.83l1.15-.78c1.94-1.3,4.57-1.41,7.32-.21l1.78.78c7.15,3.12,14.28,8.42,20.26,15.24l1.58,1.8c2.52,2.87,3.84,6.23,3.7,9.26l-.09,1.83c-.23,4.99-1.58,9.11-3.76,12.24,2.72-3.24,4.4-7.79,4.66-13.44l.09-1.83Z"/>
      </g>
      <g id="gris">
        <path id="BASE-2" data-name="BASE" class="cls-3" d="M305.67,230.57l-1.58-1.8c-5.99-6.82-13.11-12.12-20.26-15.24l-1.78-.78c-2.76-1.2-5.39-1.09-7.32.21l-1.15.78c-1.64,1.1-3.02,2.4-4.18,3.83-1.67,2.06-2.86,4.42-3.56,6.98l-.29,1.06c-.44,1.61-.2,3.7.65,5.84l.52,1.32c1.76,4.47,4.18,8.79,7.1,12.8-2.31-3.41-3.45-6.15-3.45-6.15-1.03-2.01-2.26-4.46-3.62-7.31-.24-.68-.47-1.56-.54-2.62-.05-.61.02-.99.08-2.36,0,0-.16,1.04-.08,2.36.08,1.41.38,2.46.54,3.03.91,3.14,3.14,6.25,3.61,6.9,0,0,1.18,2.79,3.45,6.15.21.29.42.58.63.87l.84,1.11c1.33,1.76,3.04,3.31,4.82,4.35l.67.39.48.28c4.54,2.65,9.43,4.57,14.37,5.5l1.4.26c2.33.44,4.34.05,5.59-1.15l.82-.79c.77-.74,1.46-1.57,2.09-2.48,2.18-3.13,3.53-7.25,3.76-12.24l.09-1.83c.14-3.03-1.18-6.39-3.7-9.26ZM267.23,231.71l-.16-2.36c-.02-.25-.02-.49-.03-.73v-2.44c-.02-1.1.38-1.83,1.01-2.18,1.09-.6,2.86-.04,4.48,1.82l2.23,2.56c.23.26.45.52.66.79l2.13,2.67c1.4,1.76,1.86,3.62,1.51,4.87-.26.92-.96,1.5-2.05,1.44l-2.11-.11c-.21,0-.42-.03-.63-.06l-2.04-.27c-2.22-.3-4.84-3.44-5.01-6ZM284.54,248.7l-.16,1.97s-.01.07-.02.1c-.26,2.02-3.08,1.61-5.32-.67l-1.97-2c-.2-.2-.39-.41-.58-.61l-1.88-2.05c-1.99-2.17-2.39-4.81-.87-5.35.13-.05.27-.08.43-.1l1.86-.16c.19-.02.39-.03.6-.03h2.1c2.57.02,5.82,3.38,5.83,6.06v2.2c0,.22,0,.43-.02.63ZM286.34,231.73c-1.17,2.81-5.16,2.06-7.53-1.19l-2.07-2.85c-.21-.29-.42-.58-.62-.88l-1.98-2.98c-1.84-2.78-1.81-6.05-.15-7.33.42-.32.94-.52,1.57-.55l2.9-.12c.3-.01.61-.01.92,0l3.21.14c3.97.18,7.4,5.36,6.15,9.2l-.99,3.06c-.1.3-.2.58-.32.86l-1.1,2.62v.02ZM302.24,254.83l-2.19.97c-.21.09-.43.18-.66.25l-2.15.72c-2.3.76-6.2-1.63-7.47-4.48l-1.14-2.55c-.12-.26-.22-.52-.32-.78l-1.01-2.63c-.61-1.58-.28-2.84.64-3.47.9-.61,2.37-.63,4.1.23l3.19,1.6c.33.17.66.34.99.53l3.33,1.86c2.99,1.67,4.54,4.5,3.99,6.33-.19.62-.61,1.12-1.3,1.43ZM306.81,242.56c-.84,1.87-3.23,2.75-6.06,1.81l-3.58-1.19c-.35-.12-.7-.24-1.04-.38l-3.33-1.3c-3.63-1.42-6.03-5.74-4.54-8.34l1.4-2.44c.15-.26.31-.51.48-.75l1.77-2.53c.11-.15.23-.29.36-.42,2.44-2.62,7.77-1.27,10.04,3.02l2.03,3.83c.2.38.39.76.57,1.15l1.7,3.75c.67,1.48.67,2.79.21,3.81Z"/>
        <g>
          <path class="cls-4" d="M273.68,245.69c.1.15.21.31.32.46-.11-.16-.21-.31-.32-.46,0,0,0,0,0,0Z"/>
          <path class="cls-3" d="M279.58,229.46l-2.07-2.85c-.21-.29-.42-.58-.62-.88l-1.98-2.98c-1.41-2.12-1.72-4.54-1.05-6.13-1.67,1.28-1.7,4.55.15,7.33l1.98,2.98c.2.3.4.59.62.88l2.07,2.85c2.36,3.25,6.35,4,7.53,1.19v-.02c-1.67,1.27-4.69.29-6.62-2.37Z"/>
          <path class="cls-3" d="M274.78,238.17l2.11.11c1.09.06,1.79-.52,2.05-1.44-.32.17-.7.26-1.15.24l-2.11-.11c-.21,0-.42-.03-.63-.06l-2.04-.27c-2.22-.3-4.84-3.44-5.01-6l-.16-2.36c-.02-.25-.02-.49-.03-.73v-2.44c-.02-.37.03-.69.11-.98-.63.35-1.03,1.08-1.02,2.18v2.44c.01.24.02.48.04.73l.16,2.36c.17,2.56,2.79,5.7,5.01,6l2.04.27c.21.03.42.05.63.06Z"/>
          <path class="cls-3" d="M279.81,249.02l-1.97-2c-.2-.2-.39-.41-.58-.61l-1.88-2.05c-1.3-1.42-1.92-3.04-1.77-4.14-1.53.54-1.12,3.18.87,5.35l1.88,2.05c.19.21.38.41.58.61l1.97,2c2.24,2.28,5.06,2.69,5.32.67-1.07.38-2.88-.3-4.42-1.87Z"/>
          <path class="cls-3" d="M300.82,254.73c-.21.09-.43.18-.66.25l-2.15.72c-2.3.76-6.2-1.63-7.47-4.48l-1.14-2.55c-.12-.26-.22-.52-.32-.78l-1.01-2.63c-.42-.75-.48-1.59-.27-2.27-.92.63-1.24,1.89-.64,3.47l1.01,2.63c.1.26.21.52.32.78l1.14,2.55c1.27,2.85,5.18,5.24,7.47,4.48l2.15-.72c.23-.08.44-.16.66-.25l2.19-.97c.69-.31,1.11-.81,1.3-1.43-.12.08-.25.16-.4.22l-2.19.97Z"/>
          <path class="cls-3" d="M301.52,243.29l-3.58-1.19c-.35-.12-.7-.24-1.04-.38l-3.33-1.3c-3.63-1.42-6.03-5.74-4.54-8.34l1.4-2.44c.15-.26.31-.51.48-.75l1.23-1.75c-.12.13-.25.27-.36.42l-1.77,2.53c-.17.24-.33.5-.48.75l-1.4,2.44c-1.49,2.6.91,6.92,4.54,8.34l3.33,1.3c.35.14.69.26,1.04.38l3.58,1.19c2.83.94,5.23.06,6.06-1.81-1.16.99-3.04,1.31-5.16.6Z"/>
          <path class="cls-3" d="M310.14,238.75c.14-3.03-1.18-6.39-3.7-9.26l-1.58-1.8c-5.99-6.82-13.11-12.12-20.26-15.24l-1.78-.78c-2.76-1.2-5.39-1.09-7.32.21l-1.15.78c-2.08,1.4-3.77,3.11-5.08,5.03,1.16-1.43,2.54-2.72,4.18-3.83l1.15-.78c1.94-1.3,4.57-1.41,7.32-.21l1.78.78c7.15,3.12,14.28,8.42,20.26,15.24l1.58,1.8c2.52,2.87,3.84,6.23,3.7,9.26l-.09,1.83c-.23,4.99-1.58,9.11-3.76,12.24,2.72-3.24,4.4-7.79,4.66-13.44l.09-1.83Z"/>
        </g>
      </g>
    </g>
    <g id="OMBRE">
      <path class="cls-1" d="M279.58,229.46l-2.07-2.85c-.21-.29-.42-.58-.62-.88l-1.98-2.98c-1.41-2.12-1.72-4.54-1.05-6.13-1.67,1.28-1.7,4.55.15,7.33l1.98,2.98c.2.3.4.59.62.88l2.07,2.85c2.36,3.25,6.35,4,7.53,1.19v-.02c-1.67,1.27-4.69.29-6.62-2.37Z"/>
      <path class="cls-1" d="M274.78,238.17l2.11.11c1.09.06,1.79-.52,2.05-1.44-.32.17-.7.26-1.15.24l-2.11-.11c-.21,0-.42-.03-.63-.06l-2.04-.27c-2.22-.3-4.84-3.44-5.01-6l-.16-2.36c-.02-.25-.02-.49-.03-.73v-2.44c-.02-.37.03-.69.11-.98-.63.35-1.03,1.08-1.02,2.18v2.44c.01.24.02.48.04.73l.16,2.36c.17,2.56,2.79,5.7,5.01,6l2.04.27c.21.03.42.05.63.06Z"/>
      <path class="cls-1" d="M279.81,249.02l-1.97-2c-.2-.2-.39-.41-.58-.61l-1.88-2.05c-1.3-1.42-1.92-3.04-1.77-4.14-1.53.54-1.12,3.18.87,5.35l1.88,2.05c.19.21.38.41.58.61l1.97,2c2.24,2.28,5.06,2.69,5.32.67-1.07.38-2.88-.3-4.42-1.87Z"/>
      <path class="cls-1" d="M300.82,254.73c-.21.09-.43.18-.66.25l-2.15.72c-2.3.76-6.2-1.63-7.47-4.48l-1.14-2.55c-.12-.26-.22-.52-.32-.78l-1.01-2.63c-.42-.75-.48-1.59-.27-2.27-.92.63-1.24,1.89-.64,3.47l1.01,2.63c.1.26.21.52.32.78l1.14,2.55c1.27,2.85,5.18,5.24,7.47,4.48l2.15-.72c.23-.08.44-.16.66-.25l2.19-.97c.69-.31,1.11-.81,1.3-1.43-.12.08-.25.16-.4.22l-2.19.97Z"/>
      <path class="cls-1" d="M301.52,243.29l-3.58-1.19c-.35-.12-.7-.24-1.04-.38l-3.33-1.3c-3.63-1.42-6.03-5.74-4.54-8.34l1.4-2.44c.15-.26.31-.51.48-.75l1.23-1.75c-.12.13-.25.27-.36.42l-1.77,2.53c-.17.24-.33.5-.48.75l-1.4,2.44c-1.49,2.6.91,6.92,4.54,8.34l3.33,1.3c.35.14.69.26,1.04.38l3.58,1.19c2.83.94,5.23.06,6.06-1.81-1.16.99-3.04,1.31-5.16.6Z"/>
      <path class="cls-1" d="M310.14,238.75c.14-3.03-1.18-6.39-3.7-9.26l-1.58-1.8c-5.99-6.82-13.11-12.12-20.26-15.24l-1.78-.78c-2.76-1.2-5.39-1.09-7.32.21l-1.15.78c-2.08,1.4-3.77,3.11-5.08,5.03,1.16-1.43,2.54-2.72,4.18-3.83l1.15-.78c1.94-1.3,4.57-1.41,7.32-.21l1.78.78c7.15,3.12,14.28,8.42,20.26,15.24l1.58,1.8c2.52,2.87,3.84,6.23,3.7,9.26l-.09,1.83c-.23,4.99-1.58,9.11-3.76,12.24,2.72-3.24,4.4-7.79,4.66-13.44l.09-1.83Z"/>
    </g>
    <path class="cls-2" d="M279.52,236.98c-4.71,6.26-9.42,12.52-14.14,18.78l7.45,3.56c4.52-6.02,9.04-12.03,13.57-18.05.74-1.89,0-4.04-1.72-5.06-1.66-.99-3.83-.67-5.16.77Z"/>
  </g>
</svg>