<?xml version="1.0" encoding="UTF-8"?>
<svg xmlns="http://www.w3.org/2000/svg" viewBox="0 0 595.28 595.28">
  <defs>
    <style>
      .cls-1, .cls-2 {
        opacity: .3;
      }

      .cls-3 {
        isolation: isolate;
      }

      .cls-4 {
        fill: #fff;
      }

      .cls-4, .cls-2 {
        stroke: #1d1d1b;
        stroke-miterlimit: 10;
        stroke-width: .25px;
      }

      .cls-5 {
        fill: #5f4e49;
        opacity: 0;
      }

      .cls-2 {
        fill: #1d1d1b;
        mix-blend-mode: multiply;
      }
    </style>
  </defs>
  <g class="cls-3">
    <g id="fond_transparent">
      <rect class="cls-5" width="596.32" height="596.32"/>
    </g>
    <g id="ombre_lumière">
      <g id="ombre_et_lumière">
        <path id="ombre" class="cls-2" d="M97.55,279.96c5.22,3.83-14.76,25.6-9.08,41.22,7,19.22,56.59,24.63,94.9,17,21.34-4.25,27.97-10.31,44.31-7.79,24.07,3.71,34.5,20.68,48,29.13,40.96,25.62,104.13-16.66,134.56-35.69,16.74-10.47,40.16-27.56,63.77-54.38.41,1.48,1.04,3.95,1.56,7.04,1.33,7.91.78,12.96.54,26-.05,2.64-.1,6.74-.08,11.85-13.57,6.4-32.25,14.74-54.92,23.38-24.85,9.48-46.59,16.31-73.65,23.98-54.73,15.52-95.78,27.15-152.01,34.8-40.74,5.54-67.56,6.01-96.36-4.08-15.83-5.54-35.51-12.77-43.58-31.65-11.15-26.09,8.2-54.96,10.48-58.26,6.39-9.23,14.57-15.02,18.82-17.67,5.44-3.39,10.49-6.54,12.74-4.88Z"/>
        <g class="cls-1">
          <path class="cls-4" d="M129.27,238.58c1.44-2.5,21.84,5.48,38.95,17.17,12.35,8.43,17.53,15.06,20.44,22.12,1.66,4.02,3.75,11.04,1.88,12.16-2.59,1.55-8.12-11.05-23.42-22-10.53-7.54-24.69-13.58-36-26.15-1.11-1.23-2.25-2.6-1.85-3.29Z"/>
          <path class="cls-4" d="M361.29,262.45c.06-2.88,96.09-4.59,96.29-1.19.05.88-6.28,1.88-13.85,3.08-6.09.96-24.38,3.56-56,1.23-10.77-.8-26.47-1.95-26.44-3.12Z"/>
        </g>
      </g>
    </g>
  </g>
</svg>