<?xml version="1.0" encoding="UTF-8"?>
<svg xmlns="http://www.w3.org/2000/svg" viewBox="0 0 595.28 595.28">
  <defs>
    <style>
      .cls-1 {
        fill: #292523;
      }

      .cls-1, .cls-2, .cls-3, .cls-4, .cls-5 {
        stroke: #000;
        stroke-miterlimit: 10;
        stroke-width: .5px;
      }

      .cls-2 {
        fill: #906643;
      }

      .cls-6 {
        opacity: 0;
      }

      .cls-6, .cls-3 {
        fill: #5f4e49;
      }

      .cls-4 {
        fill: #f3e9bd;
      }

      .cls-5 {
        opacity: .2;
      }
    </style>
  </defs>
  <g id="fond_transparent">
    <rect class="cls-6" width="596.32" height="596.32"/>
  </g>
  <g id="siège">
    <g id="siège_noir">
      <g id="siege">
        <path class="cls-1" d="M344.59,241.59c1.11-6.57,1.92-14.28,5.62-19.65,2.75-3.99,7.25-6.8,11.72-8.33,1.36-.47,1.85-.59,4.26-.9,1.81.27,1.53.36,2.7.34l1.25.06c10.73.85,21.79,2.77,31.92,6.58,11.84,4.46,22.14,10.06,22.38,24.22-.27,12.37-1.35,31.22-11.99,39.5-11.4,8.87-44.07,12.46-58.6,12.95-3.45-1.65-7.04-4.34-9.54-7.33-1.4-2.22-3.09-4.26-4.73-6.17l-.3-1.67c1.75-9.13,2.67-18.39,2.77-27.77l.91-2.19c.24-1.51.18-2.06.34-3.41,0,0,0-.02,0-.03l1.3-6.2Z"/>
        <path class="cls-1" d="M353.85,296.36c-14.18.49-33.12.49-45.52-6.94-.32-.99-.64-1.52.17-2.33,2.02-2.04,22.87-3.14,27.02-3.46,1.09-.08,3.27-.79,4.06-.76.7.02,1.21.32,1.71.8,1.65,1.58,3.09,4.7,5.23,6.72s5.35,3.56,7.33,5.97Z"/>
        <path class="cls-5" d="M353.85,296.36c-14.18.49-33.12.49-45.52-6.94-.32-.99-.64-1.52.17-2.33,2.02-2.04,22.87-3.14,27.02-3.46,1.09-.08,3.27-.79,4.06-.76.7.02,1.21.32,1.71.8,1.65,1.58,3.09,4.7,5.23,6.72s5.35,3.56,7.33,5.97Z"/>
      </g>
    </g>
    <g id="siège_marron">
      <g id="siege-2" data-name="siege">
        <path class="cls-2" d="M344.59,241.59c1.11-6.57,1.92-14.28,5.62-19.65,2.75-3.99,7.25-6.8,11.72-8.33,1.36-.47,1.85-.59,4.26-.9,1.81.27,1.53.36,2.7.34l1.25.06c10.73.85,21.79,2.77,31.92,6.58,11.84,4.46,22.14,10.06,22.38,24.22-.27,12.37-1.35,31.22-11.99,39.5-11.4,8.87-44.07,12.46-58.6,12.95-3.45-1.65-7.04-4.34-9.54-7.33-1.4-2.22-3.09-4.26-4.73-6.17l-.3-1.67c1.75-9.13,2.67-18.39,2.77-27.77l.91-2.19c.24-1.51.18-2.06.34-3.41,0,0,0-.02,0-.03l1.3-6.2Z"/>
        <path class="cls-2" d="M353.85,296.36c-14.18.49-33.12.49-45.52-6.94-.32-.99-.64-1.52.17-2.33,2.02-2.04,22.87-3.14,27.02-3.46,1.09-.08,3.27-.79,4.06-.76.7.02,1.21.32,1.71.8,1.65,1.58,3.09,4.7,5.23,6.72s5.35,3.56,7.33,5.97Z"/>
        <path class="cls-5" d="M353.85,296.36c-14.18.49-33.12.49-45.52-6.94-.32-.99-.64-1.52.17-2.33,2.02-2.04,22.87-3.14,27.02-3.46,1.09-.08,3.27-.79,4.06-.76.7.02,1.21.32,1.71.8,1.65,1.58,3.09,4.7,5.23,6.72s5.35,3.56,7.33,5.97Z"/>
      </g>
    </g>
    <g id="siège_taupe">
      <g id="siege-3" data-name="siege">
        <path class="cls-3" d="M344.59,241.59c1.11-6.57,1.92-14.28,5.62-19.65,2.75-3.99,7.25-6.8,11.72-8.33,1.36-.47,1.85-.59,4.26-.9,1.81.27,1.53.36,2.7.34l1.25.06c10.73.85,21.79,2.77,31.92,6.58,11.84,4.46,22.14,10.06,22.38,24.22-.27,12.37-1.35,31.22-11.99,39.5-11.4,8.87-44.07,12.46-58.6,12.95-3.45-1.65-7.04-4.34-9.54-7.33-1.4-2.22-3.09-4.26-4.73-6.17l-.3-1.67c1.75-9.13,2.67-18.39,2.77-27.77l.91-2.19c.24-1.51.18-2.06.34-3.41,0,0,0-.02,0-.03l1.3-6.2Z"/>
        <path class="cls-3" d="M353.85,296.36c-14.18.49-33.12.49-45.52-6.94-.32-.99-.64-1.52.17-2.33,2.02-2.04,22.87-3.14,27.02-3.46,1.09-.08,3.27-.79,4.06-.76.7.02,1.21.32,1.71.8,1.65,1.58,3.09,4.7,5.23,6.72s5.35,3.56,7.33,5.97Z"/>
        <path class="cls-5" d="M353.85,296.36c-14.18.49-33.12.49-45.52-6.94-.32-.99-.64-1.52.17-2.33,2.02-2.04,22.87-3.14,27.02-3.46,1.09-.08,3.27-.79,4.06-.76.7.02,1.21.32,1.71.8,1.65,1.58,3.09,4.7,5.23,6.72s5.35,3.56,7.33,5.97Z"/>
      </g>
    </g>
    <g id="siège_beige">
      <g id="siege-4" data-name="siege">
        <path class="cls-4" d="M344.59,241.59c1.11-6.57,1.92-14.28,5.62-19.65,2.75-3.99,7.25-6.8,11.72-8.33,1.36-.47,1.85-.59,4.26-.9,1.81.27,1.53.36,2.7.34l1.25.06c10.73.85,21.79,2.77,31.92,6.58,11.84,4.46,22.14,10.06,22.38,24.22-.27,12.37-1.35,31.22-11.99,39.5-11.4,8.87-44.07,12.46-58.6,12.95-3.45-1.65-7.04-4.34-9.54-7.33-1.4-2.22-3.09-4.26-4.73-6.17l-.3-1.67c1.75-9.13,2.67-18.39,2.77-27.77l.91-2.19c.24-1.51.18-2.06.34-3.41,0,0,0-.02,0-.03l1.3-6.2Z"/>
        <path class="cls-4" d="M353.85,296.36c-14.18.49-33.12.49-45.52-6.94-.32-.99-.64-1.52.17-2.33,2.02-2.04,22.87-3.14,27.02-3.46,1.09-.08,3.27-.79,4.06-.76.7.02,1.21.32,1.71.8,1.65,1.58,3.09,4.7,5.23,6.72s5.35,3.56,7.33,5.97Z"/>
        <path class="cls-5" d="M353.85,296.36c-14.18.49-33.12.49-45.52-6.94-.32-.99-.64-1.52.17-2.33,2.02-2.04,22.87-3.14,27.02-3.46,1.09-.08,3.27-.79,4.06-.76.7.02,1.21.32,1.71.8,1.65,1.58,3.09,4.7,5.23,6.72s5.35,3.56,7.33,5.97Z"/>
      </g>
    </g>
  </g>
</svg>