<?xml version="1.0" encoding="UTF-8"?>
<svg xmlns="http://www.w3.org/2000/svg" viewBox="0 0 595.28 595.28">
  <defs>
    <style>
      .cls-1 {
        fill: #fff;
      }

      .cls-1, .cls-2 {
        stroke: #1d1d1b;
        stroke-miterlimit: 10;
        stroke-width: .5px;
      }

      .cls-2 {
        fill: #aaaa18;
      }

      .cls-3 {
        fill: #5f4e49;
        opacity: 0;
      }
    </style>
  </defs>
  <g id="fond_transparent">
    <rect class="cls-3" width="596.32" height="596.32"/>
  </g>
  <g id="covering_-_copie_2">
    <g id="coverign_4_-_copie_2">
      <path id="blanc_gros" class="cls-1" d="M360.31,239.69c15.97,2.34,32.15,4.6,48.54,6.77,16.75,2.21,33.3,4.28,49.66,6.2-1.3-.62-3.02-1.34-5.13-1.89-1.06-.28-1.92-.46-2.46-.54-14.87-2.12-29.74-4.22-44.62-6.31-15.73-2.21-31.46-4.4-47.19-6.58.4.78.79,1.56,1.19,2.35Z"/>
      <path id="vert_clair" class="cls-2" d="M464.73,256.6c-41.6-5.56-83.21-11.12-124.81-16.68,1.48.94,3.07,2.06,4.72,3.38,2,1.61,3.68,3.22,5.08,4.71,39.74,4.26,79.49,8.51,119.23,12.77-.52-.63-1.11-1.3-1.77-1.97-.84-.85-1.67-1.59-2.45-2.22Z"/>
    </g>
  </g>
</svg>