<?xml version="1.0" encoding="UTF-8"?>
<svg xmlns="http://www.w3.org/2000/svg" viewBox="0 0 595.28 595.28">
  <defs>
    <style>
      .cls-1 {
        opacity: .6;
      }

      .cls-2 {
        fill: #2f2f30;
      }

      .cls-2, .cls-3, .cls-4, .cls-5 {
        stroke: #1d1d1b;
        stroke-miterlimit: 10;
      }

      .cls-2, .cls-3, .cls-5 {
        stroke-width: .5px;
      }

      .cls-3 {
        fill: #fff;
      }

      .cls-6 {
        isolation: isolate;
      }

      .cls-7 {
        fill: #5f4e49;
        opacity: 0;
      }

      .cls-4 {
        fill: #1e1e1e;
        stroke-width: .25px;
      }

      .cls-5 {
        fill: #1d1d1b;
        mix-blend-mode: multiply;
        opacity: .61;
      }
    </style>
  </defs>
  <g class="cls-6">
    <g id="fond_transparent">
      <rect class="cls-7" width="596.32" height="596.32"/>
    </g>
    <g id="Calque_42_-_copie">
      <path id="MANCHE" class="cls-4" d="M298.67,247.32c18.89,4.24,37.78,8.47,56.68,12.71.04-.81,0-2.18-.59-3.74-.52-1.38-1.26-2.35-1.77-2.92-18.04-4.19-36.08-8.39-54.12-12.58-1.52.23-2.7,1.4-2.9,2.81-.23,1.65.92,3.32,2.7,3.73Z"/>
      <g>
        <g id="noir">
          <path class="cls-2" d="M298.25,229.11c-5.36,3.96-7.12,8.08-7.56,9.2-3.67,9.39,3.16,19.55,12.16,19.77,2.55.06,4.77-.72,6.06-1.28-.09,1.2-.4,2.65-1.28,3.88-3.09,4.28-10.78,2.86-14.96.15-6.45-4.18-8.66-13.85-5.53-22.08.64-1.67,2.62-6.88,6.57-8.9,1.89-.97,3.57-.89,4.54-.73Z"/>
          <g>
            <path class="cls-2" d="M302.28,223.47c-8.78-.19-16.01,7.43-17.64,16.95-1.62,9.47,2.43,20.06,10.38,24.45,9.98,5.51,22.24-.4,24.84-14.71,2.62-14.43-6.53-26.45-17.58-26.69ZM295.99,259.33c-6.05-2.87-9.31-10.75-8.06-17.99,1.25-7.27,6.85-12.78,13.35-12.2,7.68.68,13.58,9.34,11.81,19.16-1.75,9.77-9.97,14.42-17.11,11.03Z"/>
            <path class="cls-2" d="M301.69,245.14c-.37,2.07-2.05,3.31-3.7,2.77s-2.55-2.48-2.22-4.41,1.87-3.21,3.49-2.84,2.79,2.4,2.43,4.48Z"/>
          </g>
        </g>
        <path id="ombre" class="cls-5" d="M297.49,229.68c-4.68,3.69-6.3,7.31-6.8,8.62-3.62,9.32,3.21,19.52,12.16,19.77,1.88.05,3.57-.37,4.84-.81-.74.69-1.84,1.59-3.26,2.25-4.53,2.1-8.12-.09-9.85-1.15-5.23-3.2-6.25-9.16-6.57-11.17-.33-2.1-.68-4.36.27-7.48.14-.47,2.16-6.79,6.73-9.2,1.01-.53,1.89-.75,2.48-.84Z"/>
        <g id="lumièr" class="cls-1">
          <path class="cls-3" d="M294.57,226.36c-.12-.24-3.28,1.66-5.81,5.21-2.44,3.42-3.52,7.28-3.36,7.42.15.14,1.29-2.84,4.03-6.63,2.83-3.91,5.24-5.78,5.13-6Z"/>
          <path class="cls-3" d="M319.21,249.34c.46.27-1.23,6.68-5.7,11.32-5.18,5.38-11.53,5.69-11.75,5.16-.21-.53,5.62-1.81,11.8-8.84,3.66-4.15,5.29-7.86,5.65-7.64Z"/>
          <path class="cls-3" d="M296.75,245.36c-.11.23.83,1.82,2.06,1.83,1.11.02,2.01-1.25,1.89-1.5-.09-.2-.76.33-1.92.27-1.26-.07-1.95-.78-2.03-.6Z"/>
        </g>
      </g>
    </g>
  </g>
</svg>