<?xml version="1.0" encoding="UTF-8"?>
<svg xmlns="http://www.w3.org/2000/svg" viewBox="0 0 595.28 595.28">
  <defs>
    <style>
      .cls-1 {
        fill: #fec91f;
      }

      .cls-1, .cls-2 {
        stroke: #000;
      }

      .cls-1, .cls-2, .cls-3 {
        stroke-miterlimit: 10;
        stroke-width: .25px;
      }

      .cls-2, .cls-4, .cls-3 {
        fill: #1e1e1e;
      }

      .cls-5 {
        fill: #5f4e49;
        opacity: 0;
      }

      .cls-3 {
        stroke: #1d1d1b;
      }

      .cls-6 {
        opacity: .5;
      }
    </style>
  </defs>
  <g id="fond_transparent">
    <rect class="cls-5" width="596.32" height="596.32"/>
  </g>
  <g id="volant_1_-_copie">
    <path id="MANCHE" class="cls-3" d="M298.67,247.32c18.89,4.24,37.78,8.47,56.68,12.71.04-.81,0-2.18-.59-3.74-.52-1.38-1.26-2.35-1.77-2.92-18.04-4.19-36.08-8.39-54.12-12.58-1.52.23-2.7,1.4-2.9,2.81-.23,1.65.92,3.32,2.7,3.73Z"/>
    <g>
      <g>
        <path class="cls-2" d="M313.96,256.58c-.43.11-.81.38-1.07.79-.03.04-.06.08-.08.12-.54,1.01-.15,2.41.88,3.12,1.05.73,2.35.48,2.91-.57s.12-2.47-.94-3.16c-.55-.36-1.16-.45-1.7-.3Z"/>
        <path class="cls-2" d="M313.99,241c-.57-.3-1.16-.5-1.74-.6.63,1.52,1.01,3.12,1.14,4.73.01.16.04.32.04.48.05,1.21-.04,2.42-.3,3.59.21,0,.41-.02.62-.05.05,0,.11-.02.16-.03.12-.02.23-.05.35-.08.03,0,.07-.01.1-.02.05-.01.1-.03.15-.05.05-.01.09-.04.13-.05.11-.04.21-.07.31-.12.03-.02.07-.03.1-.05.17-.08.33-.18.48-.28,0,0,.01,0,.02-.01h0c.26-.18.48-.4.68-.64.15-.17.28-.36.39-.56,1.11-2.1-.11-4.93-2.63-6.26Z"/>
        <path class="cls-2" d="M293.89,228.72c-1.15-.59-2.47-.29-2.98.67-.21.4-.25.86-.14,1.3.11.44.38.88.77,1.22,1.13-.65,2.39-1.12,3.71-1.38-.1-.7-.58-1.37-1.32-1.77-.02,0-.03-.02-.05-.03Z"/>
        <path class="cls-2" d="M287.11,233.45s-.01-.09-.03-.13c-.04-.1-.09-.19-.18-.24-.08-.05-.17-.05-.27-.03-.03,0-.05.01-.08.02-.09.03-.19.07-.28.14-.03.02-.06.05-.09.07-.09.07-.17.15-.26.25-.04.04-.07.09-.11.13-.1.14-.21.28-.3.45-.42.78-.47,1.6-.13,1.82.35.22.98-.24,1.4-1.03.09-.16.15-.33.2-.49.03-.09.05-.17.07-.25.02-.09.04-.17.05-.26,0-.07.02-.14.02-.21,0-.07,0-.13-.02-.19,0-.02,0-.04,0-.05Z"/>
        <path class="cls-2" d="M306.78,257.27c.13.18.28.34.47.47.86.61,1.97.37,2.45-.55.31-.59.28-1.32,0-1.91-.87.82-1.85,1.49-2.91,1.99Z"/>
        <path class="cls-2" d="M299.12,258.28c-.52-.09-1.05-.2-1.57-.35-.21.15-.4.35-.54.63-.42.8-.31,1.81.26,2.27.03.03.07.04.1.06.46.29,1.04.15,1.47-.33.09-.11.18-.22.25-.36.34-.63.33-1.4.03-1.91Z"/>
        <path class="cls-2" d="M291.76,254.89c-.35,1.05-.1,2.25.65,2.87.86.7,2.04.36,2.67-.75-1.08-.52-2.13-1.17-3.13-1.95-.07-.05-.13-.11-.2-.17Z"/>
        <path class="cls-2" d="M284.95,238.36c-.29.54.09,1.42.88,2.11.13-.84.34-1.66.63-2.46-.69-.19-1.28-.08-1.51.35Z"/>
        <path class="cls-2" d="M283.53,243.61s-.04-.02-.05-.03c-.54-.36-1.2-.19-1.5.39-.32.6-.14,1.41.4,1.83.21.16.45.24.68.24.36,0,.7-.2.9-.57.32-.61.13-1.44-.42-1.84Z"/>
        <path class="cls-2" d="M301.4,261.71c-.7,1.33-.39,3.23.68,4.9,2.84.3,5.65.02,8.27-.86-.37-1.55-1.41-3.15-2.91-4.26-2.39-1.77-5.06-1.65-6.04.21Z"/>
        <path class="cls-2" d="M285.85,231.39c.31-.58.2-1.31-.21-1.91-.77.77-1.48,1.62-2.11,2.56.93.36,1.91.11,2.32-.66Z"/>
        <path class="cls-2" d="M281.91,235.04c-.76,1.79-1.22,3.68-1.4,5.61.3-.36.59-.78.84-1.26.89-1.67,1.08-3.44.56-4.35Z"/>
        <path class="cls-2" d="M318.55,250.25c-.71,1.35.09,3.29,1.85,4.36.27.17.55.29.84.4.65-1.85,1.01-3.78,1.08-5.74-1.57-.57-3.15-.19-3.76.98Z"/>
        <path class="cls-2" d="M310.52,232.09c-.76,1.45,0,3.31,1.76,4.19s3.98.42,4.78-1.11c.16-.3.25-.61.28-.93-1-1.32-2.12-2.55-3.36-3.66-1.45-.21-2.86.37-3.47,1.52Z"/>
        <path class="cls-2" d="M304.6,232.04c.26-1.23-.4-2.54-1.68-3.14-1.47-.69-3.19-.18-3.89,1.13-.05.1-.1.2-.14.31,1.75.15,3.57.64,5.35,1.52.12.06.24.12.35.19Z"/>
        <path class="cls-2" d="M296.34,226.68c.29-.55.06-1.22-.51-1.49-.57-.27-1.25-.04-1.54.5-.29.54-.07,1.21.49,1.48.57.28,1.27.06,1.56-.49Z"/>
        <path class="cls-2" d="M292.11,259.54c-1.43-1.2-2.98-1.35-3.5-.37-.16.3-.2.68-.15,1.09.17.15.33.31.5.46,1.46,1.27,3.01,2.35,4.64,3.23.08-.08.16-.18.22-.29.54-1.03-.24-2.89-1.72-4.12Z"/>
        <path class="cls-2" d="M285.23,253.78c-.46-.38-1.12-.14-1.48.55,0,.02-.01.03-.02.05.38.64.79,1.27,1.23,1.89.17-.12.33-.3.45-.53.37-.7.29-1.57-.17-1.96Z"/>
        <path class="cls-2" d="M285.63,249.43c-.61-.48-1.43-.24-1.83.53-.15.29-.23.61-.23.92,0,.53.19,1.05.57,1.36.34.28.75.33,1.12.18.29-.11.56-.35.74-.69.42-.79.25-1.82-.37-2.31Z"/>
      </g>
      <g id="jaune">
        <path class="cls-1" d="M289.35,233.56c-1.23,1.17-2,2.54-2.21,2.92-.26.5-.49,1.01-.68,1.53-.29.8-.5,1.62-.63,2.46-.75,4.94,1.34,10.66,5.93,14.42.07.05.13.11.2.17.99.79,2.04,1.44,3.13,1.95.8.38,1.63.69,2.46.92.52.15,1.04.26,1.57.35,2.67.44,5.34.11,7.67-1,1.06-.51,2.04-1.17,2.91-1.99.91-.85,1.69-1.87,2.3-3.04.25-.47.46-.96.65-1.45.19-.52.35-1.05.47-1.59.27-1.17.36-2.38.3-3.59,0-.16-.03-.32-.04-.48-.03.09-.09.19-.1.28-1.36,9.33-7.55,10.3-10.86,9.9-17.01-2.02-15.2-15.4-15.2-17.01,0-.12.38-2.62,2.13-4.74"/>
        <path class="cls-1" d="M322.32,249.27c.2-5.32-1.66-10.66-4.97-15.03-.03.32-.12.64-.28.93-.81,1.53-2.97,2.01-4.78,1.11s-2.53-2.74-1.76-4.19c.61-1.15,2.01-1.72,3.47-1.52-2-1.79-4.27-3.26-6.76-4.34-8.18-3.53-16.56-1.77-21.59,3.25.41.6.52,1.32.21,1.91-.41.77-1.39,1.01-2.32.66-.33.5-.65,1.01-.93,1.56-.25.47-.48.95-.68,1.43.52.91.33,2.68-.56,4.35-.25.48-.54.9-.84,1.26-.43,4.5.66,9.39,3.22,13.74,0-.02.01-.04.02-.05.36-.68,1.02-.93,1.48-.55.46.39.54,1.27.17,1.96-.12.23-.28.4-.45.53,1,1.4,2.17,2.74,3.51,3.98-.05-.41,0-.79.15-1.09.52-.98,2.07-.82,3.5.37,1.47,1.23,2.26,3.09,1.72,4.12-.06.11-.13.2-.22.29,2.7,1.46,5.58,2.36,8.47,2.66-1.07-1.67-1.38-3.57-.68-4.9.98-1.86,3.65-1.98,6.04-.21,1.5,1.11,2.55,2.71,2.91,4.26,4.13-1.37,7.65-4.17,9.83-8.32.41-.78.76-1.59,1.05-2.42-.28-.11-.56-.23-.84-.4-1.75-1.07-2.56-3.01-1.85-4.36.62-1.17,2.19-1.55,3.76-.98ZM294.29,225.7c.29-.54.98-.77,1.54-.5.57.27.8.94.51,1.49-.29.55-1,.77-1.56.49-.56-.28-.77-.94-.49-1.48ZM285.52,234.12c.09-.17.19-.32.3-.45.04-.05.07-.09.11-.13.02-.03.05-.06.07-.08.06-.06.12-.12.19-.17.03-.02.06-.05.09-.07.1-.07.19-.11.28-.14.03,0,.06-.01.08-.02.1-.02.19-.01.27.03.08.05.14.14.18.24.01.04.02.09.03.13,0,.02,0,.03,0,.05,0,.06.02.12.01.19,0,.07,0,.13-.02.21-.01.08-.03.17-.05.26-.02.08-.04.17-.07.25,0,.03-.01.05-.02.07-.05.14-.11.28-.18.41-.42.79-1.05,1.25-1.4,1.03-.35-.22-.29-1.04.13-1.82ZM283.05,246.03c-.23,0-.47-.07-.68-.24-.54-.42-.71-1.23-.4-1.83.31-.58.97-.74,1.5-.39.02.01.04.02.05.03.55.41.74,1.23.42,1.84-.2.37-.54.57-.9.57ZM286,251.74c-.18.35-.45.58-.74.69-.37.15-.78.1-1.12-.18-.38-.31-.57-.83-.57-1.36,0-.32.08-.64.23-.92.41-.77,1.23-1.01,1.83-.53.62.48.78,1.52.37,2.31ZM316.6,260.05c-.55,1.05-1.86,1.3-2.91.57-1.03-.71-1.41-2.11-.88-3.12.02-.05.06-.08.08-.12.26-.41.63-.68,1.07-.79.53-.14,1.14-.06,1.7.3,1.06.69,1.49,2.11.94,3.16ZM316.62,247.26c-.11.21-.25.39-.39.56-.2.24-.42.46-.68.64-.28.19-.59.34-.92.46-.05.02-.09.04-.13.05,0,0,0,0,0,0-.08.03-.17.05-.25.07-.11.03-.23.06-.34.08,0,0,0,0,0,0-.25.04-.51.07-.77.07-.12.54-.28,1.07-.47,1.59-.18.5-.4.98-.65,1.45-.62,1.17-1.4,2.18-2.3,3.04.29.6.32,1.32,0,1.91-.49.92-1.59,1.17-2.45.55-.18-.13-.34-.29-.47-.47-2.33,1.11-5,1.44-7.67,1,.3.52.3,1.28-.03,1.91-.07.14-.16.26-.25.36-.42.48-1,.62-1.47.33-.03-.02-.07-.04-.1-.06-.57-.46-.68-1.47-.26-2.27.14-.27.34-.48.54-.63-.83-.23-1.65-.54-2.46-.92-.63,1.11-1.82,1.45-2.67.75-.75-.61-1-1.82-.65-2.87-4.6-3.75-6.69-9.47-5.93-14.42-.78-.69-1.16-1.57-.88-2.11.23-.43.82-.54,1.51-.35.19-.52.41-1.03.68-1.53.21-.39.43-.75.67-1.1.77-1.14,1.72-2.09,2.79-2.86.31-.22.62-.43.94-.62-.39-.34-.66-.77-.77-1.22-.11-.44-.08-.9.14-1.3.51-.95,1.83-1.26,2.98-.67.02,0,.03.02.05.03.74.4,1.22,1.08,1.32,1.77,1.17-.23,2.39-.29,3.64-.19.04-.1.08-.21.14-.31.7-1.31,2.42-1.82,3.89-1.13,1.27.6,1.94,1.92,1.68,3.14,3.49,1.83,6.18,4.85,7.64,8.36.58.1,1.17.3,1.74.6,2.52,1.33,3.73,4.16,2.63,6.26Z"/>
      </g>
      <path id="ombre" class="cls-6" d="M289.35,233.56c-1.23,1.17-2,2.54-2.21,2.92-.26.5-.49,1.01-.68,1.53-.29.8-.5,1.62-.63,2.46-.75,4.94,1.34,10.66,5.93,14.42.07.05.13.11.2.17.99.79,2.04,1.44,3.13,1.95.8.38,1.63.69,2.46.92.52.15,1.04.26,1.57.35,2.67.44,5.34.11,7.67-1,1.06-.51,2.04-1.17,2.91-1.99.91-.85,1.69-1.87,2.3-3.04.25-.47.46-.96.65-1.45.19-.52.35-1.05.47-1.59.27-1.17.36-2.38.3-3.59,0-.16-.03-.32-.04-.48-.03.09-.09.19-.1.28-1.36,9.33-7.55,10.3-10.86,9.9-17.01-2.02-15.2-15.4-15.2-17.01,0-.12.38-2.62,2.13-4.74"/>
      <g>
        <path class="cls-4" d="M301.84,242c.57,1.17.63,2.52.03,3.65-.22.42-.52.77-.87,1.05l11.65,4.09c.19-.52.35-1.05.47-1.59.27-1.17.36-2.38.3-3.59l-11.59-3.6Z"/>
        <path class="cls-4" d="M294.37,242.35c.06-.42.18-.82.38-1.2.57-1.07,1.6-1.68,2.76-1.78l-6.91-6.85c-1.07.77-2.02,1.72-2.79,2.86l6.56,6.97Z"/>
        <path class="cls-4" d="M301,246.7c.35-.28.65-.62.87-1.05.59-1.12.53-2.48-.03-3.65-.4-.82-1.03-1.54-1.87-2.04-.8-.47-1.66-.66-2.46-.59-1.15.09-2.19.71-2.76,1.78-.2.38-.32.78-.38,1.2-.22,1.57.54,3.32,2.04,4.34,1.53,1.03,3.36.99,4.59.01Z"/>
      </g>
    </g>
  </g>
</svg>