<?xml version="1.0" encoding="UTF-8"?>
<svg xmlns="http://www.w3.org/2000/svg" viewBox="0 0 595.28 595.28">
  <defs>
    <style>
      .cls-1 {
        fill: #ca79b0;
      }

      .cls-1, .cls-2, .cls-3, .cls-4 {
        stroke: #000;
        stroke-miterlimit: 10;
        stroke-width: .5px;
      }

      .cls-2 {
        fill: #828282;
      }

      .cls-3 {
        fill: #0e0e0e;
      }

      .cls-5 {
        fill: #5f4e49;
        opacity: 0;
      }

      .cls-4 {
        fill: #202020;
      }

      .cls-6 {
        opacity: .5;
      }
    </style>
  </defs>
  <g id="fond_transparent">
    <rect class="cls-5" width="596.32" height="596.32"/>
  </g>
  <g id="roue_arrière">
    <g id="roue_3">
      <g id="rose">
        <g id="roue_3-2" data-name="roue_3">
          <g>
            <path class="cls-3" d="M329.5,318.11s-27.15-3.21-23.89-35.46c3.26-32.25,35.5-42.51,35.5-42.51,0,0,24.02-6.3,34.66,11.87,3.71,6.34-9.97-5.51-31.41-1.69-6.43,1.15-21.74,21.25-23.87,28.8-4.89,17.32,9,38.98,9,38.98Z"/>
            <path class="cls-4" d="M370.37,245.87s-26.02-11.84-48.22,22.17c0,0-11.02,18.06-6.09,32.79,0,0,4.43,13.3,12.56,17.15,0,0,22.96,6.29,43.15-21.15,20.18-27.43,1.67-49.95-1.4-50.96ZM371.12,285.86c-1.3,2.59-2.87,5.03-4.65,7.28-4.13,5.22-9.35,9.39-14.81,11.96-1.05.49-2.11.93-3.17,1.3-4.35,1.53-8.74,2.01-12.74,1.17-6.75-1.4-11-6.24-12.25-12.72-.86-4.43-.31-9.64,1.81-15.06.41-1.05.88-2.11,1.41-3.18,6.39-12.78,19.41-21.84,30.79-22.11.96-.02,1.91.02,2.85.13.58.07,1.17.15,1.74.27,2.77.58,5.11,1.73,7.01,3.34,6.5,5.51,7.65,16.35,2.02,27.61Z"/>
          </g>
          <g>
            <path class="cls-1" d="M338.95,279.84s3.13,1.2,5.42,1.87"/>
            <line class="cls-1" x1="361.41" y1="275" x2="366.83" y2="276.87"/>
            <path class="cls-1" d="M332.12,268.37c-10.82,12.94-12.08,29.19-2.8,36.3,9.28,7.11,25.57,2.37,36.4-10.57,10.82-12.94,12.08-29.19,2.8-36.3-9.28-7.11-25.57-2.37-36.4,10.57ZM341.26,272.43s-2.77-4.16-2.78-6.78c0-2.62,4.61-3.95,4.61-3.95,8.42-2.89,13.79.97,13.79.97-2.94,9.39-8.45,13.98-8.45,13.98-4.04-.65-7.16-4.23-7.16-4.23ZM326.13,288.32c2.66-8.71,9.99-14.64,9.99-14.64,7.33,2.51,8.25,8.03,8.25,8.03-3.29,4.32-8.86,7.85-8.86,7.85,0,0-5.92,3.2-8.51,3.38-2.59.17-.88-4.61-.88-4.61ZM345.98,303.88c-1.58,2.7-5.1,1.08-5.1,1.08-6.71-2.48-7.53-9.95-7.53-9.95,7.42-7.77,13.44-8.93,13.44-8.93,1.99,3.29,1.66,9.01,1.66,9.01,0,0-.88,6.09-2.47,8.79ZM369.33,283.13c1.61,1.52-2.32,5.32-2.32,5.32-6.89,7.2-14.78,8.48-14.78,8.48-2.72-7.4.14-13.68.14-13.68,4.55-2.27,9.95-2.24,9.95-2.24,0,0,5.4.6,7.01,2.12ZM366.83,276.87c-9.08,3.31-13.38.66-13.38.66.76-4.67,4.36-10.37,4.36-10.37,0,0,4.15-5.73,6.71-7.52,2.56-1.79,3.71,2.14,3.71,2.14,2.55,6.85-1.39,15.1-1.39,15.1Z"/>
            <g>
              <path class="cls-1" d="M343.44,274.39s5.31-4.73,8.01-13.58c0,0,3.29.36,5.42,1.87,0,0-2.5,8.69-8.45,13.98,0,0-2.79-.48-4.98-2.27Z"/>
              <path class="cls-1" d="M335.36,274.34l.71-.62s6.84,1.79,8.3,7.99c0,0-2.99,4.12-8.86,7.85,0,0-4.38,2.35-7.17,3.15s-3.07-.55-2.61-2.92c0,0,3.64-1.61,4.36-2.1,0,0,5.72-3.68,8.86-7.85,0,0-.57-3.04-3.59-5.5Z"/>
              <path class="cls-1" d="M342.63,287.74s2.38-1.28,4.15-1.66c0,0,2.01,2.91,1.67,8.81,0,0-.68,5.44-2.19,8.46-1.51,3.01-3.99,2.15-6.52,1.12,0,0-1.06-.58-1.51-.92,0,0,1.47-.12,2.33-1.53s2.09-5.69,2.47-8.79c0,0,.24-2.39-.4-5.48Z"/>
              <path class="cls-1" d="M351.34,293.64s6.72-2.51,11.66-8.67c0,0,2.12-2.63.9-3.71,0,0,4.32.65,5.53,1.99s-2.01,4.75-2.01,4.75c0,0-4.26,4.86-9.75,7.09,0,0-3.39,1.57-5.46,1.83,0,0-.81-2.31-.88-3.29Z"/>
              <path class="cls-1" d="M353.63,276.66s3.95-.11,7.79-1.65c0,0,3.6-7.35,1.7-14.17,0,0,1.52-1.62,2.5-1.65s1.8.43,2.54,2.4c0,0,1.79,4.08.41,9.94,0,0-1.01,4.17-1.74,5.35,0,0-8.24,3.17-13.38.66l.17-.88Z"/>
            </g>
          </g>
          <g>
            <path class="cls-6" d="M343.44,274.39s5.31-4.73,8.01-13.58c0,0,3.29.36,5.42,1.87,0,0-2.5,8.69-8.45,13.98,0,0-2.79-.48-4.98-2.27Z"/>
            <path class="cls-6" d="M335.36,274.34l.71-.62s6.84,1.79,8.3,7.99c0,0-2.99,4.12-8.86,7.85,0,0-4.38,2.35-7.17,3.15-2.79.8-3.07-.55-2.61-2.92,0,0,3.64-1.61,4.36-2.1,0,0,5.72-3.68,8.86-7.85,0,0-.57-3.04-3.59-5.5Z"/>
            <path class="cls-6" d="M342.64,287.74s2.38-1.28,4.15-1.66c0,0,2.01,2.91,1.67,8.81,0,0-.68,5.44-2.19,8.46-1.51,3.01-3.99,2.15-6.52,1.12,0,0-1.06-.58-1.51-.92,0,0,1.47-.12,2.33-1.53s2.09-5.69,2.47-8.79c0,0,.24-2.39-.4-5.48Z"/>
            <path class="cls-6" d="M351.34,293.64s6.72-2.51,11.66-8.67c0,0,2.12-2.63.9-3.71,0,0,4.32.65,5.53,1.99s-2.01,4.75-2.01,4.75c0,0-4.26,4.86-9.75,7.09,0,0-3.39,1.57-5.46,1.83,0,0-.81-2.31-.88-3.29Z"/>
            <path class="cls-6" d="M353.63,276.66s3.95-.11,7.79-1.65c0,0,3.6-7.35,1.7-14.17,0,0,1.52-1.62,2.5-1.65s1.8.43,2.54,2.4c0,0,1.79,4.08.41,9.94,0,0-1.01,4.17-1.74,5.35,0,0-8.24,3.17-13.38.66l.17-.88Z"/>
          </g>
          <g>
            <line class="cls-2" x1="348.47" y1="281.24" x2="477.05" y2="338.23"/>
            <rect class="cls-2" x="405.76" y="239.41" width="14" height="140.64" transform="translate(-37.65 561.59) rotate(-66.1)"/>
          </g>
        </g>
        <g id="roue_3-3" data-name="roue_3">
          <g>
            <path class="cls-3" d="M82.16,347.34c1.6-7.11,5.22-14.29,10.73-20.6,1.07-1.23,2.21-2.42,3.42-3.58,14.56-13.85,34.4-17.29,47.33-9.14,1.09.69,2.13,1.47,3.12,2.32,5.46-9.49,8.66-16.34,7.56-17.8-4.49-5.91-31.42-25.52-63.89-7.05-32.47,18.47-36.88,44.25-36.88,44.25-14.31,58.46,38.67,63.57,38.67,63.57,0,0,4.61-6.57,11.34-16.38-5.76-1.03-10.97-3.63-14.98-7.85-6.76-7.11-8.74-17.35-6.41-27.74Z"/>
            <path class="cls-4" d="M166.1,323.4s-3.22-22.3-18.25-29.84c0,0-30.14-10.84-62.51,20.35,0,0-22.09,23.12-19.55,51.72,0,0,3.01,34.75,30.41,33.81,0,0,36.68,1.26,57.08-29.73,0,0,16.34-21.46,12.82-46.3ZM140.61,370.19c-2.95,2.81-6.13,5.18-9.42,7.13-7.65,4.52-15.92,6.68-23.54,6.33-7.46-.34-14.29-3.08-19.29-8.33-6.76-7.11-8.74-17.35-6.41-27.74,1.6-7.11,5.22-14.29,10.73-20.6,1.07-1.23,2.21-2.42,3.42-3.58,14.56-13.85,34.4-17.29,47.33-9.14,1.78,1.12,3.43,2.46,4.91,4.02,2.78,2.92,4.74,6.37,5.94,10.13,4.11,12.91-.86,29.59-13.68,41.79Z"/>
          </g>
          <g>
            <path class="cls-1" d="M104.46,341.87s4.28,2.66,7.42,4.3"/>
            <line class="cls-1" x1="136.73" y1="341.31" x2="144.15" y2="345.61"/>
            <path class="cls-1" d="M96.18,323.14c-16.81,15.76-20.5,39.13-8.25,52.19,12.25,13.06,35.81,10.88,52.61-4.89,16.81-15.76,20.5-39.13,8.25-52.19-12.25-13.06-35.81-10.88-52.61,4.89ZM108.59,331.71s-3.42-6.88-3.12-10.71c.3-3.83,6.97-4.43,6.97-4.43,12.22-1.78,19.34,5.42,19.34,5.42-5.27,12.87-13.58,17.97-13.58,17.97-5.63-2.12-9.61-8.25-9.61-8.25ZM85.36,350.54c4.79-11.95,15.83-18.48,15.83-18.48,10.05,5.78,10.69,14.12,10.69,14.12-5.15,5.35-13.43,8.89-13.43,8.89,0,0-8.73,2.96-12.4,2.47-3.67-.49-.69-6.99-.69-6.99ZM111.53,379c-2.55,3.49-7.33.1-7.33.1-9.17-5.57-9.45-16.72-9.45-16.72,11.39-9.2,20.02-9.14,20.02-9.14,2.42,5.38,1.28,13.63,1.28,13.63,0,0-1.97,8.64-4.52,12.13ZM146.93,355.47c2.09,2.69-3.91,7.09-3.91,7.09-10.58,8.53-21.86,8.1-21.86,8.1-2.96-11.59,1.82-19.94,1.82-19.94,6.7-2,14.31-.39,14.31-.39,0,0,7.55,2.44,9.64,5.13ZM144.15,345.61c-13.2,2.2-18.95-2.9-18.95-2.9,1.63-6.6,7.38-13.89,7.38-13.89,0,0,6.54-7.17,10.36-9.04,3.82-1.87,4.98,4.19,4.98,4.19,2.79,10.74-3.76,21.64-3.76,21.64Z"/>
            <g>
              <path class="cls-1" d="M111.44,335.21s8.05-5.36,12.92-17.51c0,0,4.6,1.48,7.42,4.3,0,0-4.56,11.97-13.58,17.97,0,0-3.89-1.52-6.76-4.75Z"/>
              <path class="cls-1" d="M100.04,332.8l1.08-.71s9.45,4.59,10.76,14.07c0,0-4.71,5.15-13.43,8.89,0,0-6.46,2.16-10.49,2.52-4.03.37-4.27-1.69-3.34-5.02,0,0,5.32-1.3,6.41-1.8,0,0,8.51-3.72,13.43-8.89,0,0-.45-4.6-4.42-9.07Z"/>
              <path class="cls-1" d="M108.72,354.46s3.5-1.18,6.06-1.22c0,0,2.49,4.83,1.31,13.34,0,0-1.61,7.75-4.09,11.71-2.49,3.96-5.89,1.99-9.33-.25,0,0-1.43-1.15-2.02-1.79,0,0,2.09.24,3.47-1.56s3.62-7.71,4.52-12.13c0,0,.63-3.43.09-8.11Z"/>
              <path class="cls-1" d="M120.31,365.61s9.78-1.72,17.49-9.28c0,0,3.31-3.23,1.72-5.15,0,0,6.02,2.2,7.57,4.51s-3.4,6.35-3.4,6.35c0,0-6.59,5.86-14.6,7.54,0,0-4.98,1.31-7.92,1.09,0,0-.88-3.61-.86-5.06Z"/>
              <path class="cls-1" d="M125.55,341.47s5.59.99,11.18-.16c0,0,5.96-9.7,4.08-20.19,0,0,2.34-1.92,3.73-1.69s2.49,1.15,3.31,4.23c0,0,2.05,6.48-.6,14.64,0,0-1.92,5.79-3.08,7.31,0,0-12,2.24-18.95-2.9l.35-1.23Z"/>
            </g>
          </g>
          <g>
            <path class="cls-6" d="M111.44,335.2s8.05-5.36,12.92-17.51c0,0,4.6,1.48,7.42,4.3,0,0-4.56,11.97-13.58,17.97,0,0-3.89-1.52-6.76-4.75Z"/>
            <path class="cls-6" d="M100.04,332.8l1.08-.71s9.45,4.59,10.76,14.07c0,0-4.71,5.15-13.43,8.89,0,0-6.46,2.16-10.49,2.52-4.03.37-4.27-1.69-3.34-5.02,0,0,5.32-1.3,6.41-1.8,0,0,8.51-3.72,13.43-8.89,0,0-.45-4.6-4.42-9.07Z"/>
            <path class="cls-6" d="M108.72,354.46s3.5-1.18,6.06-1.22c0,0,2.49,4.83,1.31,13.34,0,0-1.61,7.75-4.09,11.71-2.49,3.96-5.89,1.99-9.33-.25,0,0-1.43-1.15-2.02-1.79,0,0,2.09.24,3.47-1.56s3.62-7.71,4.52-12.13c0,0,.63-3.43.09-8.11Z"/>
            <path class="cls-6" d="M120.31,365.61s9.78-1.72,17.49-9.28c0,0,3.31-3.23,1.72-5.15,0,0,6.02,2.2,7.57,4.51s-3.4,6.35-3.4,6.35c0,0-6.59,5.86-14.6,7.54,0,0-4.98,1.31-7.92,1.09,0,0-.88-3.61-.86-5.06Z"/>
            <path class="cls-6" d="M125.55,341.47s5.59.99,11.18-.16c0,0,5.96-9.7,4.08-20.19,0,0,2.34-1.92,3.73-1.69s2.49,1.15,3.31,4.23c0,0,2.05,6.48-.6,14.64,0,0-1.92,5.79-3.08,7.31,0,0-12,2.24-18.95-2.9l.35-1.23Z"/>
          </g>
          <g>
            <line class="cls-2" x1="221.77" y1="411.22" x2="118.62" y2="346.8"/>
            <rect class="cls-2" x="162.19" y="318.2" width="16" height="121.61" transform="translate(-241.43 322.59) rotate(-58.01)"/>
          </g>
        </g>
      </g>
    </g>
  </g>
</svg>