<?xml version="1.0" encoding="UTF-8"?>
<svg xmlns="http://www.w3.org/2000/svg" viewBox="0 0 595.28 595.28">
  <defs>
    <style>
      .cls-1 {
        fill: #406641;
      }

      .cls-2 {
        fill: #5f4e49;
        opacity: 0;
      }
    </style>
  </defs>
  <g id="fond_transparent">
    <rect class="cls-2" width="596.32" height="596.32"/>
  </g>
  <g id="carrosserie">
    <path id="vert_fonce" class="cls-1" d="M468.22,259.93c-6.45-7.21-14.35-9.2-17.08-9.76-30.74-4.31-61.48-8.62-92.22-12.94-1.09-2.95-4.14-9.94-11.51-15.38-7.7-5.68-15.5-6.25-18.29-6.42-3.26-.2-12.63-.76-14.35,3.58-1.13,2.84,1.57,6.45,2.72,7.84-.42.2-1.09.47-1.94.5-1.7.07-3-.83-3.3-1.02-3.55-2.2-16.66,4.24-18.69,5.25-7.95,3.95-11.92,5.93-15.83,9.01-6.14,4.83-9.67,9.64-10.48,10.68-5.44,6.99-22.7,17.31-70.96,32.68-4.8-10.48-10.67-17.88-14.9-22.48-9.1-9.89-17.47-14.28-30.9-21.32-5.06-2.65-16.87-8.5-21.57-4.8-.4.32-1.33,1.16-2.28,2.32-3.04,3.68-3.83,7.51-3.99,8.13-2.01,7.85-38.17,34.13-52.56,51.25-1.51,1.79-25.79,31.48-16.41,59.28,8.5,25.21,40.12,35.42,48.62,38.17,14.74,4.76,31.99,5.52,31.99,5.52,5.16.23,9.51.1,12.65-.07,39.39-1.32,71.44-6.03,94.1-10.32,22.19-4.2,44.99-10.62,90.59-23.46,37.67-10.61,57.75-16.31,84.92-26.46,24.92-9.31,45.12-18.36,59.16-25.02.16-11.16.33-22.32.49-33.48.02-2.45-.16-12.6-7.95-21.29ZM347.88,234.8c-.65.64-2.28-.72-6.39-2.4-4.46-1.82-5.64-1.48-13.21-4.17-1.16-.41-3.78-1.38-6.05-3.78-.98-1.04-1.7-1.8-1.52-2.54.48-1.96,7.04-2.59,12.33-1.41,1.58.35,6.89,1.73,11.08,6.45,2.48,2.79,4.7,6.91,3.76,7.84Z"/>
  </g>
</svg>