<?xml version="1.0" encoding="UTF-8"?>
<svg xmlns="http://www.w3.org/2000/svg" viewBox="0 0 595.28 595.28">
  <defs>
    <style>
      .cls-1 {
        fill: #8d61a5;
      }

      .cls-1, .cls-2 {
        stroke: #1d1d1b;
        stroke-miterlimit: 10;
        stroke-width: .5px;
      }

      .cls-2 {
        fill: #fff;
      }

      .cls-3 {
        fill: #5f4e49;
        opacity: 0;
      }
    </style>
  </defs>
  <g id="fond_transparent">
    <rect class="cls-3" width="596.32" height="596.32"/>
  </g>
  <g id="covering">
    <g id="coverign_4">
      <path id="blanc_gros" class="cls-2" d="M222.98,256.43c-20.33,10.59-41.02,21.15-62.05,31.69-24.46,12.25-48.67,24.11-72.62,35.57,2.89,1.17,6.2,2.77,9.7,4.94,2.66,1.65,4.95,3.35,6.89,4.96,26.59-13.75,53.74-27.46,81.47-41.11,20.78-10.23,41.39-20.18,61.82-29.86-8.4-2.07-16.8-4.13-25.21-6.2Z"/>
      <path id="violet" class="cls-1" d="M275.93,252.5c-55.99,28.01-111.98,56.02-167.97,84.03.97,1.02,1.95,2.07,2.93,3.14,1.26,1.38,2.48,2.75,3.65,4.1,56.21-28.64,112.43-57.28,168.64-85.91-.87-1.02-2.1-2.24-3.76-3.4-1.26-.88-2.47-1.51-3.49-1.96Z"/>
    </g>
  </g>
</svg>