<?xml version="1.0" encoding="UTF-8"?>
<svg xmlns="http://www.w3.org/2000/svg" viewBox="0 0 595.28 595.28">
  <defs>
    <style>
      .cls-1, .cls-2 {
        fill: #1d1d1b;
      }

      .cls-3, .cls-4, .cls-5 {
        fill: #fff;
      }

      .cls-6 {
        opacity: .4;
      }

      .cls-7 {
        fill: #c61617;
      }

      .cls-7, .cls-4, .cls-5, .cls-8, .cls-9, .cls-10, .cls-11, .cls-2 {
        stroke: #1d1d1b;
        stroke-miterlimit: 10;
      }

      .cls-7, .cls-4, .cls-8, .cls-11, .cls-2 {
        stroke-width: .5px;
      }

      .cls-12 {
        isolation: isolate;
      }

      .cls-5, .cls-9, .cls-10 {
        stroke-width: .25px;
      }

      .cls-8 {
        fill: #3c3c3b;
      }

      .cls-13 {
        fill: #5f4e49;
        opacity: 0;
      }

      .cls-9 {
        fill: #2f2f30;
      }

      .cls-10, .cls-11 {
        fill: #f2eabd;
      }

      .cls-2 {
        mix-blend-mode: multiply;
      }
    </style>
  </defs>
  <g class="cls-12">
    <g id="fond_transparent">
      <rect class="cls-13" width="596.32" height="596.32"/>
    </g>
    <g id="covering">
      <g id="covering_3">
        <g id="Calque_46">
          <g id="trait_blanc">
            <path class="cls-5" d="M297.72,278.21c-60.93,21.99-121.87,43.98-182.8,65.97l6.68,9.76c61.4-22.12,122.8-44.25,184.19-66.37-1.23-1.15-2.52-2.46-3.82-3.93-1.66-1.88-3.07-3.72-4.25-5.42Z"/>
            <path class="cls-5" d="M309.83,290.26c2.53,11.3,4.71,24.81,5.55,40.12.77,13.96.26,26.51-.78,37.26,32.81-9.24,65.62-18.48,98.44-27.72,1.26-8.63,2.21-18.39,2.48-29.11.27-10.75-.18-20.58-1-29.27-10.7,5.21-28.63,12.3-51.91,14.18-22.89,1.85-41.44-2.12-52.78-5.46Z"/>
            <path class="cls-3" d="M188.47,334.92c3.98-1.48,7.96-2.97,11.94-4.45,9.52-3.55,19.04-7.1,28.55-10.65l34.53-12.87c9.98-3.72,19.97-7.44,29.95-11.17,4.81-1.79,9.78-3.38,14.51-5.41.07-.03.14-.05.21-.08.75-.28.42-1.49-.33-1.21-3.98,1.48-7.96,2.97-11.94,4.45-9.52,3.55-19.04,7.1-28.55,10.65l-34.53,12.87c-9.98,3.72-19.97,7.44-29.95,11.17-4.81,1.79-9.78,3.38-14.51,5.41-.07.03-.14.05-.21.08-.75.28-.42,1.49.33,1.21h0Z"/>
          </g>
          <g>
            <path class="cls-9" d="M387.5,324.5c.49,9.38-6.37,19.19-16.21,22.24-10.98,3.4-21.43-2.76-22.12-14.19-.7-11.49,8.83-21.97,20.03-23.21,10.03-1.11,17.82,5.74,18.3,15.15Z"/>
            <path class="cls-11" d="M385.79,307.36c-1.31,1.79-2.63,3.61-3.98,5.46-1.35-1.06-3.74-2.59-7.17-3.24-2.46-.47-4.55-.32-5.56-.2-2.7.3-4.79,1.09-5.79,1.51-3.85,1.62-6.52,4.05-8.01,5.65-1.82-1.78-3.68-3.59-5.56-5.43,1.66-1.95,6.28-7,12.68-9.25,2.96-1.04,5.59-1.23,5.83-1.24,2.62-.17,4.55.23,5.62.47,5.81,1.26,10.57,5.12,11.94,6.29Z"/>
            <g>
              <path class="cls-1" d="M359.79,307.41c.29.49.38.96.28,1.42-.11.49-.43.88-.96,1.18-.09.05-.23.12-.41.21-.19.09-.32.16-.41.21-.1.05-.12.12-.08.19.06.09.15.23.28.4s.22.3.28.39c.03.05.02.08-.03.11-.14.08-.34.19-.62.34-.28.15-.49.26-.62.34-.07.04-.12.03-.15-.03-.14-.22-.34-.56-.6-1.02-.27-.46-.47-.8-.6-1.03-.39-.64-.83-1.3-1.32-1.98l-.03-.04s0-.08.06-.13c.17-.12.56-.34,1.17-.67.36-.19.7-.38,1.04-.54.54-.28,1.06-.36,1.56-.24.5.12.9.42,1.18.89ZM358.49,308.19c-.28-.47-.68-.57-1.19-.29-.36.2-.54.32-.54.37,0,.04.13.28.4.72.04.06.1.15.18.27.08.12.14.21.18.27.02.04.24-.05.64-.28.49-.27.6-.63.33-1.07Z"/>
              <path class="cls-1" d="M365.61,305.93c.22.67.18,1.31-.12,1.92-.31.62-.82,1.06-1.53,1.31-.71.25-1.39.23-2.02-.08-.62-.3-1.05-.79-1.28-1.47-.23-.69-.19-1.35.13-1.97.32-.64.85-1.08,1.57-1.31.71-.23,1.38-.19,2.01.13.61.31,1.02.8,1.24,1.47ZM364.31,306.36c-.11-.33-.3-.57-.59-.73-.3-.17-.62-.19-.96-.08-.33.11-.57.33-.71.66-.14.32-.16.63-.06.95.11.34.31.58.59.73.3.16.62.18.97.06.32-.11.56-.33.71-.65.14-.31.16-.62.05-.93Z"/>
              <path class="cls-1" d="M369.8,307.82c-.19.03-.45.06-.76.09-.41.05-.67.08-.77.09l-1.03.13c-.1.02-.25.03-.45.05-.07,0-.11-.03-.11-.09-.02-.25-.05-.62-.09-1.11-.04-.49-.07-.86-.09-1.11-.03-.26-.07-.65-.14-1.18-.07-.52-.11-.92-.14-1.18,0-.05.03-.08.1-.09.07,0,.17-.02.31-.03.14,0,.24-.02.31-.03.08,0,.19-.03.34-.05.15-.03.26-.04.34-.05.03,0,.05.02.05.06v.04c.01.43.04,1.07.09,1.92l.08.89c.03.29.05.5.06.63,0,.03,0,.05.01.08,0,.03.02.04.06.04,0,0,.03,0,.09-.01.21-.03.51-.08.92-.16.4-.08.71-.13.91-.15.06,0,.09.01.1.06.04.38.04.71,0,.99,0,.06-.03.1-.06.11-.01,0-.06.01-.14.03Z"/>
              <path class="cls-1" d="M371.78,305.3c-.01.26-.02.66-.03,1.18,0,.53-.02.92-.03,1.18,0,.04-.01.07-.03.08,0,0-.03,0-.09.01-.15.02-.34.03-.58.03-.33,0-.53,0-.62-.02-.06-.01-.1-.05-.09-.1,0,.04.02-.16.05-.59.08-.91.12-1.5.13-1.78,0-.24.02-.6.02-1.08,0-.48,0-.84.02-1.07,0-.05.03-.07.08-.07.07,0,.17,0,.31.01.14,0,.24.01.31.01s.17,0,.31,0c.13,0,.24,0,.3,0,.06,0,.1.03.09.07,0,.24-.04.59-.08,1.07-.04.47-.07.83-.08,1.07Z"/>
              <path class="cls-1" d="M376.04,307.53s-.04.08-.09.12c-.48.41-1.03.57-1.68.47-.66-.1-1.16-.42-1.48-.95-.32-.51-.41-1.11-.27-1.8.13-.66.44-1.19.93-1.58.51-.41,1.07-.55,1.7-.44.68.12,1.16.43,1.46.92.03.05.04.1.04.14,0,.04-.11.18-.3.41-.2.24-.31.37-.36.39-.02.01-.04.02-.07.02-.01,0-.05-.05-.13-.15-.09-.12-.19-.22-.28-.3-.15-.11-.31-.19-.49-.22-.31-.05-.58.02-.81.23-.22.19-.36.45-.42.77-.07.33-.03.62.09.87.14.27.36.43.67.48.18.03.36.02.54-.04.12-.04.24-.09.37-.17.11-.07.17-.1.18-.1.02,0,.04.02.06.05.03.04.09.19.19.45.1.26.16.41.15.43Z"/>
              <path class="cls-1" d="M379.33,308.53c-.03.09-.11.24-.23.46-.13.24-.22.38-.27.42-.04.03-.08.04-.12.02-.02,0-.04-.02-.08-.04-.13-.07-.53-.23-1.21-.49-.15-.06-.37-.14-.66-.25s-.52-.2-.66-.25c-.06-.02-.08-.07-.06-.12.09-.23.24-.57.45-1.02.21-.45.35-.78.44-1.01.09-.23.25-.66.48-1.3.06-.16.14-.41.25-.73v-.04s.06-.06.11-.04c.14.06.35.15.63.27.28.12.49.21.63.26.14.05.35.13.63.24.28.1.49.18.62.24.1.04.14.1.12.18,0,.05-.05.19-.12.43-.07.24-.12.38-.14.43-.02.04-.04.06-.08.04-.01,0-.03-.01-.06-.03-.48-.24-.92-.44-1.33-.6-.1-.04-.17-.04-.21,0-.02.02-.05.1-.11.23-.05.14-.07.23-.05.29.02.05.07.09.16.13.02,0,.06.02.11.04.06.02.1.03.14.05.24.09.48.18.73.26.02,0,.08.02.16.05.07.02.12.03.16.05.04.02.06.05.04.1.02-.04-.06.1-.23.44-.08.15-.15.31-.21.47-.02.04-.05.05-.11.03l-.24-.13c-.1-.05-.35-.15-.73-.3l-.3-.12c-.08-.03-.13-.03-.16,0,0,0-.03.07-.08.19-.06.15-.09.26-.09.31,0,.09.11.18.31.28,0,0,.14.05.42.16.1.04.25.09.46.14.21.06.36.1.46.14.04.02.05.06.02.13Z"/>
            </g>
            <polygon class="cls-10" points="369.46 314.22 373.18 323.41 382.74 321.61 375.4 328.91 378.9 337.56 370.56 333.74 362.14 342.12 365.01 331.2 355.32 326.77 366.74 324.62 369.46 314.22"/>
          </g>
          <g id="girophare">
            <path class="cls-7" d="M215.67,248.92h0v16.21h-16.85v-16.21h0c0-.09,0-.18,0-.27,0-4.95,3.77-8.97,8.43-8.97s8.42,4.02,8.42,8.97c0,.09,0,.18,0,.27Z"/>
            <path class="cls-8" d="M217.94,269.17c-.14.76-.75,1.34-1.52,1.44-2.66.35-5.68.59-8.99.6-3.49,0-6.65-.24-9.42-.61-.74-.1-1.33-.64-1.5-1.36-.28-1.18-.5-2.67-.49-4.38.01-1.38.18-2.61.4-3.65.19-.91,1.05-1.5,1.97-1.38,2.55.34,5.43.58,8.59.59,3.35.01,6.39-.23,9.06-.58.95-.13,1.83.53,1.98,1.48.19,1.16.31,2.5.29,3.99-.02,1.44-.17,2.74-.37,3.85Z"/>
            <g class="cls-6">
              <path class="cls-4" d="M204.92,241.4c-.23-.28-2.63.65-4.08,2.72-1.6,2.29-1.5,5.21-1.16,5.3.27.07.57-1.52,2.11-3.94,1.73-2.72,3.33-3.83,3.13-4.08Z"/>
              <path class="cls-2" d="M210.43,241.81c.93-.37,2.97,1.77,3.94,4.01.5,1.16.68,2.31.54,6.05-.04,1.19-.28,7.68-.79,7.68-.6,0,.63-9.08-2.74-12.85-.34-.38-1.67-1.76-1.56-3.47.01-.22.08-1.21.61-1.43Z"/>
              <path class="cls-2" d="M211.04,261.31c3.8-.16,4.88-.29,5.71.54.9.9.89,2.3.88,3.47,0,1.47-.42,3.71-1.18,3.79-.8.09-.93-2.31-2.72-4.27-3.08-3.36-8.56-2.67-8.53-3.13.02-.25,1.66-.23,5.84-.41Z"/>
            </g>
          </g>
        </g>
      </g>
    </g>
  </g>
</svg>