<?xml version="1.0" encoding="UTF-8"?>
<svg xmlns="http://www.w3.org/2000/svg" viewBox="0 0 595.28 595.28">
  <defs>
    <style>
      .cls-1 {
        opacity: .6;
      }

      .cls-2, .cls-3, .cls-4, .cls-5, .cls-6 {
        stroke-miterlimit: 10;
      }

      .cls-2, .cls-4, .cls-5, .cls-6 {
        stroke: #1d1d1b;
        stroke-width: .5px;
      }

      .cls-2, .cls-7 {
        fill: #5f4e49;
      }

      .cls-3 {
        fill: #1e1e1e;
        stroke: #000;
        stroke-width: .25px;
      }

      .cls-4 {
        fill: #e2600f;
      }

      .cls-5 {
        fill: #fff;
      }

      .cls-8 {
        isolation: isolate;
      }

      .cls-7 {
        opacity: 0;
      }

      .cls-6 {
        fill: #1d1d1b;
        mix-blend-mode: multiply;
        opacity: .61;
      }
    </style>
  </defs>
  <g class="cls-8">
    <g id="fond_transparent">
      <rect class="cls-7" width="596.32" height="596.32"/>
    </g>
    <g id="Calque_42">
      <g id="orange">
        <path class="cls-4" d="M277.82,222.08c-4.73,4.57-5.04,8.97-5.08,10.13-.28,9.15,10.42,17.17,19.31,16.64,2.46-.15,4.4-.93,5.51-1.46.18.94.21,2.08-.36,3.07-1.91,3.39-9.48,2.99-14.31,1.31-7.88-2.75-14.05-10.86-14.08-18.92,0-1.73-.02-7.36,3.85-9.77,1.86-1.16,3.92-1.14,5.15-1Z"/>
        <g>
          <path class="cls-4" d="M280.44,215.4c-11.06,0-16.36,9.19-13.75,19.27,2.31,8.92,10.55,17.3,19.68,19.92,10.54,3.02,20.35-2.1,20.35-13.33,0-13.24-12.96-25.86-26.27-25.86ZM285.72,250.35c-6.95-1.78-13.27-8.19-14.86-14.99-1.74-7.46,2.55-13.77,10.57-13.37,9.14.46,17.91,9.07,18.33,18.13.38,8.08-6.3,12.22-14.04,10.24Z"/>
          <path class="cls-4" d="M287.3,238.06c.24,1.88-1.13,3.08-3.02,2.72s-3.53-2.05-3.84-3.85.92-3.17,2.82-2.9,3.79,2.1,4.04,4.03Z"/>
        </g>
      </g>
      <path id="ombre" class="cls-6" d="M277.15,222.75c-4.02,4.23-4.37,8.1-4.41,9.45-.25,9.08,10.45,17.14,19.31,16.64,1.82-.1,3.34-.56,4.45-1-.55.59-1.39,1.37-2.58,1.98-3.79,1.95-7.87.57-9.88-.12-6.33-2.15-9.58-7.12-10.69-8.88-1.2-1.89-2.53-4-2.77-7.08-.04-.47-.46-7.13,3.96-9.97.99-.63,1.95-.91,2.62-1.04Z"/>
      <g id="barre">
        <path class="cls-2" d="M299.71,239.38c.02.52.04,1.04.07,1.55-.11-.01-5-.63-5.11-.65-.45-.06-9.72-1.23-10.18-1.29-.16-.95-.32-1.92-.49-2.9,3.46.69,6.94,1.4,10.45,2.15,1.76.37,3.52.75,5.26,1.14Z"/>
        <path class="cls-2" d="M270.95,234.73c.35.04,3.43.35,3.78.38,1.61.16,6.82.69,8.43.85.13.97.26,1.92.38,2.86-2.73-.67-5.56-1.3-8.47-1.89-1.29-.26-2.57-.5-3.84-.73-.09-.49-.19-.99-.28-1.48Z"/>
      </g>
      <g id="lumièr" class="cls-1">
        <path class="cls-5" d="M272.18,219.06c-.26-.28-3.29,2.05-4.72,6.16-1.32,3.81-.8,7.85-.54,7.99.24.13.2-2.98,1.73-7.15,1.64-4.48,3.76-6.74,3.52-6.99Z"/>
        <path class="cls-5" d="M305.95,240.61c.49.2.01,5.51-3.28,9.39-3.67,4.33-9.41,5.07-9.73,4.71-.32-.36,4.77-1.77,9.07-7.52,2.66-3.56,3.55-6.74,3.94-6.58Z"/>
        <path class="cls-5" d="M282.12,238.58c-.05.22,1.48,1.58,2.78,1.51,1.17-.06,1.72-1.25,1.52-1.47-.16-.18-.7.35-1.94.37-1.36.02-2.33-.58-2.36-.41Z"/>
      </g>
      <path id="MANCHE" class="cls-3" d="M280.42,236.95c-4.46,6.41-8.92,12.82-13.38,19.23,2.11.76,4.23,1.51,6.34,2.27,4.27-6.14,8.54-12.28,12.81-18.42.47-1.46-.05-3.04-1.23-3.85-1.38-.94-3.39-.65-4.54.77Z"/>
    </g>
  </g>
</svg>