<?xml version="1.0" encoding="UTF-8"?>
<svg xmlns="http://www.w3.org/2000/svg" viewBox="0 0 595.28 595.28">
  <defs>
    <style>
      .cls-1 {
        fill: #5f4e49;
        opacity: 0;
      }

      .cls-2 {
        fill: #f2eabd;
        stroke: #1d1d1b;
        stroke-miterlimit: 10;
        stroke-width: .5px;
      }
    </style>
  </defs>
  <g id="fond_transparent">
    <rect class="cls-1" width="596.32" height="596.32"/>
  </g>
  <g id="Calque_50">
    <path id="beige" class="cls-2" d="M174.85,254.69c20.32-1.31,28.8,4.79,32.46,8.62,1.17,1.22,3.45,4.3,8,10.46,3.19,4.32,6.9,9.33,11.08,15.59,8.44,12.64,9,14.3,13.41,20.35,2.2,3.03,5.89,6.96,12.27,10.39-4.43.74-8.86,1.48-13.29,2.21-6.74-2.51-15.35-6.77-23.67-14.08-1.43-1.25-12.23-10.91-18.27-23.7-.61-1.29-1.41-3.13-2.91-5.84-3.63-6.6-7.31-11.08-9.85-14.15-2.28-2.76-5.34-6.18-9.23-9.85Z"/>
  </g>
</svg>