<?xml version="1.0" encoding="UTF-8"?>
<svg xmlns="http://www.w3.org/2000/svg" viewBox="0 0 595.28 595.28">
  <defs>
    <style>
      .cls-1, .cls-2 {
        fill: #1e1e1e;
      }

      .cls-1, .cls-3 {
        stroke: #000;
        stroke-miterlimit: 10;
        stroke-width: .25px;
      }

      .cls-4 {
        fill: #5f4e49;
        opacity: 0;
      }

      .cls-5 {
        opacity: .5;
      }

      .cls-3 {
        fill: #e2600f;
      }
    </style>
  </defs>
  <g id="fond_transparent">
    <rect class="cls-4" width="596.32" height="596.32"/>
  </g>
  <g id="volant_1">
    <g>
      <path class="cls-1" d="M302.13,258.31c-.42-.11-.79-.07-1.06.13-.03.02-.06.03-.09.06-.55.54-.21,1.78.76,2.76.97.98,2.2,1.33,2.75.79s.21-1.78-.76-2.76c-.51-.52-1.09-.85-1.61-.98Z"/>
      <path class="cls-1" d="M302.68,245.7c-.57-.58-1.17-1.08-1.77-1.49.61,1.67.94,3.23,1.02,4.65,0,.14.03.28.03.42.02,1.03-.11,1.98-.42,2.8.21.1.41.19.61.27.05.02.1.04.16.06.12.04.23.08.34.11.03,0,.07.02.1.03.05.01.1.03.15.04.05.01.09.02.13.02.1.02.21.04.31.06.03,0,.07,0,.1.01.17.02.33.02.48.01,0,0,.01,0,.02,0h0c.25-.02.48-.09.68-.18.15-.07.29-.15.4-.26,1.15-1.14.1-4.07-2.35-6.55Z"/>
      <path class="cls-1" d="M278.6,219.61c-1.67-1.69-3.57-2.53-4.24-1.87-.28.28-.3.78-.1,1.4.2.62.62,1.35,1.22,2.08,1.58.23,3.31.77,5.13,1.59-.18-.86-.88-2.03-1.93-3.12-.03-.03-.05-.06-.07-.08Z"/>
      <path class="cls-1" d="M269.01,219.1c-.02-.06-.03-.12-.05-.18-.07-.16-.16-.31-.3-.45-.13-.13-.27-.22-.42-.29-.04-.02-.08-.04-.13-.05-.14-.05-.28-.08-.43-.09-.04,0-.09,0-.13,0-.13,0-.25.03-.37.07-.05.02-.11.04-.16.06-.15.07-.29.15-.41.27-.56.56-.56,1.47.01,2.05.57.58,1.49.59,2.05.04.12-.11.19-.25.26-.39.04-.08.06-.16.08-.24.02-.09.04-.17.05-.26,0-.08.01-.15,0-.23,0-.08-.03-.16-.05-.24,0-.02,0-.05-.01-.07Z"/>
      <path class="cls-1" d="M294.9,255.52c.14.21.29.41.49.61.89.9,2.02,1.22,2.53.72.33-.32.31-.91.03-1.53-.91.24-1.93.31-3.04.2Z"/>
      <path class="cls-1" d="M286.45,252.49c-.61-.35-1.22-.73-1.84-1.14-.24.01-.46.09-.63.25-.48.47-.31,1.41.38,2.1.04.04.08.07.12.11.55.49,1.22.67,1.7.47.1-.04.2-.1.28-.18.37-.37.35-1.02,0-1.62Z"/>
      <path class="cls-1" d="M277.3,245.25c-.39.77,0,2.05,1,3.06,1.12,1.13,2.58,1.5,3.31.86-1.37-1.09-2.72-2.31-4.04-3.64-.09-.09-.18-.19-.27-.28Z"/>
      <path class="cls-1" d="M266.23,222.95c-.38.38.31,1.72,1.58,3.16.1-.84.34-1.6.7-2.27-1.07-.81-1.97-1.19-2.27-.89Z"/>
      <path class="cls-1" d="M264.65,227.76s-.06-.05-.09-.08c-.88-.85-1.89-1.21-2.3-.81-.42.42-.04,1.49.86,2.4.35.36.73.63,1.08.81.55.28,1.05.33,1.3.08.42-.42.04-1.49-.86-2.4Z"/>
      <path class="cls-1" d="M289.1,256.53c-.76.75-.38,2.45.8,4.28,3.01,1.48,5.9,2.46,8.5,2.89-.33-1.31-1.35-2.98-2.86-4.51-2.49-2.52-5.38-3.71-6.45-2.66Z"/>
      <path class="cls-1" d="M266.82,215.45c.42-.42.17-1.41-.56-2.56-1.15.2-2.19.58-3.1,1.13,1.56,1.34,3.1,1.98,3.66,1.43Z"/>
      <path class="cls-1" d="M260.92,216.18c-1,1.49-1.48,3.37-1.5,5.53.44-.16.85-.4,1.2-.74,1.21-1.2,1.28-3.17.3-4.79Z"/>
      <path class="cls-1" d="M306.72,255.52c-.72.72-.06,2.56,1.47,4.11.24.24.48.45.72.65.68-1.08,1.1-2.36,1.27-3.8-1.38-1.14-2.84-1.58-3.47-.95Z"/>
      <path class="cls-1" d="M299.29,235.64c-.87.86-.08,3.08,1.78,4.95s4.06,2.69,4.93,1.83c.17-.17.27-.39.32-.65-.94-1.75-2.03-3.53-3.27-5.31-1.53-1.12-3.07-1.5-3.76-.82Z"/>
      <path class="cls-1" d="M292.56,231.57c.31-1.04-.49-2.85-2.04-4.42-1.84-1.86-4.03-2.67-4.89-1.82-.07.07-.12.14-.17.22,2.25,1.52,4.51,3.39,6.68,5.58.14.14.28.29.42.44Z"/>
      <path class="cls-1" d="M281.9,219.41c.38-.37.03-1.34-.77-2.15-.8-.81-1.76-1.17-2.14-.79-.38.37-.03,1.34.77,2.15.8.81,1.76,1.17,2.14.79Z"/>
      <path class="cls-1" d="M278.01,249.77c-1.91-1.93-3.95-3-4.57-2.39-.19.19-.22.51-.12.93.23.24.46.49.7.73,1.98,2,4.02,3.83,6.08,5.47.1-.03.18-.07.25-.14.62-.61-.43-2.67-2.34-4.6Z"/>
      <path class="cls-1" d="M268.29,239.93c-.7-.71-1.63-.91-2.09-.46-.01.01-.02.03-.03.04.62.92,1.27,1.83,1.97,2.75.23-.01.44-.08.59-.23.46-.45.26-1.39-.44-2.09Z"/>
      <path class="cls-1" d="M268.44,235.72c-.94-.95-2.13-1.3-2.65-.79-.19.19-.27.48-.24.81.05.56.4,1.25.99,1.84.53.53,1.13.87,1.65.98.41.09.77.04,1-.19.52-.52.18-1.71-.76-2.66Z"/>
    </g>
    <g id="orange">
      <path class="cls-3" d="M272.4,221.22c-1.72.28-2.76,1.19-3.03,1.45-.35.34-.63.74-.87,1.17-.36.66-.59,1.43-.7,2.27-.6,4.88,2.99,12.46,9.5,19.14.09.09.18.19.27.28,1.32,1.33,2.67,2.55,4.04,3.64,1,.8,2,1.52,3,2.18.62.41,1.23.79,1.84,1.14,3.04,1.75,5.97,2.81,8.45,3.03,1.11.1,2.14.04,3.04-.2.94-.25,1.75-.69,2.39-1.33.26-.26.49-.55.68-.86.21-.33.38-.68.52-1.06.3-.82.43-1.77.42-2.8,0-.14-.02-.28-.03-.42-.04.06-.09.11-.11.18-1.63,6.9-8.02,4.68-11.66,2.64-21.66-12.13-20.33-25.06-20.49-26.87-.01-.14.32-2.67,2.73-3.6"/>
      <path class="cls-3" d="M310.2,256.47c.48-3.99-.92-9.19-3.88-14.71-.05.26-.15.48-.32.65-.87.86-3.08.04-4.93-1.83s-2.65-4.09-1.78-4.95c.69-.68,2.23-.3,3.76.82-2.07-2.97-4.54-5.96-7.37-8.83-10.25-10.37-22.09-16.03-29.42-14.74.73,1.14.98,2.14.56,2.56-.56.55-2.1-.08-3.66-1.43-.48.29-.92.63-1.32,1.03-.35.34-.65.72-.92,1.12.98,1.62.91,3.59-.3,4.79-.35.34-.75.59-1.2.74-.03,4.93,2.38,11.31,6.76,17.8.01-.01.02-.03.03-.04.46-.45,1.39-.24,2.09.46.7.71.89,1.64.44,2.09-.15.15-.36.22-.59.23,1.54,2.04,3.28,4.07,5.18,6.05-.1-.42-.07-.74.12-.93.62-.61,2.66.46,4.57,2.39,1.91,1.93,2.96,3.99,2.34,4.6-.07.07-.15.11-.25.14,3.29,2.62,6.61,4.74,9.8,6.31-1.19-1.83-1.56-3.52-.8-4.28,1.07-1.05,3.95.14,6.45,2.66,1.51,1.53,2.53,3.2,2.86,4.51,3.98.66,7.32.03,9.46-2.09.41-.4.75-.85,1.06-1.33-.25-.2-.49-.41-.72-.65-1.54-1.56-2.2-3.4-1.47-4.11.63-.62,2.09-.19,3.47.95ZM278.99,216.47c.38-.37,1.34-.02,2.14.79.8.81,1.15,1.77.77,2.15-.38.37-1.34.02-2.14-.79-.8-.81-1.15-1.77-.77-2.15ZM266.61,218.44c.12-.12.26-.2.41-.27.05-.02.1-.04.16-.06.03-.01.07-.03.1-.04.09-.02.18-.02.27-.03.04,0,.09,0,.13,0,.15,0,.29.04.43.09.04.02.08.03.13.05.15.07.3.16.42.29.13.13.22.29.3.45.03.06.04.12.05.18,0,.02.01.04.02.07.02.08.04.16.04.24,0,.08,0,.15,0,.23,0,.09-.02.17-.05.26-.02.08-.05.16-.08.24-.01.02-.01.05-.02.07-.06.12-.14.23-.24.32-.56.56-1.48.54-2.05-.04-.57-.58-.58-1.49-.01-2.05ZM264.2,230.08c-.35-.18-.73-.45-1.08-.81-.9-.91-1.28-1.98-.86-2.4.41-.4,1.42-.04,2.3.81.03.03.06.05.09.08.9.91,1.28,1.98.86,2.4-.26.25-.75.2-1.3-.08ZM269.2,238.37c-.23.23-.59.28-1,.19-.52-.11-1.12-.45-1.65-.98-.59-.6-.94-1.29-.99-1.84-.03-.33.04-.62.24-.81.52-.52,1.71-.16,2.65.79.94.95,1.28,2.14.76,2.66ZM304.5,262.05c-.55.54-1.78.19-2.75-.79-.97-.98-1.31-2.21-.76-2.76.02-.02.06-.04.09-.06.26-.2.63-.24,1.06-.13.52.13,1.1.47,1.61.98.97.98,1.31,2.21.76,2.76ZM305.02,252.25c-.11.11-.25.19-.4.26-.2.1-.43.16-.68.18-.28.02-.59-.02-.91-.08-.04,0-.09-.01-.13-.02,0,0,0,0,0,0-.08-.02-.17-.04-.25-.07-.11-.03-.23-.07-.34-.11,0,0,0,0,0,0-.25-.09-.51-.19-.77-.33-.14.38-.31.73-.52,1.06-.2.31-.42.6-.68.86-.65.64-1.46,1.08-2.39,1.33.29.62.3,1.2-.03,1.53-.51.5-1.64.18-2.53-.72-.19-.19-.35-.4-.49-.61-2.48-.23-5.41-1.28-8.45-3.03.35.6.38,1.25,0,1.62-.08.08-.18.13-.28.18-.47.2-1.15.02-1.7-.47-.04-.04-.08-.07-.12-.11-.68-.69-.85-1.63-.38-2.1.16-.16.38-.24.63-.25-1-.66-2-1.38-3-2.18-.73.65-2.19.28-3.31-.86-1-1.01-1.39-2.29-1-3.06-6.5-6.68-10.1-14.25-9.5-19.14-1.27-1.44-1.96-2.78-1.58-3.16.3-.3,1.2.08,2.27.89.23-.43.52-.83.87-1.17.27-.27.58-.49.9-.69,1.05-.64,2.37-.92,3.88-.87.43.01.87.04,1.32.11-.59-.73-1.01-1.46-1.22-2.08-.2-.62-.19-1.12.1-1.4.67-.66,2.57.17,4.24,1.87.03.03.05.06.07.08,1.06,1.09,1.76,2.26,1.93,3.12,1.57.71,3.21,1.63,4.85,2.74.05-.08.1-.16.17-.22.86-.85,3.05-.04,4.89,1.82,1.55,1.57,2.35,3.38,2.04,4.42,4.02,4.17,6.91,8.67,8.35,12.64.6.42,1.19.92,1.77,1.49,2.45,2.48,3.5,5.41,2.35,6.55Z"/>
    </g>
    <path id="ombre" class="cls-5" d="M272.4,221.22c-1.72.28-2.76,1.19-3.03,1.45-.35.34-.63.74-.87,1.17-.36.66-.59,1.43-.7,2.27-.6,4.88,2.99,12.46,9.5,19.14.09.09.18.19.27.28,1.32,1.33,2.67,2.55,4.04,3.64,1,.8,2,1.52,3,2.18.62.41,1.23.79,1.84,1.14,3.04,1.75,5.97,2.81,8.45,3.03,1.11.1,2.14.04,3.04-.2.94-.25,1.75-.69,2.39-1.33.26-.26.49-.55.68-.86.21-.33.38-.68.52-1.06.3-.82.43-1.77.42-2.8,0-.14-.02-.28-.03-.42-.04.06-.09.11-.11.18-1.63,6.9-8.02,4.68-11.66,2.64-21.66-12.13-20.33-25.06-20.49-26.87-.01-.14.32-2.67,2.73-3.6"/>
    <g>
      <path class="cls-2" d="M289.35,239.38c.68,1.46.77,2.76.09,3.43-.26.25-.6.39-1.01.44l12.6,9.89c.21-.33.38-.68.52-1.06.3-.82.43-1.77.42-2.8l-12.61-9.9Z"/>
      <path class="cls-2" d="M280.02,234.68c.06-.38.2-.71.44-.95.69-.69,2.02-.57,3.5.16l-9.81-12.79c-1.51-.05-2.83.23-3.88.87l9.74,12.7Z"/>
      <path class="cls-2" d="M288.42,243.24c.4-.04.75-.18,1.01-.44.68-.67.6-1.97-.09-3.43-.48-1.04-1.26-2.15-2.29-3.19-1-1.02-2.08-1.79-3.09-2.29-1.48-.73-2.81-.84-3.5-.16-.25.24-.39.57-.44.95-.21,1.43.86,3.69,2.82,5.67,1.93,1.96,4.15,3.05,5.59,2.89Z"/>
      <path class="cls-1" d="M280.72,235.91c-4.71,6.26-9.42,12.52-14.14,18.78l7.45,3.56c4.52-6.02,9.04-12.03,13.57-18.05.74-1.89,0-4.04-1.72-5.06-1.66-.99-3.83-.67-5.16.77Z"/>
    </g>
  </g>
</svg>