<?xml version="1.0" encoding="UTF-8"?>
<svg xmlns="http://www.w3.org/2000/svg" viewBox="0 0 595.28 595.28">
  <defs>
    <style>
      .cls-1, .cls-2 {
        fill: #1d1d1b;
      }

      .cls-3, .cls-4, .cls-5 {
        fill: #fff;
      }

      .cls-6 {
        opacity: .4;
      }

      .cls-7 {
        fill: #c61617;
      }

      .cls-7, .cls-4, .cls-5, .cls-8, .cls-9, .cls-10, .cls-11, .cls-2 {
        stroke: #1d1d1b;
        stroke-miterlimit: 10;
      }

      .cls-7, .cls-4, .cls-8, .cls-11, .cls-2 {
        stroke-width: .5px;
      }

      .cls-12 {
        isolation: isolate;
      }

      .cls-5, .cls-9, .cls-10 {
        stroke-width: .25px;
      }

      .cls-8 {
        fill: #3c3c3b;
      }

      .cls-13 {
        fill: #5f4e49;
        opacity: 0;
      }

      .cls-9 {
        fill: #2f2f30;
      }

      .cls-10, .cls-11 {
        fill: #f2eabd;
      }

      .cls-2 {
        mix-blend-mode: multiply;
      }
    </style>
  </defs>
  <g class="cls-12">
    <g id="fond_transparent">
      <rect class="cls-13" width="596.32" height="596.32"/>
    </g>
    <g id="covering_-_copie_2">
      <g id="covering_3_-_copie_2">
        <g id="Calque_46_-_copie_2">
          <g id="trait_blanc">
            <path class="cls-5" d="M471.31,263.62c-38.69-1.82-77.37-3.65-116.06-5.47.17,1.14.28,2.62.13,4.34-.14,1.69-.48,3.11-.83,4.2,40.07,1.66,80.15,3.33,120.22,4.99-.23-1.11-.59-2.43-1.17-3.86-.71-1.74-1.55-3.14-2.3-4.2Z"/>
            <path class="cls-5" d="M253.29,319.85c3.07,7.87,6.35,18.53,7.97,31.45,1.7,13.65.98,25.35-.2,34.01,31.39-8.61,62.78-17.21,94.17-25.82,1.5-7.38,2.6-16.62,2.08-27.21-1.13-22.93-9.29-40.43-14.94-50.28-4.62,3.34-10.89,7.55-18.65,11.87-3.88,2.16-11.1,6.01-22.71,10.76-10.47,4.28-26.47,10.09-47.71,15.22Z"/>
            <path class="cls-3" d="M352.81,272.92c20.79.7,41.58,1.4,62.37,2.1,5.88.2,11.76.4,17.64.6.8.03.8-1.22,0-1.25-20.79-.7-41.58-1.4-62.37-2.1-5.88-.2-11.76-.4-17.64-.6-.8-.03-.8,1.22,0,1.25h0Z"/>
          </g>
          <g>
            <path class="cls-9" d="M330.32,337.21c1.82,9.65-3.92,20.79-13.7,25.32-10.91,5.06-22.6.14-24.92-11.61-2.33-11.81,6.08-24,17.52-26.86,10.24-2.55,19.27,3.45,21.09,13.15Z"/>
            <path class="cls-11" d="M326.15,319.68c-1.1,2.04-2.22,4.11-3.36,6.21-1.55-.91-4.24-2.16-7.89-2.36-2.62-.14-4.76.31-5.79.56-2.76.69-4.82,1.8-5.79,2.37-3.77,2.22-6.19,5.11-7.51,6.98-2.14-1.59-4.31-3.2-6.53-4.85,1.45-2.25,5.53-8.13,11.85-11.36,2.92-1.49,5.62-2.05,5.87-2.1,2.69-.54,4.75-.39,5.9-.3,6.2.49,11.67,3.83,13.25,4.85Z"/>
            <g>
              <path class="cls-1" d="M299.21,323.37c.37.47.53.94.49,1.43-.05.52-.32.97-.83,1.36-.09.06-.22.16-.4.28-.18.12-.31.21-.4.28-.09.07-.11.14-.05.21.07.09.19.21.34.37s.27.28.34.37c.04.04.03.08-.01.12-.13.1-.33.25-.6.44-.27.19-.47.34-.6.44-.06.05-.12.04-.16-.01-.17-.21-.43-.54-.76-.97-.34-.44-.6-.76-.77-.98-.49-.61-1.04-1.24-1.65-1.87l-.04-.04s-.02-.08.05-.14c.16-.15.53-.43,1.12-.86.34-.25.68-.49,1-.71.53-.36,1.05-.52,1.58-.47.54.05.99.31,1.35.76ZM297.97,324.36c-.36-.45-.78-.5-1.27-.14-.35.26-.52.41-.51.46,0,.04.18.27.52.69.05.06.12.15.22.26.1.11.17.2.22.26.03.04.24-.09.63-.38.47-.35.53-.73.19-1.16Z"/>
              <path class="cls-1" d="M305.03,321.02c.32.67.37,1.34.14,2.01-.23.69-.7,1.21-1.4,1.57-.7.36-1.4.43-2.1.2-.69-.22-1.2-.67-1.54-1.35-.34-.68-.38-1.37-.14-2.06.24-.71.73-1.23,1.44-1.58.71-.34,1.41-.39,2.1-.15.68.24,1.17.69,1.49,1.35ZM303.75,321.65c-.16-.32-.39-.55-.71-.67-.33-.13-.67-.11-1.01.05-.32.16-.54.42-.65.78-.1.35-.08.68.07.99.16.33.4.56.71.68.33.12.67.1,1.01-.08.32-.16.53-.42.64-.78.1-.34.08-.66-.07-.97Z"/>
              <path class="cls-1" d="M309.64,322.39c-.2.06-.46.12-.78.2-.42.11-.68.17-.78.2l-1.05.28c-.11.03-.26.07-.46.11-.07,0-.11-.02-.13-.08-.06-.25-.14-.63-.25-1.14-.11-.51-.19-.88-.25-1.14-.06-.27-.16-.67-.31-1.2-.14-.53-.24-.93-.31-1.2-.01-.05.02-.09.09-.1.07-.02.18-.04.32-.07.14-.03.25-.05.32-.07.08-.02.19-.05.34-.1.15-.05.27-.08.34-.1.04,0,.06,0,.06.05v.05c.08.44.2,1.1.37,1.97l.21.91c.07.29.12.51.15.64,0,.03.02.05.03.08,0,.03.03.04.06.04,0,0,.03,0,.09-.02.21-.06.52-.15.93-.29.41-.14.72-.23.92-.29.06-.02.1,0,.11.05.09.39.14.73.15,1.03,0,.06-.01.1-.05.13-.01,0-.06.02-.14.05Z"/>
              <path class="cls-1" d="M311.34,319.5c.03.27.07.68.14,1.23.07.55.11.96.14,1.23,0,.05,0,.08-.02.09,0,0-.03.01-.09.03-.15.04-.35.08-.6.12-.34.05-.56.07-.65.07-.07,0-.11-.04-.11-.09,0,.04,0-.17-.03-.62-.05-.95-.09-1.57-.11-1.87-.02-.25-.07-.62-.13-1.12-.06-.5-.11-.87-.13-1.12,0-.05.02-.08.07-.09.07,0,.18-.02.33-.03.15-.01.25-.02.33-.03s.18-.02.32-.05c.14-.02.24-.04.31-.05.07,0,.1.01.11.06.02.25.05.62.07,1.12.02.5.04.87.07,1.12Z"/>
              <path class="cls-1" d="M316.07,321.23s-.03.08-.08.14c-.43.49-.99.73-1.67.72-.7-.01-1.26-.27-1.67-.77-.4-.49-.58-1.1-.53-1.83.04-.71.29-1.29.74-1.77.47-.49,1.03-.72,1.7-.69.72.03,1.26.28,1.64.75.04.05.06.1.06.13,0,.04-.09.2-.26.47-.17.27-.27.42-.32.46-.02.02-.04.03-.07.03-.01,0-.06-.05-.16-.14-.11-.11-.23-.2-.34-.27-.17-.1-.35-.15-.54-.16-.33-.01-.6.1-.81.35-.2.23-.31.52-.33.86-.02.35.05.65.22.89.18.26.44.4.77.41.19,0,.38-.03.56-.12.12-.05.24-.13.36-.23.1-.08.16-.13.17-.13.02,0,.04.01.06.04.03.04.12.19.26.44.15.26.22.4.22.42Z"/>
              <path class="cls-1" d="M319.62,321.79c-.02.09-.08.26-.18.51-.1.27-.18.42-.22.47-.03.04-.07.05-.12.04-.02,0-.05-.01-.09-.03-.15-.06-.59-.17-1.32-.33-.16-.04-.4-.09-.72-.17s-.56-.13-.72-.17c-.07-.02-.1-.06-.08-.12.06-.25.17-.62.32-1.12.15-.49.26-.86.32-1.11.06-.25.17-.72.31-1.42.04-.18.09-.44.16-.8v-.05c.02-.05.05-.07.11-.06.15.04.39.1.69.19.31.09.54.15.69.19.15.04.38.09.68.16.3.07.53.12.68.16.11.03.16.08.15.17,0,.05-.02.21-.06.46-.04.26-.07.41-.08.47-.01.05-.04.06-.08.05-.01,0-.03,0-.06-.02-.53-.18-1.02-.33-1.46-.43-.11-.03-.18-.02-.22.03-.02.02-.04.11-.08.25-.04.15-.04.25-.01.31.03.05.09.09.19.11.02,0,.06.01.12.02.06.01.11.02.15.03.26.06.53.12.79.17.02,0,.08.01.17.02.07,0,.13.02.17.03.05.01.07.04.06.09.01-.05-.05.12-.18.49-.06.17-.11.34-.15.52-.01.04-.05.06-.11.04l-.27-.1c-.11-.04-.38-.11-.8-.21l-.33-.08c-.09-.02-.14,0-.17.03,0,.01-.02.08-.05.2-.04.17-.06.28-.05.33.01.09.14.17.36.24,0,0,.15.03.46.11.11.03.28.05.5.08.22.03.38.06.49.08.05.01.06.06.04.13Z"/>
            </g>
            <polygon class="cls-10" points="310.19 329.08 315.32 338.08 324.98 334.88 318.4 343.48 323.23 351.95 314.05 349.16 306.5 359.02 307.94 347.3 297.28 344.06 308.81 340.24 310.19 329.08"/>
          </g>
          <g id="girophare">
            <path class="cls-7" d="M381.93,224.49h0v13.06h-13.57v-13.06h0c0-.07,0-.15,0-.22,0-3.99,3.04-7.22,6.79-7.22s6.78,3.24,6.78,7.22c0,.07,0,.15,0,.22Z"/>
            <path class="cls-8" d="M383.88,240.31c-.3.25-.71.2-.88.19-6.98-.72-9.04-1.06-13.15-1.73-1.91-.31-3.24-.44-3.74-1.44-.57-1.12.26-2.67.32-2.94.15-.73.85-1.21,1.59-1.11,2.05.27,4.37.46,6.92.47,2.7.01,5.14-.18,7.29-.47.76-.1,1.47.43,1.59,1.19.14.85.13,1.12.24,3.22.08,1.51.29,2.24-.17,2.62Z"/>
            <g class="cls-6">
              <path class="cls-4" d="M373.58,219.05c-.18-.23-2.12.52-3.28,2.19-1.29,1.84-1.21,4.19-.93,4.27.21.06.46-1.22,1.7-3.17,1.39-2.19,2.68-3.08,2.52-3.28Z"/>
              <path class="cls-2" d="M377.31,218.55c.75-.3,2.39,1.42,3.17,3.23.41.94.55,1.86.44,4.87-.04.96-.23,6.19-.64,6.19-.48,0,.51-7.31-2.21-10.34-.28-.31-1.35-1.42-1.26-2.79.01-.18.06-.98.49-1.15Z"/>
              <path class="cls-2" d="M378.62,234.32c2.73-.12,3.51-.21,4.11.39.65.65.64,1.65.64,2.5,0,1.06-.3,2.67-.85,2.73-.58.06-.67-1.66-1.96-3.07-2.22-2.42-6.17-1.92-6.14-2.25.01-.18,1.2-.16,4.21-.29Z"/>
            </g>
          </g>
        </g>
      </g>
    </g>
  </g>
</svg>