<?xml version="1.0" encoding="UTF-8"?>
<svg xmlns="http://www.w3.org/2000/svg" viewBox="0 0 595.28 595.28">
  <defs>
    <style>
      .cls-1 {
        fill: #828282;
      }

      .cls-1, .cls-2, .cls-3, .cls-4, .cls-5, .cls-6 {
        stroke: #000;
        stroke-miterlimit: 10;
        stroke-width: .5px;
      }

      .cls-2 {
        fill: #2f2f30;
      }

      .cls-3 {
        fill: #0e0e0e;
      }

      .cls-7 {
        fill: #5f4e49;
        opacity: 0;
      }

      .cls-4 {
        opacity: .5;
      }

      .cls-5 {
        fill: #1e1e1e;
      }

      .cls-6 {
        fill: #202020;
      }
    </style>
  </defs>
  <g id="fond_transparent">
    <rect class="cls-7" width="596.32" height="596.32"/>
  </g>
  <g id="roue_arrière_v2">
    <g id="roue_2">
      <g id="noire">
        <g id="roue_2-2" data-name="roue_2">
          <g>
            <path class="cls-3" d="M319.21,313.14s-27.16-3.21-23.91-35.47c3.26-32.27,35.52-42.53,35.52-42.53,0,0,24.03-6.3,34.68,11.88,3.72,6.34-9.98-5.51-31.43-1.69-6.43,1.15-21.75,21.27-23.88,28.81-4.89,17.33,9.01,39,9.01,39Z"/>
            <path class="cls-6" d="M360.11,240.86s-26.03-11.84-48.24,22.18c0,0-11.03,18.07-6.09,32.81,0,0,4.43,13.31,12.57,17.16,0,0,22.98,6.29,43.17-21.16,20.19-27.45,1.67-49.98-1.4-50.99ZM360.85,280.86c-1.3,2.6-2.87,5.03-4.65,7.28-4.13,5.23-9.36,9.4-14.82,11.97-1.05.49-2.11.93-3.17,1.3-4.35,1.53-8.74,2.01-12.75,1.17-6.75-1.41-11-6.24-12.26-12.73-.86-4.44-.31-9.64,1.81-15.06.41-1.05.88-2.11,1.41-3.18,6.4-12.79,19.42-21.85,30.8-22.12.96-.02,1.91.02,2.85.13.59.07,1.17.15,1.74.27,2.77.58,5.12,1.73,7.01,3.34,6.5,5.51,7.65,16.36,2.02,27.62Z"/>
          </g>
          <g>
            <path class="cls-2" d="M358.83,253.24c-1.9-1.61-4.24-2.77-7.01-3.34-.57-.12-1.15-.2-1.74-.27-.93-.1-1.88-.15-2.85-.13-11.39.27-24.41,9.33-30.8,22.12-.53,1.07-1,2.13-1.41,3.18-2.12,5.42-2.67,10.63-1.81,15.06,1.25,6.49,5.51,11.32,12.26,12.73,4.01.83,8.4.35,12.75-1.17,1.06-.37,2.12-.81,3.17-1.3,5.47-2.57,10.69-6.74,14.82-11.97,1.77-2.25,3.35-4.68,4.65-7.28,5.63-11.26,4.48-22.11-2.02-27.62ZM342.02,296.8c-.98.5-1.97.94-2.96,1.33-4.09,1.58-8.25,2.11-12.03,1.33-6.25-1.3-10.07-5.94-10.95-12.09,5.3-4.06,11.52-6.1,16.82-5,4.14.86,6.99,3.48,8.34,7.1.8,2.15,1.08,4.64.78,7.33ZM318.77,276.25c-.45-.09-.87-.21-1.29-.35.44-1.23.97-2.48,1.59-3.73,5.8-11.59,17.77-19.71,28-19.49-.33,2.46-1.14,5.07-2.46,7.71-5.31,10.62-16.88,17.73-25.84,15.86ZM358.21,280.32c-1.31,2.62-2.94,5.05-4.79,7.26-7.93-2.54-10.35-12.17-5.3-22.27,1.9-3.81,4.61-7.16,7.71-9.81,6.24,4.69,7.5,14.55,2.37,24.81Z"/>
            <path class="cls-2" d="M331.27,294.7s1.63-7.1-4.46-12.37c0,0,8.42-1.76,12.56,3.84,0,0,3.4,3.59,2.65,10.63,0,0-11.25,6.24-19.75.76,0,0,3.23,0,8.99-2.87Z"/>
            <path class="cls-2" d="M346.25,280.44s6.11-9.42,3.98-18.68c0,0,2.07-3.3,5.62-6.25,0,0,6.06,3.97,5.55,12.87,0,0,.34,9.53-7.97,19.2,0,0-5.35-1.51-7.18-7.14Z"/>
            <path class="cls-2" d="M318.81,272.71s10.98-3.95,16.12-16.85c0,0,5.88-3.41,12.14-3.18,0,0-.54,8.46-8.93,16.39,0,0-9.36,9.84-20.67,6.83l1.33-3.19Z"/>
            <line class="cls-5" x1="331.27" y1="294.7" x2="342.02" y2="296.8"/>
          </g>
          <g>
            <path class="cls-4" d="M331.27,294.7s1.63-7.1-4.46-12.37c0,0,8.42-1.76,12.56,3.84,0,0,3.4,3.59,2.65,10.63,0,0-11.25,6.24-19.75.76,0,0,3.23,0,8.99-2.87Z"/>
            <path class="cls-4" d="M346.25,280.44s6.11-9.42,3.98-18.68c0,0,2.07-3.3,5.62-6.25,0,0,6.06,3.97,5.55,12.87,0,0,.34,9.53-7.97,19.2,0,0-5.35-1.51-7.18-7.14Z"/>
            <path class="cls-4" d="M318.81,272.71s10.98-3.95,16.12-16.85c0,0,5.88-3.41,12.14-3.18,0,0-.54,8.46-8.93,16.39,0,0-9.36,9.84-20.67,6.83l1.33-3.19Z"/>
          </g>
          <g>
            <line class="cls-1" x1="338.19" y1="276.24" x2="466.77" y2="333.23"/>
            <rect class="cls-1" x="395.48" y="234.41" width="14" height="140.64" transform="translate(-39.2 549.22) rotate(-66.1)"/>
          </g>
        </g>
        <g id="roue_2-3" data-name="roue_2">
          <g>
            <path class="cls-3" d="M71.89,342.34c1.6-7.11,5.22-14.29,10.73-20.6,1.07-1.23,2.21-2.42,3.42-3.58,14.56-13.85,34.4-17.29,47.33-9.14,1.09.69,2.13,1.47,3.12,2.32,5.46-9.49,8.66-16.34,7.56-17.8-4.49-5.91-31.42-25.52-63.89-7.05-32.47,18.47-36.88,44.25-36.88,44.25-14.31,58.46,38.67,63.57,38.67,63.57,0,0,4.61-6.57,11.34-16.38-5.76-1.03-10.97-3.63-14.98-7.85-6.76-7.11-8.74-17.35-6.41-27.74Z"/>
            <path class="cls-6" d="M155.83,318.4s-3.22-22.3-18.25-29.84c0,0-30.14-10.84-62.51,20.35,0,0-22.09,23.12-19.55,51.72,0,0,3.01,34.75,30.41,33.81,0,0,36.68,1.26,57.08-29.73,0,0,16.34-21.46,12.82-46.3ZM130.33,365.2c-2.95,2.81-6.13,5.18-9.42,7.13-7.65,4.52-15.92,6.68-23.54,6.33-7.46-.34-14.29-3.08-19.29-8.33-6.76-7.11-8.74-17.35-6.41-27.74,1.6-7.11,5.22-14.29,10.73-20.6,1.07-1.23,2.21-2.42,3.42-3.58,14.56-13.85,34.4-17.29,47.33-9.14,1.78,1.12,3.43,2.46,4.91,4.02,2.78,2.92,4.74,6.37,5.94,10.13,4.11,12.91-.86,29.59-13.68,41.79Z"/>
          </g>
          <g>
            <path class="cls-2" d="M144.01,323.41c-1.2-3.77-3.16-7.21-5.94-10.13-.57-.6-1.18-1.16-1.79-1.69-.99-.85-2.03-1.63-3.12-2.32-12.93-8.15-32.77-4.71-47.33,9.14-1.21,1.15-2.35,2.35-3.42,3.58-5.51,6.31-9.13,13.49-10.73,20.6-2.34,10.4-.36,20.63,6.41,27.74,4.02,4.22,9.22,6.82,14.98,7.85,1.41.25,2.84.41,4.31.48,7.62.35,15.89-1.81,23.54-6.33,3.29-1.94,6.46-4.32,9.42-7.13,12.82-12.2,17.79-28.88,13.68-41.79ZM88.47,321.18c13.2-12.55,31.31-15.41,42.67-7.42-1.79,3.34-4.21,6.53-7.21,9.39-12.1,11.5-29.17,13.18-38.15,3.74-.45-.47-.86-.96-1.25-1.47,1.2-1.47,2.52-2.89,3.94-4.25ZM100.01,374.3c-1.39,0-2.75-.1-4.09-.29-5.5-.77-10.48-3.11-14.26-7.08-6.26-6.58-7.87-16.21-5.3-25.84,8.28-1.94,16.44-.25,21.76,5.34,4.14,4.36,5.83,10.32,5.26,16.61-.34,3.73-1.47,7.57-3.36,11.27ZM127.69,362.41c-2.98,2.83-6.21,5.17-9.56,7-7.43-9.65-4.58-25.51,6.91-36.44,4.33-4.12,9.31-6.97,14.32-8.51,4.3,11.52.02,26.84-11.66,37.95Z"/>
            <path class="cls-2" d="M89.15,363.17s5.92-9.14,2.14-21.37c0,0,10.46,3.75,11.87,15.01,0,0,1.74,7.79-3.16,17.49,0,0-16.22.66-22.6-13.7,0,0,3.62,2.42,11.74,2.57Z"/>
            <path class="cls-2" d="M114.19,353.62s12.3-9.15,15.25-24.25c0,0,4.23-3.27,9.91-4.9,0,0,4.5,10.33-1.2,22.92,0,0-5.11,14.15-20.02,22.02,0,0-5.13-6.22-3.94-15.8Z"/>
            <path class="cls-2" d="M87.86,321.77s14.6,2.47,27.82-12.48c0,0,8.57-.56,15.46,4.47,0,0-5.49,11.92-19.48,17.21,0,0-16.18,7.33-27.13-5.54l3.33-3.66Z"/>
            <line class="cls-5" x1="89.15" y1="363.17" x2="100.01" y2="374.3"/>
          </g>
          <g>
            <path class="cls-4" d="M89.15,363.17s5.92-9.14,2.14-21.37c0,0,10.46,3.75,11.87,15.01,0,0,1.74,7.79-3.16,17.49,0,0-16.22.66-22.6-13.7,0,0,3.62,2.42,11.74,2.57Z"/>
            <path class="cls-4" d="M114.19,353.62s12.3-9.15,15.25-24.25c0,0,4.23-3.27,9.91-4.9,0,0,4.5,10.33-1.2,22.92,0,0-5.11,14.15-20.02,22.02,0,0-5.13-6.22-3.94-15.8Z"/>
            <path class="cls-4" d="M87.86,321.77s14.6,2.47,27.82-12.48c0,0,8.57-.56,15.46,4.47,0,0-5.49,11.92-19.48,17.21,0,0-16.18,7.33-27.13-5.54l3.33-3.66Z"/>
          </g>
          <g>
            <line class="cls-1" x1="211.49" y1="406.52" x2="108.34" y2="342.1"/>
            <rect class="cls-1" x="151.91" y="313.5" width="16" height="121.61" transform="translate(-242.27 311.67) rotate(-58.01)"/>
          </g>
        </g>
      </g>
    </g>
  </g>
</svg>