<?xml version="1.0" encoding="UTF-8"?>
<svg xmlns="http://www.w3.org/2000/svg" viewBox="0 0 595.28 595.28">
  <defs>
    <style>
      .cls-1 {
        fill: #fff;
      }

      .cls-2 {
        fill: #406641;
      }

      .cls-3 {
        fill: #5f4e49;
        opacity: 0;
      }
    </style>
  </defs>
  <g id="fond_transparent">
    <rect class="cls-3" width="596.32" height="596.32"/>
  </g>
  <g id="covering_-_copie_2">
    <g id="covering_1">
      <g id="gris">
        <g id="vert_fonce">
          <path class="cls-2" d="M470.49,270.89c-32.5-1.47-66.65,1.22-96.36,15.54-9.29,4.48-17.94,10.13-25.73,16.89-11.12,9.65-21.6,19.75-34.56,26.99-8.4,4.69-17.3,7.86-26.54,10.45-9.58,2.69-19.37,4.72-29.38,4.06-5.61-.37-11.02-1.75-16.46-3.09-4.8-1.18-9.58-2.43-14.35-3.74-6.04-1.67-12.17-3.34-18.02-5.6s-11.69-4.09-18.13-4.64c-8.81-.76-17.73.19-26.39,1.86-12.57,2.43-24.81,6.46-36.72,11.13-16.97,6.65-33.37,14.7-49.41,23.34-4.81,2.59-9.59,5.25-14.34,7.95-.7.4-.07,1.48.63,1.08,17.28-9.83,34.94-19.08,53.21-26.94,12.87-5.54,26.1-10.45,39.73-13.77,15.36-3.74,32.77-6.06,47.91-.11,12.72,4.99,26,8.38,39.27,11.57,9.78,2.35,19.31,2.97,29.26,1.29,9.32-1.57,18.8-4.24,27.59-7.7,14.75-5.81,27.35-15.09,39.07-25.6,8.16-7.32,16.19-14.4,25.71-19.93,26.47-15.39,57.95-19.98,88.14-20.09,5.29-.02,10.57.11,15.85.35.8.04.8-1.21,0-1.25h0Z"/>
        </g>
      </g>
      <g id="trait_blanc">
        <path class="cls-1" d="M468.44,263.7c-32.99-2.44-68.19-1.57-99.07,11.65-9.34,4-18.13,9.23-25.88,15.81-4.25,3.61-8.11,7.64-12.2,11.41-5.91,5.45-12.21,10.46-19.07,14.68-8.04,4.94-16.74,8.6-25.63,11.73-9.32,3.29-19.06,5.6-29,5.46-11.01-.15-21.8-3.78-32.19-7.17-6.84-2.23-13.65-4.66-20.19-7.67s-12.45-5.13-19.41-5.99c-8.96-1.1-18.08-.3-26.92,1.37-12.8,2.43-25.19,6.78-37.16,11.85-17.24,7.31-33.75,16.28-49.77,25.94-4.84,2.92-9.63,5.9-14.38,8.95-1.35.86-.1,3.03,1.26,2.16,17.14-10.96,34.76-21.27,53.17-29.96,12.93-6.1,26.31-11.46,40.21-14.91,15.65-3.89,33.38-5.7,48.49,1.21,13.85,6.33,28.25,11.37,43.06,14.98,18.93,4.61,37.72-.95,55.14-8.31,15.35-6.48,28-16.54,39.89-28,7.02-6.76,14.52-12.61,23.14-17.22,27.35-14.61,59.95-17.25,90.4-16.32,5.37.16,10.74.46,16.1.86,1.6.12,1.6-2.38,0-2.5h0Z"/>
      </g>
    </g>
  </g>
</svg>