<?xml version="1.0" encoding="UTF-8"?>
<svg xmlns="http://www.w3.org/2000/svg" viewBox="0 0 595.28 595.28">
  <defs>
    <style>
      .cls-1 {
        fill: #e5e4e4;
      }

      .cls-1, .cls-2 {
        stroke: #fff;
        stroke-miterlimit: 10;
        stroke-width: .5px;
      }

      .cls-2 {
        fill: #2f2f30;
      }

      .cls-3 {
        fill: #5f4e49;
        opacity: 0;
      }
    </style>
  </defs>
  <g id="fond_transparent">
    <rect class="cls-3" width="596.32" height="596.32"/>
  </g>
  <g id="Carroserie">
    <g id="noire">
      <g>
        <path class="cls-1" d="M86.34,322.48s-23.89,6.61-9.34,44.14c0,0,14.1,31.57,51.74,36.22s-.55-70.81-18.94-75.41-23.47-4.95-23.47-4.95Z"/>
        <g>
          <path class="cls-2" d="M465.58,259.29h0,0c-1.53-6.15-2.31-10.03-5.86-15.55-4.27-6.62-15.6-17.9-23.07-20.33-2.04-1-4.09-1.9-6.17-2.7-4.91-3.63-9.28-8.87-15.42-12.16-11.11-5.94-30.25-7.98-41.4-1.66-2.79,1.58-5.18,4.3-7.48,5.77,1.98.38,2.22.36,2.72.37l1.23-.43c2.17-1.83,4.73-3.26,7.67-4.3l.21-.93c14.67-3.86,33.27-1.61,44.09,10.12l1.45.51-.36.78c4.3,5.2,4.13,8.6.8,14.28-.76,3.42-.65,7.02.34,10.79l-.08,1.62c-.47,12.38-1.99,29.42-12.75,37.55-5.19,3.92-13.53,6.15-19.86,7.64-12.12,2.84-24.1,4.92-36.45,5.6l-1.46.05-1.39-.69c-14.31.24-29.5.43-42.56-6.24h-1.57s-.85-1.51-.85-1.51c-5.4-4.95-9.03-10.27-12.74-16.49l.09-.12c1.12.65,15.61-.07,17.56-.43,12.41-2.33,25.19-7.47,30.66-19.64.14-1.13.22-2.38.39-3.47.37-1.39.44-1.2-.77,0-.55,1.13-1.24,1.44-1.54,1.93l-.18.2c-5.18,6.7-11.08,12.09-18.73,15.36l-.73.24c-3.51,1.03-7.94,2.05-10.44,2.33-5.95.68-9.23.78-15.24.35-.86-.06-1.6.5-2.58.34-2.22-.37-3.87-4.18-5.34-5.88-1.03-1.2-2.45-2.68-3.46-3.68-.76-.76-1.73-1.64-2.7-2.31-.15.75.52,1.38-.57,1.55-2.25.35-5.67-.1-8.13,0l-2.28.07c-3.82.55-7.52,1.56-11.11,3.03-2.61.83-3.53.38-2.77-1.36,2.5-5.18,3.76-12.36-1.96-15.95-2.07-.62-3.41-1.16-4.04-1.59-.57-.13-3.31-1.8-4.53-2.22-5.63-1.9-11.99-4.24-18.12-2.5-5.8,1.65-6.87,12.9-9.64,17.46-25.52,14.56-51.98,27.3-78.41,40.09-.83.23-1.48.48-1.93.77l-34.25,16.68-17.51,9.87c-1.74.54-2.32.66.68,1.28,2.19.77,2.57.93,4.36,1.72,7.52,3.36,17.88,11.88,23.19,18.27l.13-.05v.1c6.5,7.82,12.11,19.08,14.65,28.93h0c.51,1.96,1.93,6.99,1.93,8.68v11.57c-.18,1.28-2.84,9.44-2.54,9.86.54.76,5.27,1.07,6.4,1.14,3.25.18,9.28.33,12.34-.39l.94-.18c.6-.16.59.41,1.03.13,10.07-44.29,63.74-77.69,104.87-51.26l.12.04c8.87,5.54,14.54,16.26,17.75,26.14l1.04.82,146.58-41.27c1-.24.75-.12,1.43-.67,4.85-25.23,23.28-46.06,48.3-52.87.07-.45.03-.71.02-2.01.69-6.49-2.36-16.69-3.98-23.19Z"/>
          <path class="cls-2" d="M339.58,282.86l-.25.79-3.42.71c-9.09.21-18.02,1.28-26.78,3.21-.27.61-.53,1.23-.79,1.85-4.77-2.86-9.97-10.16-13.39-15.15-.38-.56-1.14-2.12-1.65-2.97-.85-.57-.16-1.43.77-1.54.26,0,.51,0,.77,0,.06.22,1.39.02,1.45.07.55.4,10.62.8,12.23.69,12.85-.87,27.18-6.96,33.49-18.39.12-.22.92-.44,1.04-.89-1.29,10.51-.19,21.43-3.47,31.63Z"/>
          <path class="cls-2" d="M273.62,251.23c2.72,1.59,5.52,3.6,8.1,5.4.89,1,.96,1.6.2,1.82l-9.7.07c.24.15.07.3-.52.43-5,.27-7.65,1.76-11.86,3.06-.92.28-2.47.1-3.57.79-1.18-2.8.92-4.85,1.44-7.23,1.55-6.99-.55-10.59-7.1-12.77l.26-.44c5.22,1.2,8.27,1.47,13.5,3.86l9.26,5.01Z"/>
          <path class="cls-2" d="M368.89,213.04l2.44-2.57c.95-.63,4.36-2.62,4.7-2.88.17-.13,1.07-.54,1.8-.86,3.23-1.42,11.18-1.94,14.77-1.79,12.05.5,23.45,3.83,31.06,13.11,1.44,1.75,3.8,5.69,3.89,7.92s-2.54,6.13-3.08,8.52c-.68,3.01.03,6.25-.04,9.41-1.01-4.82-2.28-9.39-5.41-13.3-7.82-9.76-37.83-17.17-50.14-17.56Z"/>
          <path class="cls-2" d="M249.94,248.31c1.27.98,1.19,3.38.91,4.96-.02.13-.67,1.74-.86,2.28-.23.64-2.21,4.87-2.47,4.94-.49.14-2.36.05-3-.04-2.55-.33-13.38-3.02-15.74-3.93-.19-.07-2.6-1.54-2.63-1.7-.42-1.97,4.62-9.99,7.26-10.46,3.82-.68,13.45,1.54,16.54,3.93Z"/>
        </g>
      </g>
    </g>
  </g>
</svg>