<?xml version="1.0" encoding="UTF-8"?>
<svg xmlns="http://www.w3.org/2000/svg" viewBox="0 0 595.28 595.28">
  <defs>
    <style>
      .cls-1 {
        fill: #0e0e0e;
      }

      .cls-1, .cls-2, .cls-3 {
        stroke: #000;
        stroke-miterlimit: 10;
        stroke-width: .5px;
      }

      .cls-2 {
        fill: #3763ad;
      }

      .cls-4 {
        fill: #5f4e49;
        opacity: 0;
      }

      .cls-3 {
        fill: #202020;
      }

      .cls-5 {
        opacity: .5;
      }
    </style>
  </defs>
  <g id="fond_transparent">
    <rect class="cls-4" width="596.32" height="596.32"/>
  </g>
  <g id="roue_devant_v2">
    <g id="roue_avant_3_-_copie">
      <g id="bleu_foncé">
        <g id="roue_2">
          <g>
            <path class="cls-1" d="M451.44,387.01s-35.8-4.23-31.5-46.75,46.81-56.04,46.81-56.04c0,0,31.67-8.31,45.7,15.65,4.9,8.36-13.15-7.26-41.42-2.22-8.47,1.51-28.66,28.03-31.47,37.97-6.44,22.84,11.87,51.4,11.87,51.4Z"/>
            <path class="cls-3" d="M505.34,291.76s-34.31-15.61-63.58,29.23c0,0-14.53,23.81-8.03,43.24,0,0,5.84,17.54,16.56,22.61,0,0,30.28,8.29,56.89-27.89,26.61-36.17,2.2-65.87-1.84-67.19ZM506.32,344.48c-1.71,3.42-3.79,6.63-6.12,9.59-5.44,6.89-12.33,12.38-19.53,15.77-1.38.65-2.78,1.22-4.18,1.71-5.73,2.01-11.52,2.65-16.8,1.55-8.9-1.85-14.5-8.22-16.15-16.77-1.13-5.85-.41-12.71,2.39-19.85.54-1.39,1.16-2.79,1.86-4.19,8.43-16.86,25.59-28.79,40.6-29.15,1.27-.03,2.52.03,3.75.17.77.09,1.54.2,2.29.35,3.65.76,6.74,2.29,9.24,4.41,8.56,7.26,10.09,21.56,2.66,36.41Z"/>
          </g>
          <g>
            <path class="cls-2" d="M454.9,321.43c-14.27,17.06-15.92,38.49-3.69,47.86,12.23,9.37,33.72,3.13,47.99-13.93,14.27-17.06,15.92-38.49,3.69-47.86-12.23-9.37-33.72-3.13-47.99,13.93ZM466.95,326.77s-3.66-5.49-3.66-8.94c0-3.45,6.07-5.2,6.07-5.2,11.1-3.81,18.18,1.28,18.18,1.28-3.88,12.39-11.14,18.43-11.14,18.43-5.33-.85-9.45-5.57-9.45-5.57ZM447,347.73c3.51-11.49,13.17-19.3,13.17-19.3,9.67,3.3,10.88,10.59,10.88,10.59-4.33,5.69-11.68,10.35-11.68,10.35,0,0-7.8,4.22-11.21,4.45-3.41.23-1.15-6.08-1.15-6.08ZM473.17,368.24c-2.09,3.57-6.73,1.42-6.73,1.42-8.84-3.28-9.93-13.12-9.93-13.12,9.78-10.25,17.72-11.77,17.72-11.77,2.62,4.34,2.19,11.88,2.19,11.88,0,0-1.17,8.03-3.25,11.59ZM503.95,340.89c2.12,2.01-3.06,7.01-3.06,7.01-9.08,9.5-19.48,11.18-19.48,11.18-3.59-9.76.18-18.04.18-18.04,6-3,13.12-2.95,13.12-2.95,0,0,7.12.79,9.24,2.8ZM500.66,332.63c-11.97,4.36-17.64.88-17.64.88,1-6.16,5.74-13.68,5.74-13.68,0,0,5.47-7.56,8.85-9.92,3.37-2.36,4.89,2.82,4.89,2.82,3.36,9.03-1.84,19.9-1.84,19.9Z"/>
            <g>
              <path class="cls-2" d="M469.83,329.36s7-6.23,10.56-17.91c0,0,4.34.48,7.14,2.46,0,0-3.3,11.46-11.14,18.43,0,0-3.68-.64-6.56-2.99Z"/>
              <path class="cls-2" d="M459.17,329.3l.94-.82s9.02,2.36,10.94,10.54c0,0-3.95,5.43-11.68,10.35,0,0-5.77,3.09-9.45,4.15-3.68,1.06-4.05-.72-3.44-3.85,0,0,4.79-2.13,5.75-2.77,0,0,7.54-4.85,11.68-10.35,0,0-.76-4.01-4.74-7.25Z"/>
              <path class="cls-2" d="M468.76,346.96s3.13-1.69,5.48-2.19c0,0,2.65,3.84,2.2,11.61,0,0-.9,7.18-2.89,11.15-1.99,3.97-5.26,2.84-8.59,1.48,0,0-1.4-.76-1.99-1.22,0,0,1.94-.16,3.07-2.02,1.13-1.86,2.75-7.5,3.25-11.59,0,0,.32-3.16-.53-7.22Z"/>
              <path class="cls-2" d="M480.24,354.74s8.86-3.31,15.38-11.43c0,0,2.8-3.47,1.19-4.89,0,0,5.7.86,7.29,2.63s-2.65,6.26-2.65,6.26c0,0-5.62,6.41-12.85,9.35,0,0-4.47,2.07-7.2,2.41,0,0-1.07-3.05-1.17-4.34Z"/>
              <path class="cls-2" d="M483.26,332.35s5.21-.14,10.27-2.18c0,0,4.75-9.7,2.24-18.68,0,0,2.01-2.13,3.3-2.18s2.38.56,3.35,3.16c0,0,2.37,5.38.54,13.11,0,0-1.34,5.49-2.29,7.05,0,0-10.86,4.18-17.64.88l.23-1.16Z"/>
            </g>
            <path class="cls-2" d="M463.91,336.55s4.13,1.58,7.14,2.46"/>
            <line class="cls-2" x1="493.52" y1="330.17" x2="500.66" y2="332.63"/>
          </g>
          <g>
            <path class="cls-5" d="M469.83,329.36s7-6.23,10.56-17.91c0,0,4.34.48,7.14,2.46,0,0-3.3,11.46-11.14,18.43,0,0-3.68-.64-6.56-2.99Z"/>
            <path class="cls-5" d="M459.17,329.3l.94-.82s9.02,2.36,10.94,10.54c0,0-3.95,5.43-11.68,10.35,0,0-5.77,3.09-9.45,4.15-3.68,1.06-4.05-.72-3.44-3.85,0,0,4.79-2.13,5.75-2.77,0,0,7.54-4.85,11.68-10.35,0,0-.76-4.01-4.74-7.25Z"/>
            <path class="cls-5" d="M468.76,346.96s3.13-1.69,5.48-2.19c0,0,2.65,3.84,2.2,11.61,0,0-.9,7.18-2.89,11.15s-5.26,2.84-8.59,1.48c0,0-1.4-.76-1.99-1.22,0,0,1.94-.16,3.07-2.02,1.13-1.86,2.75-7.5,3.25-11.59,0,0,.32-3.16-.53-7.22Z"/>
            <path class="cls-5" d="M480.24,354.74s8.86-3.31,15.38-11.43c0,0,2.8-3.47,1.19-4.89,0,0,5.7.86,7.29,2.63s-2.65,6.26-2.65,6.26c0,0-5.62,6.41-12.85,9.35,0,0-4.47,2.07-7.2,2.41,0,0-1.07-3.05-1.17-4.34Z"/>
            <path class="cls-5" d="M483.26,332.35s5.21-.14,10.27-2.18c0,0,4.75-9.7,2.24-18.68,0,0,2.01-2.13,3.3-2.18,1.29-.05,2.38.56,3.35,3.16,0,0,2.37,5.38.54,13.11,0,0-1.34,5.49-2.29,7.05,0,0-10.86,4.18-17.64.88l.23-1.16Z"/>
          </g>
        </g>
        <g id="roue_2-2" data-name="roue_2">
          <g>
            <path class="cls-1" d="M181.8,411.67c1.77-7.85,5.77-15.78,11.85-22.75,1.18-1.35,2.43-2.68,3.77-3.95,16.08-15.29,37.98-19.09,52.26-10.1,1.21.76,2.35,1.62,3.45,2.57,6.02-10.48,9.57-18.04,8.35-19.65-4.96-6.52-34.7-28.17-70.55-7.78-35.86,20.39-40.73,48.86-40.73,48.86-15.8,64.56,42.7,70.19,42.7,70.19,0,0,5.09-7.25,12.52-18.09-6.36-1.14-12.11-4.01-16.54-8.67-7.47-7.85-9.66-19.16-7.08-30.64Z"/>
            <path class="cls-3" d="M274.49,385.24s-3.55-24.62-20.15-32.95c0,0-33.28-11.97-69.03,22.47,0,0-24.39,25.53-21.59,57.11,0,0,3.32,38.37,33.58,37.33,0,0,40.5,1.39,63.03-32.83,0,0,18.04-23.7,14.16-51.13ZM246.34,436.91c-3.26,3.1-6.77,5.72-10.4,7.87-8.45,4.99-17.58,7.38-25.99,6.99-8.24-.38-15.78-3.4-21.3-9.2-7.47-7.85-9.66-19.16-7.08-30.64,1.77-7.85,5.77-15.78,11.85-22.75,1.18-1.35,2.43-2.68,3.77-3.95,16.08-15.29,37.98-19.09,52.26-10.1,1.96,1.24,3.79,2.71,5.43,4.44,3.06,3.22,5.23,7.03,6.56,11.19,4.54,14.26-.95,32.68-15.1,46.14Z"/>
          </g>
          <g>
            <path class="cls-2" d="M197.27,384.96c-18.56,17.4-22.64,43.21-9.11,57.63,13.53,14.42,39.54,12.01,58.1-5.4,18.56-17.4,22.64-43.21,9.11-57.63-13.53-14.42-39.54-12.01-58.1,5.4ZM210.98,394.42s-3.78-7.6-3.44-11.82c.34-4.23,7.69-4.89,7.69-4.89,13.49-1.97,21.36,5.98,21.36,5.98-5.82,14.21-14.99,19.84-14.99,19.84-6.21-2.34-10.61-9.11-10.61-9.11ZM185.33,415.21c5.29-13.2,17.48-20.41,17.48-20.41,11.1,6.39,11.81,15.59,11.81,15.59-5.68,5.91-14.83,9.82-14.83,9.82,0,0-9.64,3.27-13.7,2.72-4.05-.55-.76-7.72-.76-7.72ZM214.23,446.64c-2.82,3.85-8.09.11-8.09.11-10.13-6.15-10.43-18.46-10.43-18.46,12.58-10.16,22.11-10.09,22.11-10.09,2.67,5.94,1.41,15.05,1.41,15.05,0,0-2.18,9.54-5,13.39ZM253.32,420.66c2.31,2.97-4.31,7.83-4.31,7.83-11.68,9.41-24.13,8.94-24.13,8.94-3.27-12.8,2.01-22.02,2.01-22.02,7.39-2.21,15.8-.43,15.8-.43,0,0,8.33,2.7,10.64,5.67ZM250.25,409.77c-14.58,2.43-20.93-3.21-20.93-3.21,1.8-7.29,8.14-15.34,8.14-15.34,0,0,7.22-7.92,11.44-9.98,4.22-2.06,5.49,4.63,5.49,4.63,3.08,11.85-4.15,23.9-4.15,23.9Z"/>
            <g>
              <path class="cls-2" d="M214.13,398.28s8.89-5.92,14.26-19.34c0,0,5.08,1.64,8.2,4.74,0,0-5.03,13.21-14.99,19.84,0,0-4.29-1.67-7.46-5.25Z"/>
              <path class="cls-2" d="M201.54,395.62l1.19-.78s10.43,5.07,11.89,15.54c0,0-5.2,5.69-14.83,9.82,0,0-7.13,2.38-11.58,2.79s-4.71-1.86-3.69-5.54c0,0,5.88-1.44,7.07-1.99,0,0,9.4-4.11,14.83-9.82,0,0-.5-5.08-4.88-10.02Z"/>
              <path class="cls-2" d="M211.12,419.54s3.87-1.3,6.69-1.35c0,0,2.75,5.34,1.45,14.73,0,0-1.77,8.56-4.52,12.94-2.75,4.38-6.5,2.2-10.3-.27,0,0-1.58-1.27-2.23-1.97,0,0,2.3.27,3.83-1.73s4-8.51,5-13.39c0,0,.69-3.78.09-8.96Z"/>
              <path class="cls-2" d="M223.92,431.85s10.8-1.9,19.31-10.25c0,0,3.65-3.57,1.89-5.69,0,0,6.65,2.43,8.36,4.99s-3.75,7.01-3.75,7.01c0,0-7.28,6.48-16.12,8.32,0,0-5.49,1.45-8.74,1.2,0,0-.97-3.99-.95-5.59Z"/>
              <path class="cls-2" d="M229.7,405.2s6.17,1.09,12.35-.18c0,0,6.58-10.71,4.5-22.3,0,0,2.58-2.12,4.12-1.87s2.75,1.27,3.65,4.68c0,0,2.26,7.15-.67,16.16,0,0-2.12,6.39-3.4,8.07,0,0-13.25,2.48-20.93-3.21l.39-1.36Z"/>
            </g>
            <path class="cls-2" d="M206.42,405.64s4.72,2.94,8.2,4.74"/>
            <line class="cls-2" x1="242.05" y1="405.02" x2="250.25" y2="409.77"/>
          </g>
          <g>
            <path class="cls-5" d="M214.13,398.28s8.89-5.92,14.26-19.34c0,0,5.08,1.64,8.2,4.74,0,0-5.03,13.21-14.99,19.84,0,0-4.29-1.67-7.46-5.25Z"/>
            <path class="cls-5" d="M201.54,395.62l1.19-.78s10.43,5.07,11.89,15.54c0,0-5.2,5.69-14.83,9.82,0,0-7.13,2.38-11.58,2.79s-4.71-1.86-3.69-5.54c0,0,5.88-1.44,7.07-1.99,0,0,9.4-4.11,14.83-9.82,0,0-.5-5.08-4.88-10.02Z"/>
            <path class="cls-5" d="M211.12,419.54s3.87-1.3,6.69-1.35c0,0,2.75,5.34,1.45,14.73,0,0-1.77,8.56-4.52,12.94-2.75,4.38-6.5,2.2-10.3-.27,0,0-1.58-1.27-2.23-1.97,0,0,2.3.27,3.83-1.73s4-8.51,5-13.39c0,0,.69-3.78.09-8.96Z"/>
            <path class="cls-5" d="M223.92,431.85s10.8-1.9,19.31-10.25c0,0,3.65-3.57,1.89-5.69,0,0,6.65,2.43,8.36,4.99s-3.75,7.01-3.75,7.01c0,0-7.28,6.48-16.12,8.32,0,0-5.49,1.45-8.74,1.2,0,0-.97-3.99-.95-5.59Z"/>
            <path class="cls-5" d="M229.7,405.2s6.17,1.09,12.35-.18c0,0,6.58-10.71,4.5-22.3,0,0,2.58-2.12,4.12-1.87s2.75,1.27,3.65,4.68c0,0,2.26,7.15-.67,16.16,0,0-2.12,6.39-3.4,8.07,0,0-13.25,2.48-20.93-3.21l.39-1.36Z"/>
          </g>
        </g>
      </g>
    </g>
  </g>
</svg>