<?xml version="1.0" encoding="UTF-8"?>
<svg xmlns="http://www.w3.org/2000/svg" viewBox="0 0 595.28 595.28">
  <defs>
    <style>
      .cls-1 {
        fill: #fff;
      }

      .cls-2 {
        fill: #ca79b0;
      }

      .cls-3 {
        fill: #5f4e49;
        opacity: 0;
      }
    </style>
  </defs>
  <g id="fond_transparent">
    <rect class="cls-3" width="596.32" height="596.32"/>
  </g>
  <g id="covering">
    <g id="covering_1">
      <g id="gris">
        <g id="rose">
          <path class="cls-2" d="M127.44,362.24c26.39-15.21,53.83-29.12,82.76-38.84,18.32-6.15,37.54-10.76,56.96-10.95,6.85-.07,13.72.44,20.45,1.73,6.02,1.16,11.68,3.18,17.48,5.1,11.81,3.89,24.05,6.48,36.49,7.14,8.16.43,16.36.02,24.43-1.29,7.21-1.18,14.48-2.56,21.45-4.78,7.41-2.36,14.41-5.82,20.57-10.6,5.12-3.98,9.64-8.63,14.13-13.29,10.73-11.14,22.81-20.54,36.81-27.25,2.71-1.3,5.47-2.49,8.27-3.59.74-.29.42-1.5-.33-1.21-13.87,5.44-26.77,13.34-37.78,23.41-10.25,9.37-18.7,20.49-31.31,26.97-6.93,3.56-14.45,5.68-22.06,7.25-8,1.65-16.05,2.98-24.23,3.24-13.88.44-27.74-1.68-41.03-5.62-6.47-1.91-12.72-4.47-19.3-6-6.4-1.48-12.97-2.23-19.54-2.42-18.44-.52-36.87,3.24-54.43,8.6-27.52,8.4-53.72,20.94-78.86,34.81-3.87,2.13-7.71,4.31-11.54,6.51-.7.4-.07,1.48.63,1.08h0Z"/>
        </g>
      </g>
      <g id="trait_blanc">
        <path class="cls-1" d="M121.02,352.96c28.53-14.81,57.86-28.52,88.44-38.57,18.9-6.21,38.57-11.26,58.52-12.19,12-.56,24.12.51,35.45,4.67,10.6,3.9,21.42,6.83,32.68,8.08,8.22.91,16.42.83,24.65.1,6.41-.57,12.82-1.32,19.1-2.76,7.28-1.66,14.38-4.25,20.82-8.05,6.82-4.01,12.67-9.36,17.61-15.51,4.29-5.33,8.11-11.01,13.23-15.61,6.56-5.9,14.66-10.14,23.05-12.79,3.2-1.01,6.47-1.78,9.77-2.37,1.58-.28.91-2.69-.66-2.41-15.54,2.75-30.18,10.17-40.25,22.5-4.38,5.36-8.23,11.08-13.26,15.89-6,5.73-13.18,10.09-20.96,12.97-6.71,2.49-13.77,3.96-20.86,4.84-7.24.9-14.56,1.53-21.86,1.37-13.26-.28-26.35-2.94-38.82-7.37-5.21-1.85-10.31-3.64-15.76-4.64-6.43-1.19-12.98-1.63-19.51-1.55-18.95.23-37.78,4.48-55.84,9.96-29.11,8.83-57.1,21.3-84.26,34.89-4.19,2.1-8.37,4.23-12.53,6.39-1.43.74-.17,2.9,1.26,2.16h0Z"/>
      </g>
    </g>
  </g>
</svg>