<?xml version="1.0" encoding="UTF-8"?>
<svg xmlns="http://www.w3.org/2000/svg" viewBox="0 0 595.28 595.28">
  <defs>
    <style>
      .cls-1 {
        fill: #222;
      }

      .cls-1, .cls-2, .cls-3 {
        stroke: #000;
        stroke-miterlimit: 10;
      }

      .cls-1, .cls-3 {
        stroke-width: .5px;
      }

      .cls-2 {
        fill: #313030;
        stroke-width: .75px;
      }

      .cls-3 {
        fill: #676868;
      }

      .cls-4 {
        fill: #5f4e49;
        opacity: 0;
      }
    </style>
  </defs>
  <g id="fond_transparent">
    <rect class="cls-4" width="596.32" height="596.32"/>
  </g>
  <g id="roue_devant_v2">
    <g id="roue_avant_1_-_copie">
      <g id="Roue_1">
        <g>
          <path class="cls-3" d="M188.86,465.04s-58.48-5.66-42.68-70.22c0,0,4.87-28.47,40.73-48.86,35.86-20.39,65.6,1.26,70.55,7.78s-68.6,111.3-68.6,111.3Z"/>
          <path class="cls-2" d="M250.55,347.97s-33.28-11.97-69.03,22.47c0,0-24.39,25.53-21.59,57.11,0,0,3.32,38.37,33.58,37.33,0,0,40.5,1.39,63.03-32.83,0,0,18.04-23.7,14.16-51.13,0,0-3.55-24.62-20.15-32.95Z"/>
          <path class="cls-3" d="M202.5,367.21c.87.28,1.77.48,2.6.84,2.24.95,2.84,3.31,1.21,5.03-1.08,1.14-2.28,2.22-3.57,3.15-4.03,2.89-8.1,5.77-11.32,9.49-2.61,3.02-5.04,6.21-7.26,9.5-2.09,3.09-3.73,6.46-5.72,9.62-1.22,1.94-2.66,3.77-4.15,5.53-.91,1.08-2.21,1.71-3.74,1.12-1.65-.63-2.06-2.08-2.18-3.55-.34-4.34,1.02-8.34,2.77-12.21,3.29-7.27,7.97-13.68,13.63-19.43,3-3.05,6.18-5.92,10.1-7.9,2.36-1.19,4.9-1.61,7.62-1.19Z"/>
          <path class="cls-3" d="M231.22,443.09c-1.35.08-3,.35-4.62.25-2.83-.18-4.16-2.64-2.55-4.89,1.12-1.56,2.57-2.99,4.15-4.14,4.47-3.25,8.83-6.61,12.03-11.07,2.57-3.59,4.84-7.37,7.15-11.13,2.07-3.37,3.91-6.86,6-10.22,1.37-2.19,3.86-1.95,5.11.18,1.83,3.14,1.51,6.39.68,9.74-1.17,4.7-3.14,9.09-5.86,13.17-4.37,6.55-9.94,11.97-16.97,15.9-1.5.84-3.18,1.38-5.11,2.2Z"/>
          <path class="cls-1" d="M232.56,413.04c.64,3.5-1.8,6.91-5.23,7.77-3.77.95-7.29-.84-7.9-4.48-.48-2.86,1.38-6.42,5.57-7.28,3.49-.72,7.01.98,7.57,3.99Z"/>
          <path class="cls-1" d="M222.12,397.35c-.79-3.35,1.56-7,5.13-7.72,4.31-.87,7.07.74,7.84,3.87.87,3.56-1.85,7.08-5.45,7.87-3.76.82-6.78-1.07-7.52-4.02Z"/>
          <path class="cls-1" d="M205.45,420.8c-3.84,1.03-7.06-1.16-7.61-4.38-.54-3.18,1.44-6.37,5.2-7.28,4.14-.99,7.17,1.03,7.9,3.66.86,3.08-1.73,7.5-5.49,7.99Z"/>
          <path class="cls-1" d="M202.26,397.53c-.89-4.05,1.38-6.99,4.55-7.78,4.78-1.2,7.53.66,8.27,3.45,1,3.75-1.55,7.26-5.6,8.23-3.29.79-6.87-1.36-7.23-3.89Z"/>
        </g>
        <g>
          <path class="cls-3" d="M452.47,379.25s-35.8-4.23-31.5-46.75,46.81-56.04,46.81-56.04c0,0,31.67-8.31,45.7,15.65s-61.01,87.14-61.01,87.14Z"/>
          <path class="cls-2" d="M506.37,284s-34.31-15.61-63.58,29.23c0,0-14.53,23.81-8.03,43.24,0,0,5.84,17.54,16.56,22.61,0,0,30.28,8.29,56.89-27.89s2.2-65.87-1.84-67.19Z"/>
          <path class="cls-3" d="M470.76,294.93c.53.25,1.09.45,1.59.75,1.35.81,1.52,2.49.32,3.58-.8.73-1.66,1.4-2.57,1.96-2.84,1.75-5.7,3.5-8.1,5.88-1.94,1.93-3.78,4-5.5,6.15-1.62,2.02-2.97,4.26-4.52,6.33-.96,1.27-2.04,2.45-3.15,3.59-.68.69-1.57,1.05-2.5.54-1-.55-1.13-1.58-1.07-2.61.17-3.04,1.4-5.74,2.88-8.33,2.76-4.85,6.33-9.01,10.47-12.65,2.19-1.93,4.49-3.72,7.17-4.85,1.62-.68,3.28-.81,4.98-.34Z"/>
          <path class="cls-3" d="M486.25,366.25c-1.01.12-2.25.37-3.45.39-2.11.03-3.03-1.45-1.77-2.94.87-1.03,1.99-2,3.19-2.8,3.41-2.26,6.75-4.58,9.24-7.53,2.01-2.37,3.8-4.86,5.61-7.32,1.63-2.21,3.09-4.49,4.73-6.69,1.07-1.44,2.93-1.41,3.8-.14,1.29,1.88.96,3.93.26,6.06-.99,3-2.57,5.85-4.7,8.53-3.42,4.32-7.71,7.99-13.05,10.8-1.14.6-2.4,1.02-3.87,1.63Z"/>
          <path class="cls-1" d="M491.76,331.07c1.21,2.17.38,4.97-1.7,6.32-2.28,1.48-5,1.1-6.23-1.17-.97-1.78-.55-4.55,2.03-6.07,2.14-1.27,4.85-.94,5.9.92Z"/>
          <path class="cls-1" d="M482.43,320.43c-1.28-2.03-.56-4.98,1.64-6.26,2.65-1.55,4.84-1.11,6.06.78,1.38,2.15.38,5.1-1.81,6.43-2.29,1.4-4.72.83-5.88-.95Z"/>
          <path class="cls-1" d="M474.47,341.89c-2.3,1.55-4.93.84-6.02-1.17-1.08-1.98-.49-4.53,1.78-5.98,2.51-1.6,4.97-.95,6.05.63,1.27,1.84.56,5.35-1.81,6.52Z"/>
          <path class="cls-1" d="M466.97,324.29c-1.51-2.47-.68-4.93,1.24-6.17,2.88-1.87,5.13-1.27,6.24.4,1.51,2.25.62,5.14-1.83,6.7-1.99,1.26-4.84.66-5.65-.93Z"/>
        </g>
      </g>
    </g>
  </g>
</svg>