<?xml version="1.0" encoding="UTF-8"?>
<svg xmlns="http://www.w3.org/2000/svg" viewBox="0 0 595.28 595.28">
  <defs>
    <style>
      .cls-1, .cls-2, .cls-3, .cls-4, .cls-5 {
        stroke: #000;
        stroke-miterlimit: 10;
      }

      .cls-1, .cls-2, .cls-4, .cls-5 {
        stroke-width: .5px;
      }

      .cls-1, .cls-3 {
        fill: none;
      }

      .cls-2, .cls-6 {
        opacity: .1;
      }

      .cls-3 {
        stroke-width: .25px;
      }

      .cls-7 {
        fill: #fff;
        opacity: .3;
      }

      .cls-8 {
        fill: #5f4e49;
        opacity: 0;
      }

      .cls-4 {
        opacity: .5;
      }

      .cls-5 {
        fill: #848585;
      }
    </style>
  </defs>
  <g id="fond_transparent">
    <rect class="cls-8" width="596.32" height="596.32"/>
  </g>
  <g id="ombre_et_contour">
    <g>
      <path class="cls-5" d="M101.2,390.86c3.23.28,4.21-1.05,5.31-3.76,5.81-14.4-7.06-49.53-24.11-52.08-4.72-.7-5.18,1.81-2.03,4.73s6.69,3.86,10.01,7.83c7.75,9.26,10.84,21.1,9.66,33.05-.29,2.95-2.2,6.95-.17,9.46l1.33.77Z"/>
      <path class="cls-4" d="M339.58,282.86l-.25.79-3.42.71c-9.09.21-18.02,1.28-26.78,3.21-.27.61-.53,1.23-.79,1.85-4.77-2.86-9.97-10.16-13.39-15.15-.38-.56-1.14-2.12-1.65-2.97-.85-.57-.16-1.43.77-1.54.26,0,.51,0,.77,0,.06.22,1.39.02,1.45.07.55.4,10.62.8,12.23.69,12.85-.87,27.18-6.96,33.49-18.39.12-.22.92-.44,1.04-.89-1.29,10.51-.19,21.43-3.47,31.63Z"/>
      <path class="cls-4" d="M368.89,213.04l2.44-2.57c.95-.63,4.36-2.62,4.7-2.88.17-.13,1.07-.54,1.8-.86,3.23-1.42,11.18-1.94,14.77-1.79,12.05.5,23.45,3.83,31.06,13.11,1.44,1.75,3.8,5.69,3.89,7.92s-2.54,6.13-3.08,8.52c-.68,3.01.03,6.25-.04,9.41-1.01-4.82-2.28-9.39-5.41-13.3-7.82-9.76-37.83-17.17-50.14-17.56Z"/>
      <path class="cls-7" d="M231.86,267.91c1.41-.23,3.3-.38,2.74,1.56-1.02,3.49-22.93,13.34-24.53,21.38-1.16,5.82,8.7,6.63.41,11.6-11.69,4.6-23.57,8.64-35.2,13.4s-40.92,20.38-51.49,21.02c-4.99.3-10.67-1.56-5.74-6.9,32.43-18.04,64.07-37.62,97.2-54.39,3.95-2,12.74-7.05,16.62-7.68Z"/>
      <path class="cls-7" d="M425.07,266.7c1.69-.29,1.35,3.76,1.25,4.74-1.98,18.71-25.72,24.09-40.76,27.9-21.64,5.48-43.5,8.89-64.87.29-.96-.39-7.26-3.07-7.34-3.47-.58-2.74,6.71.73,7.86,1.02,23.82,6.06,46.78,3.03,70.22-3.16,14.02-3.7,24.69-6.61,30.59-20.71.57-1.36,1.62-6.37,3.05-6.62Z"/>
      <path class="cls-2" d="M469.57,282.47c0,1.29.04,1.56-.02,2.01-25.03,6.81-43.45,27.64-48.3,52.87-.68.54-.44.42-1.43.67l-146.58,41.27-1.04-.82c-3.2-9.89-8.88-20.61-17.75-26.14l-.12-.04c-41.13-26.43-94.79,6.97-104.87,51.26-.44.28-.44-.29-1.03-.13l-.94.18c-3.06.71-9.09.57-12.34.39-.61-.09-1.05-.31-1.3-.66,1.06-5.47.35-10.83-.61-16.38-.8-4.64-1.8-10.23-3.87-14.2-2.55-9.85-8.16-21.11-14.66-28.93l.02-.84c8.48-3.7,17.1-7.25,25.86-10.66l.67-.68c37.23-15.17,75.25-30.14,112.3-43.93,2.94-.98,5.91-1.9,8.93-2.57,10.71-2.37,12.24.6,15.27,10.02,6.79,12.46,20.58,18.45,33.73,21.74,4.47,1.31,5.83,4.24,6.93,8.68,2.46,9.67,4.19,19.28,5.21,28.8,14.6,3.34,30.6-1.25,44.82-5.54,11.67-3.51,23.41-7.64,34.35-12.75,3.31-25.98,14.81-47.42,35.38-63.55,8.04-6.31,17.53-11.93,27.4-13.24,1.62,6.5,4.67,16.7,3.98,23.19Z"/>
      <path class="cls-6" d="M273.62,251.07c2.72,1.59,5.52,3.6,8.1,5.4.89,1,.96,1.6.2,1.82l-9.7.07c.24.15.07.3-.52.43-5,.27-7.65,1.76-11.86,3.06-.92.28-2.47.1-3.57.79-1.18-2.8.92-4.85,1.44-7.23,1.55-6.99-.55-10.59-7.1-12.77l.26-.44c5.22,1.2,8.27,1.47,13.5,3.86l9.26,5.01Z"/>
      <path class="cls-6" d="M249.94,248.31c1.27.98,1.19,3.38.91,4.96-.02.13-.67,1.74-.86,2.28-.23.64-2.21,4.87-2.47,4.94-.49.14-2.36.05-3-.04-2.55-.33-13.38-3.02-15.74-3.93-.19-.07-2.6-1.54-2.63-1.7-.42-1.97,4.62-9.99,7.26-10.46,3.82-.68,13.45,1.54,16.54,3.93Z"/>
      <path class="cls-1" d="M469.57,282.47c0,1.29.04,1.56-.02,2.01-25.03,6.81-43.45,27.64-48.3,52.87-.68.54-.44.42-1.43.67l-146.58,41.27-1.04-.82c-3.2-9.89-8.88-20.61-17.75-26.14l-.12-.04c-41.13-26.43-94.79,6.97-104.87,51.26-.44.28-.44-.29-1.03-.13l-.94.18c-3.06.71-9.09.57-12.34.39-.61-.09-1.05-.31-1.3-.66,1.06-5.47.35-10.83-.61-16.38-.8-4.64-1.8-10.23-3.87-14.2-2.55-9.85-8.16-21.11-14.66-28.93l.02-.84c8.48-3.7,17.1-7.25,25.86-10.66l.67-.68c37.23-15.17,75.25-30.14,112.3-43.93,2.94-.98,5.91-1.9,8.93-2.57,10.71-2.37,12.24.6,15.27,10.02,6.79,12.46,20.58,18.45,33.73,21.74,4.47,1.31,5.83,4.24,6.93,8.68,2.46,9.67,4.19,19.28,5.21,28.8,14.6,3.34,30.6-1.25,44.82-5.54,11.67-3.51,23.41-7.64,34.35-12.75,3.31-25.98,14.81-47.42,35.38-63.55,8.04-6.31,17.53-11.93,27.4-13.24,1.62,6.5,4.67,16.7,3.98,23.19Z"/>
      <path class="cls-3" d="M231.86,267.91c1.41-.23,3.3-.38,2.74,1.56-1.02,3.49-22.93,13.34-24.53,21.38-1.16,5.82,8.7,6.63.41,11.6-11.69,4.6-23.57,8.64-35.2,13.4s-40.92,20.38-51.49,21.02c-4.99.3-10.67-1.56-5.74-6.9,32.43-18.04,64.07-37.62,97.2-54.39,3.95-2,12.74-7.05,16.62-7.68Z"/>
      <path class="cls-3" d="M425.07,266.7c1.69-.29,1.35,3.76,1.25,4.74-1.98,18.71-25.72,24.09-40.76,27.9-21.64,5.48-43.5,8.89-64.87.29-.96-.39-7.26-3.07-7.34-3.47-.58-2.74,6.71.73,7.86,1.02,23.82,6.06,46.78,3.03,70.22-3.16,14.02-3.7,24.69-6.61,30.59-20.71.57-1.36,1.62-6.37,3.05-6.62Z"/>
    </g>
  </g>
</svg>