<?xml version="1.0" encoding="UTF-8"?>
<svg xmlns="http://www.w3.org/2000/svg" viewBox="0 0 595.28 595.28">
  <defs>
    <style>
      .cls-1 {
        fill: #1d1d1b;
      }

      .cls-2 {
        fill: #fff;
        stroke: #1d1d1b;
        stroke-miterlimit: 10;
        stroke-width: .5px;
      }

      .cls-3 {
        fill: #5f4e49;
        opacity: 0;
      }
    </style>
  </defs>
  <g id="fond_transparent">
    <rect class="cls-3" width="596.32" height="596.32"/>
  </g>
  <g id="covering">
    <g id="covering_2">
      <path id="base_blanche" class="cls-2" d="M312.06,291.35c1.75,11.59,3.16,24.37,3.91,38.19.73,13.53.73,26.13.27,37.64,30.54-8.6,61.08-17.2,91.63-25.8,1.95-6.68,3.82-15.44,4.31-25.79.58-12.31-.99-22.69-2.73-30.23-10.98,4.2-26.8,8.9-46.29,10.33-21.39,1.57-39.12-1.38-51.09-4.34Z"/>
      <g id="numéros">
        <path class="cls-1" d="M387.15,327.39c.29,3.32-.67,6.24-2.93,8.79-1.98,2.26-4.64,3.93-8.02,4.97-2.69.83-4.98,1.32-6.83,1.45-4.15.33-6.31.13-6.34-.59,0-.13.03-.33.09-.61.25-.86.6-2.15,1.07-3.85.12-.81.34-2.02.66-3.62.15-.56.43-.88.84-.99-.06.01.82.13,2.62.35,1.77.22,3.18.18,4.26-.1,3.47-.9,5.07-2.59,4.9-5.07-.14-1.97-1.8-2.6-5.06-1.88-.45.1-1.04.25-1.78.45s-1.24.33-1.48.39c-1.14.25-1.77.38-1.88.39-.84.09-1.28-.16-1.31-.74-.16-3.02-.14-4.93.05-5.73.13-.51.41-.81.86-.89.63-.12,1.57-.2,2.79-.26,1.21-.06,2.1-.14,2.68-.25.75-.14,1.36-.52,1.82-1.14.45-.61.65-1.32.6-2.13-.15-2.15-1.69-3-4.71-2.54-1.29.19-3.05.83-5.32,1.93-.09.03-.18.06-.25.07-.25.04-.47-.2-.67-.71-.08-.8-.18-1.71-.31-2.73-.03-.23-.11-.68-.24-1.35-.1-.54-.16-.98-.18-1.32-.05-1,1.46-1.95,4.44-2.83,2-.59,3.9-.98,5.72-1.18,2.84-.31,5.3.07,7.43,1.12,2.52,1.23,3.88,3.18,4.11,5.88.27,3.14-.8,5.8-3.28,7.99,1.6.27,2.9,1.01,3.9,2.2s1.58,2.68,1.73,4.49Z"/>
      </g>
    </g>
  </g>
</svg>