<?xml version="1.0" encoding="UTF-8"?>
<svg xmlns="http://www.w3.org/2000/svg" viewBox="0 0 595.28 595.28">
  <defs>
    <style>
      .cls-1 {
        fill: #1d1d1b;
      }

      .cls-2 {
        fill: #fff;
        stroke: #1d1d1b;
        stroke-miterlimit: 10;
        stroke-width: .5px;
      }

      .cls-3 {
        fill: #5f4e49;
        opacity: 0;
      }
    </style>
  </defs>
  <g id="fond_transparent">
    <rect class="cls-3" width="596.32" height="596.32"/>
  </g>
  <g id="covering">
    <g id="covering_2">
      <path id="base_blanche" class="cls-2" d="M312.06,291.35c1.75,11.59,3.16,24.37,3.91,38.19.73,13.53.73,26.13.27,37.64,30.54-8.6,61.08-17.2,91.63-25.8,1.95-6.68,3.82-15.44,4.31-25.79.58-12.31-.99-22.69-2.73-30.23-10.98,4.2-26.8,8.9-46.29,10.33-21.39,1.57-39.12-1.38-51.09-4.34Z"/>
      <g id="numéros">
        <path class="cls-1" d="M384.08,327.1c.31,3.96-.46,7.4-2.36,10.4-1.84,2.91-4.51,5.08-8.1,6.5-4.08,1.62-7.65,1.36-10.59-.91-2.96-2.26-4.7-6.06-5.15-11.34-.57-6.68,1.32-12.66,5.48-17.71,3.74-4.51,8.2-7.02,13.25-7.65.29-.04.52.16.69.59,1.44,3.48,2.17,5.37,2.19,5.72.07.84-.22,1.32-.87,1.44-1.77.33-3.43.93-4.96,1.8-2.04,1.14-3.42,2.57-4.08,4.27-.16.4-.23.68-.21.86.01.12.07.17.17.14.07-.01.19-.08.37-.2,1.39-1.08,2.91-1.8,4.56-2.15,2.69-.58,4.89-.1,6.63,1.39,1.76,1.51,2.75,3.79,2.99,6.86ZM376.61,329.43c-.11-1.33-.55-2.33-1.34-3.01-.8-.69-1.76-.89-2.89-.59-1.25.33-2.26,1.03-3.02,2.12-.77,1.1-1.09,2.41-.96,3.92.14,1.63.6,2.83,1.38,3.59.83.82,1.92,1,3.24.55,1.3-.44,2.26-1.28,2.9-2.51.59-1.17.82-2.52.69-4.06Z"/>
      </g>
    </g>
  </g>
</svg>