<?xml version="1.0" encoding="UTF-8"?>
<svg xmlns="http://www.w3.org/2000/svg" viewBox="0 0 595.28 595.28">
  <defs>
    <style>
      .cls-1 {
        fill: #1d1d1b;
      }

      .cls-2 {
        fill: #fff;
        stroke: #1d1d1b;
        stroke-miterlimit: 10;
        stroke-width: .5px;
      }

      .cls-3 {
        fill: #5f4e49;
        opacity: 0;
      }
    </style>
  </defs>
  <g id="fond_transparent">
    <rect class="cls-3" width="596.32" height="596.32"/>
  </g>
  <g id="covering">
    <g id="covering_2">
      <path id="base_blanche" class="cls-2" d="M312.06,291.35c1.75,11.59,3.16,24.37,3.91,38.19.73,13.53.73,26.13.27,37.64,30.54-8.6,61.08-17.2,91.63-25.8,1.95-6.68,3.82-15.44,4.31-25.79.58-12.31-.99-22.69-2.73-30.23-10.98,4.2-26.8,8.9-46.29,10.33-21.39,1.57-39.12-1.38-51.09-4.34Z"/>
      <g id="numéros">
        <path class="cls-1" d="M376.12,337.87c0,.33-.12.66-.38,1s-.55.55-.86.63c-.76.2-1.9.5-3.44.92-1.55.42-2.73.73-3.52.94-.61.16-.92-.04-.93-.6v-.3c-.06-6.87-.13-11.15-.2-12.67l-.38-8.55c-.02-.55-.15-.81-.38-.76-.36.07-.89.28-1.6.65-.72.37-1.26.59-1.64.66-.56.1-.86-.21-.91-.95-.04-.68-.11-1.71-.2-3.08-.1-1.39-.17-2.45-.21-3.17-.02-.41.19-.76.64-1.04,2.64-1.69,4.67-3.71,6.1-6.08.29-.48.54-.74.76-.77.04,0,.15,0,.33.02.69.07,1.7.19,3.03.36.7,0,1.73.05,3.06.12.24.05.37.25.37.62,0,.12-.01.34-.04.65-.15,1.81-.16,6.1-.03,12.73.04,2.17.12,5.38.23,9.59.1,4.11.18,7.12.21,9.1Z"/>
      </g>
    </g>
  </g>
</svg>