<?xml version="1.0" encoding="UTF-8"?>
<svg xmlns="http://www.w3.org/2000/svg" viewBox="0 0 595.28 595.28">
  <defs>
    <style>
      .cls-1 {
        fill: #1d1d1b;
      }

      .cls-2 {
        fill: #fff;
        stroke: #1d1d1b;
        stroke-miterlimit: 10;
        stroke-width: .5px;
      }

      .cls-3 {
        fill: #5f4e49;
        opacity: 0;
      }
    </style>
  </defs>
  <g id="fond_transparent">
    <rect class="cls-3" width="596.32" height="596.32"/>
  </g>
  <g id="covering">
    <g id="covering_2">
      <path id="base_blanche" class="cls-2" d="M312.06,291.35c1.75,11.59,3.16,24.37,3.91,38.19.73,13.53.73,26.13.27,37.64,30.54-8.6,61.08-17.2,91.63-25.8,1.95-6.68,3.82-15.44,4.31-25.79.58-12.31-.99-22.69-2.73-30.23-10.98,4.2-26.8,8.9-46.29,10.33-21.39,1.57-39.12-1.38-51.09-4.34Z"/>
      <g id="numéros">
        <path class="cls-1" d="M382.1,312.85c.03.31-.13.71-.48,1.21-.79,1.06-1.65,2.93-2.57,5.61-.77,2.27-1.36,4.37-1.76,6.27-.97,4.7-1.42,9.32-1.35,13.81.02,1.22-.28,2.02-.88,2.41-.47.31-2.02.85-4.71,1.65-1.65.49-2.65.76-2.97.82-1.54.27-2.34.02-2.4-.75-.22-2.84.35-6.64,1.67-11.32.91-3.2,2.16-6.75,3.72-10.62,1.32-3.25,1.97-4.83,1.97-4.79-.02-.18-.37-.22-1.07-.11-1.24.2-3.13.58-5.69,1.14s-4.66.98-6.03,1.21c-.47.08-.72-.13-.76-.62-.04-.57,0-1.38.1-2.42.12-1.22.18-2.02.19-2.42,0-.88-.06-2.34-.21-4.37-.04-.5.36-.8,1.19-.9.77-.09,1.77-.13,2.98-.14,1.65,0,2.62,0,2.94-.03,2.97-.1,7.85-.56,14.36-1.33.68-.08,1.08.28,1.21,1.09.2,1.22.38,2.75.54,4.61Z"/>
      </g>
    </g>
  </g>
</svg>