<?xml version="1.0" encoding="UTF-8"?>
<svg xmlns="http://www.w3.org/2000/svg" viewBox="0 0 595.28 595.28">
  <defs>
    <style>
      .cls-1 {
        fill: #1d1d1b;
      }

      .cls-2 {
        fill: #fff;
        stroke: #1d1d1b;
        stroke-miterlimit: 10;
        stroke-width: .5px;
      }

      .cls-3 {
        fill: #5f4e49;
        opacity: 0;
      }
    </style>
  </defs>
  <g id="fond_transparent">
    <rect class="cls-3" width="596.32" height="596.32"/>
  </g>
  <g id="covering">
    <g id="covering_2">
      <path id="base_blanche" class="cls-2" d="M312.06,291.35c1.75,11.59,3.16,24.37,3.91,38.19.73,13.53.73,26.13.27,37.64,30.54-8.6,61.08-17.2,91.63-25.8,1.95-6.68,3.82-15.44,4.31-25.79.58-12.31-.99-22.69-2.73-30.23-10.98,4.2-26.8,8.9-46.29,10.33-21.39,1.57-39.12-1.38-51.09-4.34Z"/>
      <g id="numéros">
        <path class="cls-1" d="M381.66,320.32c.2,5.89-1.43,10.91-4.97,15.22-3.4,4.15-7.85,6.88-13.5,8.16-.35.08-.63-.12-.85-.59-1.43-3.08-2.18-5.14-2.24-6.15-.03-.63.37-1.02,1.21-1.17,5.53-1.04,8.9-3.22,10.31-6.55.19-.45.28-.76.27-.95,0-.11-.05-.16-.15-.15-.08.01-.26.12-.55.31-1.34.96-2.89,1.59-4.67,1.88-3.01.5-5.58-.1-7.7-1.84-2.22-1.79-3.45-4.48-3.66-8.03-.27-4.65.95-8.37,3.63-11.06,2.4-2.44,5.64-3.75,9.62-3.95,4.14-.21,7.35,1.16,9.72,4.03,2.21,2.69,3.37,6.3,3.53,10.84ZM372.92,318.71c-.06-1.44-.46-2.64-1.2-3.6-.82-1.06-1.84-1.54-3.08-1.43-2.83.25-4.18,2.11-4.01,5.54.07,1.4.52,2.51,1.34,3.33.81.82,1.81,1.15,2.98.99,1.17-.16,2.13-.66,2.88-1.5.79-.92,1.15-2.02,1.1-3.33Z"/>
      </g>
    </g>
  </g>
</svg>