<?xml version="1.0" encoding="UTF-8"?>
<svg xmlns="http://www.w3.org/2000/svg" viewBox="0 0 595.28 595.28">
  <defs>
    <style>
      .cls-1 {
        fill: #1d1d1b;
      }

      .cls-2 {
        fill: #fff;
        stroke: #1d1d1b;
        stroke-miterlimit: 10;
        stroke-width: .5px;
      }

      .cls-3 {
        fill: #5f4e49;
        opacity: 0;
      }
    </style>
  </defs>
  <g id="fond_transparent">
    <rect class="cls-3" width="596.32" height="596.32"/>
  </g>
  <g id="covering">
    <g id="covering_2">
      <path id="base_blanche" class="cls-2" d="M312.06,291.35c1.75,11.59,3.16,24.37,3.91,38.19.73,13.53.73,26.13.27,37.64,30.54-8.6,61.08-17.2,91.63-25.8,1.95-6.68,3.82-15.44,4.31-25.79.58-12.31-.99-22.69-2.73-30.23-10.98,4.2-26.8,8.9-46.29,10.33-21.39,1.57-39.12-1.38-51.09-4.34Z"/>
      <g id="numéros">
        <path class="cls-1" d="M383.76,327.16c.71,7.31-3.52,12.6-13.53,16.05-1.55.54-3.68,1.11-6.43,1.73-3.69.83-5.71.99-5.95.46-.11-.22-.21-1.07-.32-2.54-.06-.81-.03-1.92.1-3.33.16-1.8.42-2.76.79-2.86.11-.03.3-.03.56.01,2.62.38,5.47.1,8.52-.81,4.23-1.27,6.16-3.14,5.94-5.64-.12-1.37-.95-2.2-2.51-2.5-1.23-.25-2.7-.17-4.4.27-.73.19-1.82.55-3.29,1.09-1.49.55-2.63.93-3.41,1.13-.74.19-1.13-.01-1.18-.61-.13-1.79-.24-4.52-.33-8.19s-.19-6.3-.32-8.04c-.03-.34.1-.72.38-1.14.27-.42.6-.69.96-.82.45-.14,3.26-.62,8.23-1.41,5.34-.85,8.75-1.37,10.45-1.61.45-.06.7.09.73.44.09.91.1,2.18.05,3.81-.06,2.1-.27,3.19-.62,3.26l-.28.03c-3.96.46-6.52.8-7.55,1.01-2.06.41-3.18.74-3.31.98-.28.59-.37,1.61-.25,3.06.02.23.08.39.19.49.48-.11,1.23-.32,2.25-.63.95-.3,1.68-.5,2.19-.61,3.36-.74,6.13-.51,8.36.64,2.37,1.2,3.67,3.27,3.97,6.25Z"/>
      </g>
    </g>
  </g>
</svg>