<?xml version="1.0" encoding="UTF-8"?>
<svg xmlns="http://www.w3.org/2000/svg" viewBox="0 0 595.28 595.28">
  <defs>
    <style>
      .cls-1 {
        fill: #1d1d1b;
      }

      .cls-2 {
        fill: #fff;
        stroke: #1d1d1b;
        stroke-miterlimit: 10;
        stroke-width: .5px;
      }

      .cls-3 {
        fill: #5f4e49;
        opacity: 0;
      }
    </style>
  </defs>
  <g id="fond_transparent">
    <rect class="cls-3" width="596.32" height="596.32"/>
  </g>
  <g id="covering">
    <g id="covering_2">
      <path id="base_blanche" class="cls-2" d="M312.06,291.35c1.75,11.59,3.16,24.37,3.91,38.19.73,13.53.73,26.13.27,37.64,30.54-8.6,61.08-17.2,91.63-25.8,1.95-6.68,3.82-15.44,4.31-25.79.58-12.31-.99-22.69-2.73-30.23-10.98,4.2-26.8,8.9-46.29,10.33-21.39,1.57-39.12-1.38-51.09-4.34Z"/>
      <g id="numéros">
        <path class="cls-1" d="M381.96,330.22c.29,3.25-.6,6.04-2.69,8.41-1.89,2.12-4.4,3.59-7.56,4.39-3.75.95-6.89.82-9.36-.43-2.88-1.42-4.55-4.2-4.94-8.34-.13-1.37.11-2.76.71-4.17.42-.97,1-1.95,1.74-2.94l.94-1.23c-.02-.21-.34-.59-.97-1.13-.81-.65-1.42-1.29-1.84-1.91-.7-1.04-1.12-2.28-1.26-3.73-.34-3.54.8-6.41,3.36-8.59,2.12-1.78,4.85-2.85,8.17-3.22,2.73-.31,5.25.21,7.58,1.53,2.62,1.49,4.04,3.6,4.29,6.35.13,1.45-.03,2.83-.47,4.12-.28.85-.7,1.71-1.28,2.58-.48.73-.72,1.15-.71,1.26,0,.04.35.36,1.03.97.82.71,1.47,1.45,1.97,2.23.72,1.15,1.14,2.43,1.27,3.86ZM372.69,332.49c-.16-1.79-1.64-2.87-4.48-3.23-.94-.14-1.45-.21-1.52-.19-.61.12-1.15.77-1.64,1.94-.45,1.1-.65,2.01-.58,2.74.12,1.27.67,2.21,1.63,2.81.89.57,1.92.72,3.08.46,2.57-.58,3.72-2.09,3.5-4.52ZM373.65,316.18c-.09-.94-.53-1.66-1.35-2.16-.75-.44-1.57-.6-2.47-.48-2.39.33-3.5,1.62-3.3,3.85.14,1.48,1.79,2.43,4.91,2.85.21.02.36.03.46,0,.55-.09,1-.65,1.36-1.68.32-.91.45-1.7.38-2.39Z"/>
      </g>
    </g>
  </g>
</svg>