<?xml version="1.0" encoding="UTF-8"?>
<svg xmlns="http://www.w3.org/2000/svg" viewBox="0 0 595.28 595.28">
  <defs>
    <style>
      .cls-1 {
        fill: #1d1d1b;
      }

      .cls-2 {
        fill: #fff;
        stroke: #1d1d1b;
        stroke-miterlimit: 10;
        stroke-width: .5px;
      }

      .cls-3 {
        fill: #5f4e49;
        opacity: 0;
      }
    </style>
  </defs>
  <g id="fond_transparent">
    <rect class="cls-3" width="596.32" height="596.32"/>
  </g>
  <g id="covering">
    <g id="covering_2">
      <path id="base_blanche" class="cls-2" d="M312.06,291.35c1.75,11.59,3.16,24.37,3.91,38.19.73,13.53.73,26.13.27,37.64,30.54-8.6,61.08-17.2,91.63-25.8,1.95-6.68,3.82-15.44,4.31-25.79.58-12.31-.99-22.69-2.73-30.23-10.98,4.2-26.8,8.9-46.29,10.33-21.39,1.57-39.12-1.38-51.09-4.34Z"/>
      <g id="numéros">
        <path class="cls-1" d="M384.36,329.68c.06.41.1,1.03.14,1.87s.09,1.47.15,1.9.14,1.1.26,2.02c.11.92.2,1.6.26,2.04s-.16.75-.67.93c-.18.06-.94.14-2.26.24-1.49.13-4.27.88-8.43,2.3-1.32.45-3.32,1.21-6.05,2.31-2.79,1.12-4.93,1.94-6.35,2.43-.5.17-.81.01-.93-.46-.15-.66-.43-1.62-.84-2.88-.76-1.89-1.15-2.98-1.2-3.28-.06-.44.71-1.02,2.3-1.73,1.82-.82,2.95-1.53,3.41-2.13,1.63-2.19,3.22-4.79,4.77-7.78,1.94-3.7,2.78-6.27,2.58-7.79-.18-1.31-.77-2.32-1.79-3.03-1.02-.71-2.16-.93-3.42-.66-1.44.31-2.85.92-4.22,1.85-.94.6-1.91,1.4-2.91,2.38-.86.82-1.34,1.24-1.44,1.27-.66.15-1.1-.56-1.31-2.15-.16-1.23-.33-2.1-.5-2.64-.07-.25-.29-.75-.65-1.51-.33-.65-.51-1.14-.56-1.47-.03-.26.1-.54.4-.84,1.47-1.46,3.48-2.76,6.01-3.88,2.21-.97,4.34-1.63,6.41-1.99,3.28-.57,6.06-.27,8.37.86,2.67,1.29,4.2,3.52,4.65,6.71.59,4.26-1.6,10.03-6.8,17.63,4.27-1.52,7.5-2.6,9.79-3.28.46-.14.74.12.83.78Z"/>
      </g>
    </g>
  </g>
</svg>