<?xml version="1.0" encoding="UTF-8"?>
<svg xmlns="http://www.w3.org/2000/svg" viewBox="0 0 595.28 595.28">
  <defs>
    <style>
      .cls-1 {
        fill: #1d1d1b;
      }

      .cls-2 {
        fill: #fff;
        stroke: #1d1d1b;
        stroke-miterlimit: 10;
        stroke-width: .5px;
      }

      .cls-3 {
        fill: #5f4e49;
        opacity: 0;
      }
    </style>
  </defs>
  <g id="fond_transparent">
    <rect class="cls-3" width="596.32" height="596.32"/>
  </g>
  <g id="covering">
    <g id="covering_2">
      <path id="base_blanche" class="cls-2" d="M312.06,291.35c1.75,11.59,3.16,24.37,3.91,38.19.73,13.53.73,26.13.27,37.64,30.54-8.6,61.08-17.2,91.63-25.8,1.95-6.68,3.82-15.44,4.31-25.79.58-12.31-.99-22.69-2.73-30.23-10.98,4.2-26.8,8.9-46.29,10.33-21.39,1.57-39.12-1.38-51.09-4.34Z"/>
      <g id="numéros">
        <path class="cls-1" d="M384.5,332.68c.02.27-.15.5-.53.69-.27.13-.66.24-1.16.33-.71.13-1.01.18-.9.15-.62.16-.89.6-.83,1.31.04.44.12,1.1.24,1.98.12.88.2,1.54.24,1.99.05.65-.16,1.04-.66,1.19-5.69,1.65-8.82,2.47-9.15,2.4-.33-.08-.5-.24-.52-.49-.02-.29.03-1.04.16-2.25.13-1.2.18-2.06.14-2.59-.05-.64-.4-.87-1.05-.7-1.19.31-2.99.81-5.44,1.52-2.51.73-4.43,1.27-5.74,1.61-1.58.41-2.43-.04-2.51-1.34-.04-.66-.12-1.64-.22-2.94-.11-1.3-.18-2.28-.22-2.93-.04-.61.23-1.32.8-2.13,2.64-3.73,4.51-6.6,5.63-8.67.53-.98,2.28-4.69,5.16-10.94.35-.91.95-2.16,1.77-3.74.22-.34.46-.52.73-.55.41-.04,1.69.14,3.81.56s3.46.57,4.18.48c.5-.06.79.27.85.99.06.68.08,1.73.05,3.13-.02,1.41,0,2.47.05,3.18l.96,11.34c.3-.07.82-.23,1.54-.5.64-.25,1.14-.41,1.49-.49.29-.06.45.11.49.52.03.37.06.94.09,1.7.03.76.06,1.33.09,1.73.03.39.11.97.23,1.74.12.77.2,1.35.23,1.74ZM371.05,317.85c0-.11-.07-.16-.19-.14-.15.03-.3.17-.44.44-.96,2.12-1.94,4.28-2.94,6.46-1.22,2.57-2.46,4.73-3.71,6.44,1.02-.23,3.57-.93,7.53-2.08-.02-.77-.05-2.66-.07-5.66-.03-2.35-.09-4.17-.19-5.46Z"/>
      </g>
    </g>
  </g>
</svg>