<?xml version="1.0" encoding="UTF-8"?>
<svg xmlns="http://www.w3.org/2000/svg" viewBox="0 0 595.28 595.28">
  <defs>
    <style>
      .cls-1 {
        fill: #1d1d1b;
      }

      .cls-2 {
        fill: #fff;
        stroke: #1d1d1b;
        stroke-miterlimit: 10;
        stroke-width: .5px;
      }

      .cls-3 {
        fill: #5f4e49;
        opacity: 0;
      }
    </style>
  </defs>
  <g id="fond_transparent">
    <rect class="cls-3" width="596.32" height="596.32"/>
  </g>
  <g id="covering_-_copie_2">
    <g id="covering_2">
      <path id="base_blanche" class="cls-2" d="M254.15,319.76c2.83,9.24,5.52,19.37,7.84,30.33,2.55,12,4.3,23.28,5.49,33.65,30.6-8.47,61.2-16.94,91.81-25.41.38-8.71.02-19.76-2.44-32.23-3.62-18.32-10.37-32.53-15.87-42-10.51,6.67-23.25,13.73-38.2,20.13-18.03,7.72-34.67,12.5-48.63,15.54Z"/>
      <g id="numéros">
        <path class="cls-1" d="M323.31,340.89c.61,7.63-3.89,13.05-14.37,16.47-1.62.53-3.85,1.09-6.73,1.68-3.86.8-5.96.93-6.2.37-.11-.23-.2-1.12-.28-2.65-.05-.84,0-2,.16-3.47.2-1.88.49-2.86.87-2.97.11-.03.31-.02.58.02,2.72.44,5.7.2,8.89-.69,4.43-1.25,6.47-3.16,6.29-5.76-.1-1.42-.95-2.3-2.57-2.65-1.28-.29-2.8-.22-4.59.2-.76.18-1.9.54-3.44,1.08-1.56.55-2.76.92-3.57,1.12-.77.19-1.18-.03-1.22-.65-.11-1.86-.17-4.71-.2-8.53s-.09-6.57-.19-8.37c-.02-.36.12-.75.41-1.18.29-.43.63-.71,1.02-.84.47-.14,3.4-.59,8.59-1.32,5.57-.79,9.14-1.27,10.91-1.49.47-.05.72.11.75.48.07.95.07,2.27-.01,3.97-.1,2.19-.33,3.32-.7,3.39l-.29.03c-4.13.41-6.81.72-7.88.92-2.15.39-3.32.71-3.47.96-.31.61-.41,1.67-.31,3.19.02.24.08.41.19.52.5-.1,1.29-.31,2.36-.61.99-.29,1.76-.49,2.3-.6,3.51-.71,6.39-.42,8.7.82,2.44,1.29,3.77,3.47,4.02,6.58Z"/>
      </g>
    </g>
  </g>
</svg>