<?xml version="1.0" encoding="UTF-8"?>
<svg xmlns="http://www.w3.org/2000/svg" viewBox="0 0 595.28 595.28">
  <defs>
    <style>
      .cls-1 {
        fill: #1d1d1b;
      }

      .cls-2 {
        fill: #fff;
        stroke: #1d1d1b;
        stroke-miterlimit: 10;
        stroke-width: .5px;
      }

      .cls-3 {
        fill: #5f4e49;
        opacity: 0;
      }
    </style>
  </defs>
  <g id="fond_transparent">
    <rect class="cls-3" width="596.32" height="596.32"/>
  </g>
  <g id="covering_-_copie_2">
    <g id="covering_2">
      <path id="base_blanche" class="cls-2" d="M254.15,319.76c2.83,9.24,5.52,19.37,7.84,30.33,2.55,12,4.3,23.28,5.49,33.65,30.6-8.47,61.2-16.94,91.81-25.41.38-8.71.02-19.76-2.44-32.23-3.62-18.32-10.37-32.53-15.87-42-10.51,6.67-23.25,13.73-38.2,20.13-18.03,7.72-34.67,12.5-48.63,15.54Z"/>
      <g id="numéros">
        <path class="cls-1" d="M321.38,344.05c.24,3.39-.73,6.28-2.95,8.71-2,2.18-4.64,3.66-7.95,4.43-3.93.92-7.19.73-9.74-.61-2.98-1.53-4.66-4.46-5-8.77-.11-1.43.16-2.87.82-4.33.45-1,1.07-2.02,1.87-3.03l1-1.27c-.02-.22-.35-.62-.99-1.19-.83-.69-1.45-1.36-1.88-2.02-.71-1.09-1.13-2.4-1.25-3.91-.29-3.69.94-6.66,3.66-8.88,2.24-1.81,5.11-2.88,8.56-3.21,2.85-.27,5.47.31,7.87,1.73,2.71,1.6,4.14,3.82,4.35,6.69.11,1.52-.08,2.94-.56,4.28-.3.88-.76,1.77-1.38,2.66-.52.75-.77,1.18-.76,1.3,0,.04.36.38,1.06,1.03.84.75,1.51,1.54,2.01,2.36.73,1.21,1.14,2.55,1.25,4.04ZM311.69,346.24c-.14-1.87-1.66-3.01-4.61-3.45-.98-.16-1.51-.24-1.58-.23-.64.11-1.22.78-1.74,1.99-.49,1.14-.71,2.08-.65,2.84.1,1.33.65,2.31,1.65,2.95.91.61,1.98.79,3.2.53,2.69-.56,3.91-2.11,3.73-4.64ZM312.98,329.28c-.07-.98-.53-1.74-1.37-2.27-.77-.47-1.63-.65-2.56-.54-2.5.3-3.68,1.62-3.5,3.95.12,1.54,1.82,2.56,5.06,3.06.21.03.37.03.48.02.57-.08,1.06-.66,1.45-1.73.35-.94.49-1.77.44-2.48Z"/>
      </g>
    </g>
  </g>
</svg>