<?xml version="1.0" encoding="UTF-8"?>
<svg xmlns="http://www.w3.org/2000/svg" viewBox="0 0 595.28 595.28">
  <defs>
    <style>
      .cls-1 {
        fill: #1d1d1b;
      }

      .cls-2 {
        fill: #fff;
        stroke: #1d1d1b;
        stroke-miterlimit: 10;
        stroke-width: .5px;
      }

      .cls-3 {
        fill: #5f4e49;
        opacity: 0;
      }
    </style>
  </defs>
  <g id="fond_transparent">
    <rect class="cls-3" width="596.32" height="596.32"/>
  </g>
  <g id="covering_-_copie_2">
    <g id="covering_2">
      <path id="base_blanche" class="cls-2" d="M254.15,319.76c2.83,9.24,5.52,19.37,7.84,30.33,2.55,12,4.3,23.28,5.49,33.65,30.6-8.47,61.2-16.94,91.81-25.41.38-8.71.02-19.76-2.44-32.23-3.62-18.32-10.37-32.53-15.87-42-10.51,6.67-23.25,13.73-38.2,20.13-18.03,7.72-34.67,12.5-48.63,15.54Z"/>
      <g id="numéros">
        <path class="cls-1" d="M321.84,325.96c.02.33-.15.74-.53,1.25-.84,1.09-1.77,3.02-2.78,5.8-.84,2.35-1.49,4.52-1.94,6.5-1.09,4.88-1.65,9.68-1.65,14.35,0,1.27-.32,2.1-.96,2.5-.49.31-2.12.85-4.93,1.63-1.73.48-2.77.75-3.11.8-1.6.25-2.44-.02-2.49-.83-.18-2.96.48-6.91,1.95-11.76,1.01-3.31,2.37-6.99,4.06-10.99,1.43-3.36,2.14-4.99,2.14-4.95-.01-.19-.38-.23-1.11-.13-1.3.19-3.27.55-5.95,1.08s-4.87.94-6.3,1.15c-.49.07-.75-.15-.78-.66-.03-.59.02-1.43.15-2.52.14-1.27.22-2.1.24-2.52.02-.92-.02-2.44-.14-4.56-.03-.52.39-.83,1.26-.91.8-.08,1.84-.11,3.11-.09,1.72.03,2.73.04,3.06.02,3.1-.06,8.18-.44,14.98-1.13.7-.07,1.12.31,1.24,1.15.18,1.27.34,2.87.48,4.81Z"/>
      </g>
    </g>
  </g>
</svg>