<?xml version="1.0" encoding="UTF-8"?>
<svg xmlns="http://www.w3.org/2000/svg" viewBox="0 0 595.28 595.28">
  <defs>
    <style>
      .cls-1 {
        fill: #1d1d1b;
      }

      .cls-2 {
        fill: #fff;
        stroke: #1d1d1b;
        stroke-miterlimit: 10;
        stroke-width: .5px;
      }

      .cls-3 {
        fill: #5f4e49;
        opacity: 0;
      }
    </style>
  </defs>
  <g id="fond_transparent">
    <rect class="cls-3" width="596.32" height="596.32"/>
  </g>
  <g id="covering_-_copie_2">
    <g id="covering_2">
      <path id="base_blanche" class="cls-2" d="M254.15,319.76c2.83,9.24,5.52,19.37,7.84,30.33,2.55,12,4.3,23.28,5.49,33.65,30.6-8.47,61.2-16.94,91.81-25.41.38-8.71.02-19.76-2.44-32.23-3.62-18.32-10.37-32.53-15.87-42-10.51,6.67-23.25,13.73-38.2,20.13-18.03,7.72-34.67,12.5-48.63,15.54Z"/>
      <g id="numéros">
        <path class="cls-1" d="M323.65,340.84c.26,4.13-.61,7.7-2.64,10.78-1.97,3-4.78,5.21-8.55,6.62-4.28,1.61-7.99,1.28-11.01-1.14-3.04-2.41-4.79-6.4-5.16-11.9-.48-6.97,1.6-13.16,6.03-18.34,3.98-4.63,8.67-7.16,13.93-7.73.3-.03.54.18.71.63,1.44,3.65,2.16,5.63,2.18,5.99.06.88-.25,1.37-.93,1.49-1.85.31-3.59.9-5.2,1.78-2.15,1.15-3.61,2.61-4.33,4.37-.17.41-.25.71-.24.89,0,.12.07.17.17.15.07-.01.2-.08.39-.2,1.47-1.1,3.06-1.82,4.78-2.16,2.81-.55,5.09-.01,6.88,1.57,1.81,1.61,2.79,4,2.99,7.19ZM315.82,343.12c-.09-1.39-.53-2.44-1.34-3.16-.82-.73-1.81-.96-3-.67-1.31.32-2.37,1.03-3.18,2.15-.82,1.13-1.18,2.49-1.07,4.07.11,1.7.57,2.95,1.37,3.76.85.87,1.98,1.07,3.36.63,1.36-.43,2.38-1.29,3.06-2.57.63-1.21.9-2.61.79-4.21Z"/>
      </g>
    </g>
  </g>
</svg>