<?xml version="1.0" encoding="UTF-8"?>
<svg xmlns="http://www.w3.org/2000/svg" viewBox="0 0 595.28 595.28">
  <defs>
    <style>
      .cls-1 {
        fill: #1d1d1b;
      }

      .cls-2 {
        fill: #fff;
        stroke: #1d1d1b;
        stroke-miterlimit: 10;
        stroke-width: .5px;
      }

      .cls-3 {
        fill: #5f4e49;
        opacity: 0;
      }
    </style>
  </defs>
  <g id="fond_transparent">
    <rect class="cls-3" width="596.32" height="596.32"/>
  </g>
  <g id="covering_-_copie_2">
    <g id="covering_2">
      <path id="base_blanche" class="cls-2" d="M254.15,319.76c2.83,9.24,5.52,19.37,7.84,30.33,2.55,12,4.3,23.28,5.49,33.65,30.6-8.47,61.2-16.94,91.81-25.41.38-8.71.02-19.76-2.44-32.23-3.62-18.32-10.37-32.53-15.87-42-10.51,6.67-23.25,13.73-38.2,20.13-18.03,7.72-34.67,12.5-48.63,15.54Z"/>
      <g id="numéros">
        <path class="cls-1" d="M326.84,341.2c.24,3.46-.81,6.49-3.21,9.1-2.11,2.32-4.9,4.01-8.44,5.04-2.82.82-5.21,1.29-7.14,1.39-4.33.27-6.57.02-6.59-.73,0-.13.03-.34.11-.63.27-.89.67-2.23,1.18-3.98.14-.84.39-2.1.76-3.76.17-.58.46-.91.89-1.01-.06.01.86.15,2.72.42,1.84.26,3.31.25,4.43-.02,3.63-.88,5.33-2.6,5.19-5.19-.11-2.06-1.82-2.74-5.23-2.05-.47.1-1.09.24-1.86.44s-1.3.33-1.55.38c-1.19.24-1.85.37-1.96.37-.88.07-1.33-.19-1.35-.79-.11-3.15-.06-5.13.15-5.97.14-.53.44-.84.91-.91.66-.11,1.63-.18,2.91-.23,1.26-.04,2.19-.11,2.8-.21.79-.13,1.43-.52,1.92-1.15.48-.63.7-1.36.66-2.2-.11-2.24-1.71-3.15-4.86-2.73-1.35.18-3.2.81-5.57,1.92-.1.03-.19.06-.27.07-.26.04-.49-.21-.68-.75-.07-.83-.16-1.79-.27-2.85-.03-.24-.1-.71-.22-1.41-.1-.56-.15-1.02-.16-1.38-.03-1.04,1.55-2.01,4.68-2.87,2.09-.58,4.08-.95,5.98-1.12,2.96-.27,5.52.17,7.72,1.3,2.6,1.33,3.98,3.38,4.17,6.2.22,3.28-.94,6.02-3.56,8.27,1.66.31,3,1.1,4.02,2.36,1.02,1.25,1.59,2.82,1.73,4.71Z"/>
      </g>
    </g>
  </g>
</svg>