<?xml version="1.0" encoding="UTF-8"?>
<svg xmlns="http://www.w3.org/2000/svg" viewBox="0 0 595.28 595.28">
  <defs>
    <style>
      .cls-1 {
        fill: #1d1d1b;
      }

      .cls-2 {
        fill: #fff;
        stroke: #1d1d1b;
        stroke-miterlimit: 10;
        stroke-width: .5px;
      }

      .cls-3 {
        fill: #5f4e49;
        opacity: 0;
      }
    </style>
  </defs>
  <g id="fond_transparent">
    <rect class="cls-3" width="596.32" height="596.32"/>
  </g>
  <g id="covering_-_copie_2">
    <g id="covering_2">
      <path id="base_blanche" class="cls-2" d="M254.15,319.76c2.83,9.24,5.52,19.37,7.84,30.33,2.55,12,4.3,23.28,5.49,33.65,30.6-8.47,61.2-16.94,91.81-25.41.38-8.71.02-19.76-2.44-32.23-3.62-18.32-10.37-32.53-15.87-42-10.51,6.67-23.25,13.73-38.2,20.13-18.03,7.72-34.67,12.5-48.63,15.54Z"/>
      <g id="numéros">
        <path class="cls-1" d="M315.16,351.91c0,.34-.14.68-.42,1.03s-.58.57-.91.64c-.79.19-1.99.49-3.6.89-1.63.41-2.86.71-3.68.91-.64.15-.96-.06-.96-.65l.02-.31c.05-7.15.05-11.62,0-13.19l-.24-8.91c-.02-.57-.14-.84-.38-.8-.37.06-.93.28-1.68.65-.75.37-1.33.6-1.72.66-.59.1-.9-.24-.93-1.01-.03-.71-.08-1.78-.16-3.22-.08-1.45-.13-2.55-.16-3.3-.02-.43.21-.79.69-1.08,2.78-1.71,4.93-3.78,6.46-6.22.31-.5.58-.76.8-.79.04,0,.15,0,.34.03.71.09,1.77.23,3.15.43.73.02,1.8.08,3.18.18.25.05.38.27.38.65,0,.13-.02.35-.05.67-.19,1.88-.28,6.35-.26,13.25,0,2.26.03,5.61.06,9.99.04,4.28.05,7.42.06,9.48Z"/>
      </g>
    </g>
  </g>
</svg>