<?xml version="1.0" encoding="UTF-8"?>
<svg xmlns="http://www.w3.org/2000/svg" viewBox="0 0 595.28 595.28">
  <defs>
    <style>
      .cls-1 {
        fill: #1d1d1b;
      }

      .cls-2 {
        fill: #fff;
        stroke: #1d1d1b;
        stroke-miterlimit: 10;
        stroke-width: .5px;
      }

      .cls-3 {
        fill: #5f4e49;
        opacity: 0;
      }
    </style>
  </defs>
  <g id="fond_transparent">
    <rect class="cls-3" width="596.32" height="596.32"/>
  </g>
  <g id="covering_-_copie_2">
    <g id="covering_2">
      <path id="base_blanche" class="cls-2" d="M254.15,319.76c2.83,9.24,5.52,19.37,7.84,30.33,2.55,12,4.3,23.28,5.49,33.65,30.6-8.47,61.2-16.94,91.81-25.41.38-8.71.02-19.76-2.44-32.23-3.62-18.32-10.37-32.53-15.87-42-10.51,6.67-23.25,13.73-38.2,20.13-18.03,7.72-34.67,12.5-48.63,15.54Z"/>
      <g id="numéros">
        <path class="cls-1" d="M323.99,346.65c.02.28-.17.52-.56.71-.29.13-.69.23-1.21.32-.74.12-1.05.17-.94.14-.65.15-.94.6-.89,1.35.03.46.1,1.15.22,2.07.11.92.18,1.61.22,2.07.05.67-.19,1.08-.71,1.22-5.95,1.61-9.23,2.42-9.57,2.34-.34-.08-.52-.26-.54-.52-.02-.3.05-1.09.21-2.34.16-1.25.22-2.15.19-2.69-.04-.66-.4-.91-1.08-.75-1.25.3-3.13.79-5.7,1.49-2.63.71-4.64,1.24-6.01,1.57-1.66.4-2.53-.08-2.59-1.44-.03-.69-.09-1.71-.18-3.07-.09-1.36-.15-2.38-.18-3.06-.03-.64.26-1.38.87-2.2,2.82-3.83,4.81-6.79,6.02-8.92.57-1.01,2.46-4.85,5.57-11.3.39-.94,1.02-2.23,1.91-3.86.23-.35.49-.54.77-.56.43-.04,1.76.18,3.96.65s3.6.65,4.34.57c.53-.05.81.29.86,1.05.05.71.05,1.8,0,3.26-.05,1.47-.05,2.58,0,3.32l.79,11.82c.31-.06.85-.23,1.61-.49.67-.25,1.2-.41,1.57-.48.31-.06.47.12.5.55.03.39.05.98.06,1.77.01.79.04,1.39.06,1.8.03.41.1,1.02.21,1.82.11.8.18,1.41.21,1.82ZM310.24,330.97c0-.12-.07-.16-.2-.15-.16.02-.32.17-.46.45-1.04,2.19-2.1,4.42-3.17,6.68-1.32,2.66-2.64,4.88-3.98,6.64,1.07-.22,3.74-.91,7.88-2.03-.01-.8,0-2.77.03-5.9.02-2.45-.02-4.35-.1-5.69Z"/>
      </g>
    </g>
  </g>
</svg>