<?xml version="1.0" encoding="UTF-8"?>
<svg xmlns="http://www.w3.org/2000/svg" viewBox="0 0 595.28 595.28">
  <defs>
    <style>
      .cls-1 {
        fill: #1d1d1b;
      }

      .cls-2 {
        fill: #fff;
        stroke: #1d1d1b;
        stroke-miterlimit: 10;
        stroke-width: .5px;
      }

      .cls-3 {
        fill: #5f4e49;
        opacity: 0;
      }
    </style>
  </defs>
  <g id="fond_transparent">
    <rect class="cls-3" width="596.32" height="596.32"/>
  </g>
  <g id="covering_-_copie_2">
    <g id="covering_2">
      <path id="base_blanche" class="cls-2" d="M254.15,319.76c2.83,9.24,5.52,19.37,7.84,30.33,2.55,12,4.3,23.28,5.49,33.65,30.6-8.47,61.2-16.94,91.81-25.41.38-8.71.02-19.76-2.44-32.23-3.62-18.32-10.37-32.53-15.87-42-10.51,6.67-23.25,13.73-38.2,20.13-18.03,7.72-34.67,12.5-48.63,15.54Z"/>
      <g id="numéros">
        <path class="cls-1" d="M321.25,333.73c.1,6.13-1.69,11.33-5.45,15.76-3.61,4.26-8.3,7.02-14.21,8.25-.36.08-.66-.13-.88-.63-1.43-3.23-2.18-5.39-2.22-6.45-.02-.65.4-1.05,1.28-1.2,5.78-.98,9.32-3.19,10.85-6.63.21-.46.31-.79.3-.98,0-.12-.05-.17-.16-.15-.08.01-.28.12-.58.32-1.41.97-3.04,1.6-4.9,1.88-3.14.47-5.81-.2-7.98-2.06-2.28-1.91-3.52-4.72-3.67-8.43-.2-4.85,1.14-8.69,3.98-11.45,2.55-2.5,5.94-3.8,10.09-3.94,4.31-.14,7.64,1.34,10.05,4.37,2.25,2.84,3.4,6.62,3.48,11.35ZM312.17,331.9c-.04-1.5-.43-2.75-1.19-3.77-.83-1.12-1.89-1.63-3.18-1.54-2.95.21-4.39,2.12-4.28,5.69.05,1.45.49,2.62,1.33,3.49.83.87,1.86,1.23,3.08,1.08,1.23-.15,2.23-.65,3.03-1.51.84-.94,1.24-2.09,1.2-3.45Z"/>
      </g>
    </g>
  </g>
</svg>