<?xml version="1.0" encoding="UTF-8"?>
<svg xmlns="http://www.w3.org/2000/svg" viewBox="0 0 595.28 595.28">
  <defs>
    <style>
      .cls-1 {
        fill: #1d1d1b;
      }

      .cls-2 {
        fill: #fff;
        stroke: #1d1d1b;
        stroke-miterlimit: 10;
        stroke-width: .5px;
      }

      .cls-3 {
        fill: #5f4e49;
        opacity: 0;
      }
    </style>
  </defs>
  <g id="fond_transparent">
    <rect class="cls-3" width="596.32" height="596.32"/>
  </g>
  <g id="covering_-_copie_2">
    <g id="covering_2">
      <path id="base_blanche" class="cls-2" d="M254.15,319.76c2.83,9.24,5.52,19.37,7.84,30.33,2.55,12,4.3,23.28,5.49,33.65,30.6-8.47,61.2-16.94,91.81-25.41.38-8.71.02-19.76-2.44-32.23-3.62-18.32-10.37-32.53-15.87-42-10.51,6.67-23.25,13.73-38.2,20.13-18.03,7.72-34.67,12.5-48.63,15.54Z"/>
      <g id="numéros">
        <path class="cls-1" d="M323.89,343.53c.05.43.09,1.07.11,1.95s.06,1.53.12,1.98.13,1.15.23,2.1c.1.96.18,1.67.24,2.13s-.18.78-.71.96c-.19.06-.98.13-2.36.21-1.56.11-4.46.84-8.82,2.24-1.38.44-3.48,1.2-6.34,2.3-2.93,1.12-5.16,1.93-6.66,2.42-.52.17-.84,0-.96-.5-.14-.69-.42-1.7-.82-3.02-.75-1.98-1.15-3.13-1.19-3.44-.05-.46.76-1.05,2.43-1.76,1.91-.82,3.1-1.54,3.59-2.16,1.74-2.26,3.44-4.93,5.11-8.02,2.08-3.81,3.01-6.48,2.82-8.07-.16-1.37-.76-2.43-1.81-3.18-1.05-.76-2.23-1.01-3.55-.75-1.51.29-2.98.91-4.43,1.85-.99.61-2.01,1.42-3.07,2.43-.91.84-1.42,1.27-1.52,1.29-.69.15-1.13-.61-1.32-2.26-.15-1.28-.31-2.2-.47-2.76-.07-.26-.29-.79-.65-1.59-.33-.68-.52-1.19-.56-1.54-.03-.27.11-.56.44-.86,1.55-1.5,3.67-2.81,6.32-3.93,2.31-.97,4.55-1.62,6.72-1.96,3.43-.53,6.31-.17,8.7,1.05,2.75,1.39,4.31,3.74,4.72,7.07.54,4.45-1.84,10.42-7.4,18.23,4.47-1.5,7.85-2.57,10.25-3.23.48-.13.77.14.85.82Z"/>
      </g>
    </g>
  </g>
</svg>