<?xml version="1.0" encoding="UTF-8"?>
<svg xmlns="http://www.w3.org/2000/svg" viewBox="0 0 595.28 595.28">
  <defs>
    <style>
      .cls-1 {
        stroke-width: .25px;
      }

      .cls-1, .cls-2 {
        fill: none;
        stroke: #1d1d1b;
        stroke-miterlimit: 10;
      }

      .cls-3 {
        fill: #5f4e49;
        opacity: 0;
      }

      .cls-2 {
        stroke-width: .5px;
      }
    </style>
  </defs>
  <g id="fond_transparent">
    <rect class="cls-3" width="596.32" height="596.32"/>
  </g>
  <g id="contours">
    <g id="contours-2" data-name="contours">
      <path class="cls-2" d="M468.22,259.93c-6.45-7.21-14.35-9.2-17.08-9.76-30.74-4.31-61.48-8.62-92.22-12.94-1.09-2.95-4.14-9.94-11.51-15.38-7.7-5.68-15.5-6.25-18.29-6.42-3.26-.2-12.63-.76-14.35,3.58-1.13,2.84,1.57,6.45,2.72,7.84-.42.2-1.09.47-1.94.5-1.7.07-3-.83-3.3-1.02-3.55-2.2-16.66,4.24-18.69,5.25-7.95,3.95-11.92,5.93-15.83,9.01-6.14,4.83-9.67,9.64-10.48,10.68-5.44,6.99-22.7,17.31-70.96,32.68-4.8-10.48-10.67-17.88-14.9-22.48-9.1-9.89-17.47-14.28-30.9-21.32-5.06-2.65-16.87-8.5-21.57-4.8-.4.32-1.33,1.16-2.28,2.32-3.04,3.68-3.83,7.51-3.99,8.13-2.01,7.85-38.17,34.13-52.56,51.25-1.51,1.79-25.79,31.48-16.41,59.28,8.5,25.21,40.12,35.42,48.62,38.17,14.74,4.76,31.99,5.52,31.99,5.52,5.16.23,9.51.1,12.65-.07,39.39-1.32,71.44-6.03,94.1-10.32,22.19-4.2,44.99-10.62,90.59-23.46,37.67-10.61,57.75-16.31,84.92-26.46,24.92-9.31,45.12-18.36,59.16-25.02.16-11.16.33-22.32.49-33.48.02-2.45-.16-12.6-7.95-21.29ZM347.88,234.8c-.82.91-3.35-1.69-10.96-4.06-5.43-1.69-8.21-1.62-12.1-4.31-1.65-1.13-4.5-3.1-4.1-4.51.69-2.44,11.2-3.51,18.87,1.23,5.93,3.66,9.45,10.37,8.3,11.65Z"/>
      <path id="interieur_voiture" class="cls-2" d="M196.27,283.95c3.05,6.33,9.3,17.07,21.05,26.38,7.99,6.33,15.83,9.87,21.49,11.87,12.44-1.59,31.34-5.09,52.84-13.75,18.61-7.49,65.37-26.32,63.72-47.97-1.35-17.77-35.15-35.29-54.97-28.31-7.7,2.71-19,11.14-21.13,12.73-7.25,5.41-11.98,10.12-13.1,11.2-7.62,7.34-25.43,17.09-69.89,27.84Z"/>
      <path class="cls-1" d="M97.55,279.96c5.22,3.83-14.76,25.6-9.08,41.22,7,19.22,56.59,24.63,94.9,17,21.34-4.25,27.97-10.31,44.31-7.79,24.07,3.71,34.5,20.68,48,29.13,40.96,25.62,104.13-16.66,134.56-35.69,16.74-10.47,40.16-27.56,63.77-54.38.41,1.48,1.04,3.95,1.56,7.04,1.33,7.91.78,12.96.54,26-.05,2.64-.1,6.74-.08,11.85-13.57,6.4-32.25,14.74-54.92,23.38-24.85,9.48-46.59,16.31-73.65,23.98-54.73,15.52-95.78,27.15-152.01,34.8-40.74,5.54-67.56,6.01-96.36-4.08-15.83-5.54-35.51-12.77-43.58-31.65-11.15-26.09,8.2-54.96,10.48-58.26,6.39-9.23,14.57-15.02,18.82-17.67,5.44-3.39,10.49-6.54,12.74-4.88Z"/>
      <path class="cls-1" d="M361.29,262.45c.06-2.88,96.09-4.59,96.29-1.19.05.88-6.28,1.88-13.85,3.08-6.09.96-24.38,3.56-56,1.23-10.77-.8-26.47-1.95-26.44-3.12Z"/>
      <path class="cls-1" d="M129.27,238.58c1.44-2.5,21.84,5.48,38.95,17.17,12.35,8.43,17.53,15.06,20.44,22.12,1.66,4.02,3.75,11.04,1.88,12.16-2.59,1.55-8.12-11.05-23.42-22-10.53-7.54-24.69-13.58-36-26.15-1.11-1.23-2.25-2.6-1.85-3.29Z"/>
    </g>
  </g>
</svg>