<?xml version="1.0" encoding="UTF-8"?>
<svg xmlns="http://www.w3.org/2000/svg" viewBox="0 0 595.28 595.28">
  <defs>
    <style>
      .cls-1 {
        fill: #2f2f30;
      }

      .cls-1, .cls-2, .cls-3, .cls-4, .cls-5 {
        stroke: #000;
        stroke-miterlimit: 10;
        stroke-width: .5px;
      }

      .cls-2 {
        fill: #0e0e0e;
      }

      .cls-6 {
        fill: #5f4e49;
        opacity: 0;
      }

      .cls-3 {
        opacity: .5;
      }

      .cls-4 {
        fill: #1e1e1e;
      }

      .cls-5 {
        fill: #202020;
      }
    </style>
  </defs>
  <g id="fond_transparent">
    <rect class="cls-6" width="596.32" height="596.32"/>
  </g>
  <g id="roue_devant_v2">
    <g id="roue_avant_2_-_copie">
      <g id="noire">
        <g id="roue_1">
          <g>
            <path class="cls-2" d="M181.8,411.67c1.77-7.85,5.77-15.78,11.85-22.75,1.18-1.35,2.43-2.68,3.77-3.95,16.08-15.29,37.98-19.09,52.26-10.1,1.21.76,2.35,1.62,3.45,2.57,6.02-10.48,9.57-18.04,8.35-19.65-4.96-6.52-34.7-28.17-70.55-7.78-35.86,20.39-40.73,48.86-40.73,48.86-15.8,64.56,42.7,70.19,42.7,70.19,0,0,5.09-7.25,12.52-18.09-6.36-1.14-12.11-4.01-16.54-8.67-7.47-7.85-9.66-19.16-7.08-30.64Z"/>
            <path class="cls-5" d="M274.49,385.24s-3.55-24.62-20.15-32.95c0,0-33.28-11.97-69.03,22.47,0,0-24.39,25.53-21.59,57.11,0,0,3.32,38.37,33.58,37.33,0,0,40.5,1.39,63.03-32.83,0,0,18.04-23.7,14.16-51.13ZM246.34,436.91c-3.26,3.1-6.77,5.72-10.4,7.87-8.45,4.99-17.58,7.38-25.99,6.99-8.24-.38-15.78-3.4-21.3-9.2-7.47-7.85-9.66-19.16-7.08-30.64,1.77-7.85,5.77-15.78,11.85-22.75,1.18-1.35,2.43-2.68,3.77-3.95,16.08-15.29,37.98-19.09,52.26-10.1,1.96,1.24,3.79,2.71,5.43,4.44,3.06,3.22,5.23,7.03,6.56,11.19,4.54,14.26-.95,32.68-15.1,46.14Z"/>
          </g>
          <g>
            <path class="cls-1" d="M261.44,390.77c-1.32-4.16-3.49-7.97-6.56-11.19-.63-.66-1.3-1.28-1.98-1.87-1.09-.94-2.24-1.81-3.45-2.57-14.28-9-36.18-5.2-52.26,10.1-1.34,1.27-2.59,2.6-3.77,3.95-6.08,6.96-10.08,14.89-11.85,22.75-2.58,11.48-.39,22.78,7.08,30.64,4.43,4.66,10.18,7.53,16.54,8.67,1.55.28,3.14.46,4.76.53,8.41.38,17.54-2,25.99-6.99,3.63-2.15,7.14-4.77,10.4-7.87,14.16-13.47,19.64-31.89,15.1-46.14ZM200.12,388.31c14.57-13.86,34.58-17.01,47.12-8.19-1.98,3.68-4.65,7.21-7.97,10.37-13.36,12.7-32.21,14.55-42.12,4.13-.49-.52-.95-1.07-1.38-1.62,1.33-1.62,2.78-3.19,4.35-4.69ZM212.85,446.96c-1.53,0-3.04-.11-4.52-.32-6.07-.85-11.57-3.43-15.75-7.82-6.91-7.27-8.69-17.9-5.86-28.53,9.15-2.14,18.16-.28,24.03,5.89,4.57,4.81,6.44,11.39,5.8,18.34-.37,4.12-1.62,8.36-3.71,12.44ZM243.42,433.84c-3.29,3.13-6.86,5.7-10.56,7.73-8.21-10.65-5.06-28.17,7.63-40.23,4.78-4.55,10.28-7.7,15.81-9.4,4.74,12.72.02,29.64-12.88,41.9Z"/>
            <path class="cls-1" d="M200.87,434.67s6.54-10.09,2.36-23.6c0,0,11.55,4.15,13.11,16.58,0,0,1.92,8.6-3.49,19.31,0,0-17.91.73-24.95-15.13,0,0,4,2.67,12.97,2.84Z"/>
            <path class="cls-1" d="M228.51,424.12s13.58-10.11,16.84-26.78c0,0,4.67-3.61,10.94-5.41,0,0,4.97,11.41-1.32,25.31,0,0-5.65,15.62-22.11,24.32,0,0-5.66-6.86-4.35-17.44Z"/>
            <path class="cls-1" d="M199.44,388.96s16.12,2.72,30.72-13.78c0,0,9.46-.62,17.07,4.94,0,0-6.06,13.17-21.51,19,0,0-17.87,8.1-29.96-6.12l3.68-4.04Z"/>
            <line class="cls-4" x1="200.87" y1="434.67" x2="212.85" y2="446.96"/>
          </g>
          <g>
            <path class="cls-3" d="M200.87,434.67s6.54-10.09,2.36-23.6c0,0,11.55,4.15,13.11,16.58,0,0,1.92,8.6-3.49,19.31,0,0-17.91.73-24.95-15.13,0,0,4,2.67,12.97,2.84Z"/>
            <path class="cls-3" d="M228.51,424.12s13.58-10.11,16.84-26.78c0,0,4.67-3.61,10.94-5.41,0,0,4.97,11.41-1.32,25.31,0,0-5.65,15.62-22.11,24.32,0,0-5.66-6.86-4.35-17.44Z"/>
            <path class="cls-3" d="M199.44,388.96s16.12,2.72,30.72-13.78c0,0,9.46-.62,17.07,4.94,0,0-6.06,13.17-21.51,19,0,0-17.87,8.1-29.96-6.12l3.68-4.04Z"/>
          </g>
        </g>
        <g id="roue_1-2" data-name="roue_1">
          <g>
            <path class="cls-2" d="M451.44,387.01s-35.8-4.23-31.5-46.75,46.81-56.04,46.81-56.04c0,0,31.67-8.31,45.7,15.65,4.9,8.36-13.15-7.26-41.42-2.22-8.47,1.51-28.66,28.03-31.47,37.97-6.44,22.84,11.87,51.4,11.87,51.4Z"/>
            <path class="cls-5" d="M505.34,291.75s-34.31-15.61-63.58,29.23c0,0-14.53,23.81-8.03,43.24,0,0,5.84,17.54,16.56,22.61,0,0,30.28,8.29,56.89-27.89,26.61-36.17,2.2-65.87-1.84-67.19ZM506.32,344.48c-1.71,3.42-3.79,6.63-6.12,9.59-5.44,6.89-12.33,12.38-19.53,15.77-1.38.65-2.78,1.22-4.18,1.71-5.73,2.01-11.52,2.65-16.8,1.55-8.9-1.85-14.5-8.22-16.15-16.77-1.13-5.85-.41-12.71,2.39-19.85.54-1.39,1.16-2.79,1.86-4.19,8.43-16.86,25.59-28.79,40.6-29.15,1.27-.03,2.52.03,3.75.17.77.09,1.54.2,2.29.35,3.65.76,6.74,2.29,9.24,4.41,8.56,7.26,10.09,21.56,2.66,36.41Z"/>
          </g>
          <g>
            <path class="cls-1" d="M503.65,308.07c-2.5-2.12-5.59-3.65-9.24-4.41-.75-.16-1.52-.27-2.29-.35-1.23-.14-2.48-.2-3.75-.17-15.01.36-32.16,12.29-40.6,29.15-.7,1.4-1.31,2.8-1.86,4.19-2.8,7.14-3.52,14-2.39,19.85,1.65,8.55,7.26,14.92,16.15,16.77,5.28,1.1,11.07.47,16.8-1.55,1.4-.49,2.79-1.06,4.18-1.71,7.2-3.39,14.09-8.89,19.53-15.77,2.34-2.96,4.41-6.17,6.12-9.59,7.43-14.84,5.9-29.14-2.66-36.41ZM481.5,365.48c-1.29.66-2.59,1.24-3.9,1.75-5.39,2.08-10.87,2.79-15.85,1.75-8.24-1.71-13.27-7.82-14.43-15.94,6.98-5.35,15.18-8.04,22.17-6.58,5.45,1.13,9.21,4.59,10.99,9.36,1.06,2.83,1.42,6.12,1.02,9.66ZM450.85,338.39c-.59-.12-1.15-.28-1.7-.45.58-1.62,1.27-3.27,2.1-4.92,7.64-15.28,23.42-25.97,36.9-25.69-.44,3.24-1.51,6.68-3.25,10.16-7,14-22.25,23.36-34.05,20.9ZM502.84,343.75c-1.73,3.45-3.87,6.66-6.31,9.57-10.45-3.34-13.64-16.04-6.98-29.34,2.51-5.02,6.08-9.43,10.17-12.92,8.23,6.18,9.89,19.18,3.13,32.7Z"/>
            <path class="cls-1" d="M467.33,362.7s2.14-9.36-5.88-16.3c0,0,11.1-2.32,16.55,5.06,0,0,4.48,4.73,3.5,14.01,0,0-14.82,8.22-26.02,1,0,0,4.25,0,11.85-3.78Z"/>
            <path class="cls-1" d="M487.06,343.91s8.05-12.42,5.24-24.62c0,0,2.72-4.35,7.4-8.24,0,0,7.98,5.23,7.32,16.96,0,0,.45,12.56-10.5,25.31,0,0-7.05-1.99-9.46-9.41Z"/>
            <path class="cls-1" d="M450.91,333.73s14.46-5.21,21.25-22.21c0,0,7.75-4.5,16-4.19,0,0-.72,11.15-11.76,21.61,0,0-12.33,12.97-27.24,9l1.75-4.21Z"/>
            <line class="cls-4" x1="467.33" y1="362.7" x2="481.5" y2="365.48"/>
          </g>
          <g>
            <path class="cls-3" d="M467.33,362.7s2.14-9.36-5.88-16.3c0,0,11.1-2.32,16.55,5.06,0,0,4.48,4.73,3.5,14.01,0,0-14.82,8.22-26.02,1,0,0,4.25,0,11.85-3.78Z"/>
            <path class="cls-3" d="M487.07,343.91s8.05-12.42,5.24-24.62c0,0,2.72-4.35,7.4-8.24,0,0,7.98,5.23,7.32,16.96,0,0,.45,12.56-10.5,25.31,0,0-7.05-1.99-9.46-9.41Z"/>
            <path class="cls-3" d="M450.91,333.73s14.46-5.21,21.25-22.21c0,0,7.75-4.5,16-4.19,0,0-.72,11.15-11.76,21.61,0,0-12.33,12.97-27.24,9l1.75-4.21Z"/>
          </g>
        </g>
      </g>
    </g>
  </g>
</svg>